<?xml version="1.0" standalone="no"?>
<!DOCTYPE svg PUBLIC "-//W3C//DTD SVG 20010904//EN"
 "http://www.w3.org/TR/2001/REC-SVG-20010904/DTD/svg10.dtd">
<svg version="1.0" xmlns="http://www.w3.org/2000/svg"
 width="700.000000pt" height="700.000000pt" viewBox="0 0 700.000000 700.000000"
 preserveAspectRatio="xMidYMid meet">
<metadata>
Created by potrace 1.14, written by Peter Selinger 2001-2017
</metadata>
<g transform="translate(0.000000,700.000000) scale(0.100000,-0.100000)"
fill="#000000" stroke="none">
<path d="M975 6989 c-245 -36 -495 -165 -661 -340 -166 -176 -273 -400 -304
-642 -7 -57 -10 -850 -7 -2562 3 -2273 4 -2486 20 -2546 117 -466 449 -789
907 -881 96 -19 5044 -19 5140 0 468 94 818 444 912 912 19 96 19 5044 0 5140
-92 458 -415 790 -881 907 -61 16 -271 17 -2566 19 -1395 1 -2526 -2 -2560 -7z
m5136 -161 c364 -100 628 -369 721 -734 l23 -89 0 -2505 0 -2505 -22 -85 c-49
-191 -133 -342 -267 -476 -134 -134 -285 -218 -476 -267 l-85 -22 -2510 0
-2510 0 -96 27 c-364 100 -628 369 -721 734 l-23 89 0 2505 0 2505 22 88 c48
187 131 335 263 468 159 161 355 260 572 288 35 5 1177 8 2538 7 l2475 -1 96
-27z"/>
<path d="M1125 4748 c-3 -7 -4 -548 -3 -1203 l3 -1190 338 -3 337 -2 0 411 0
411 223 -4 c375 -8 360 5 597 -480 l165 -338 387 0 c214 0 388 2 388 5 0 16
-340 682 -376 736 -77 116 -170 186 -291 218 -31 9 -43 17 -43 30 0 16 13 21
73 31 307 52 492 204 554 456 22 94 22 294 -1 388 -57 234 -230 405 -490 485
-174 54 -191 55 -1054 58 -653 3 -803 2 -807 -9z m1575 -628 c68 -38 85 -80
85 -210 0 -171 -36 -214 -194 -231 -42 -4 -237 -8 -433 -8 l-358 -1 0 240 0
241 428 -3 427 -3 45 -25z"/>
<path d="M3670 3555 l0 -1205 315 0 315 0 0 245 c0 234 1 245 19 245 15 0 22
-14 35 -72 50 -222 194 -367 421 -425 109 -27 421 -24 529 5 300 83 488 296
563 636 21 99 28 342 13 463 -48 387 -255 642 -587 725 -73 18 -115 22 -243
21 -250 -1 -371 -43 -501 -172 -81 -81 -127 -160 -152 -261 -9 -35 -20 -56
-31 -58 -14 -3 -16 43 -18 525 l-3 528 -337 3 -338 2 0 -1205z m1319 9 c164
-37 231 -141 218 -341 -8 -140 -60 -220 -168 -258 -95 -34 -396 -35 -511 -1
-78 22 -143 82 -163 149 -17 58 -20 233 -5 288 36 130 146 177 418 178 96 1
165 -4 211 -15z"/>
</g>
</svg>
