<svg width="25" height="25" viewBox="0 0 25 25" fill="none" xmlns="http://www.w3.org/2000/svg">
<path d="M6.58 12.1787C6.62759 12.056 6.69896 11.9438 6.79 11.8487L11.79 6.84872C11.8832 6.75548 11.9939 6.68152 12.1158 6.63106C12.2376 6.5806 12.3681 6.55463 12.5 6.55463C12.7663 6.55463 13.0217 6.66041 13.21 6.84872C13.3032 6.94196 13.3772 7.05265 13.4277 7.17447C13.4781 7.29629 13.5041 7.42686 13.5041 7.55872C13.5041 7.82502 13.3983 8.08041 13.21 8.26872L9.91 11.5587H17.5C17.7652 11.5587 18.0196 11.6641 18.2071 11.8516C18.3946 12.0391 18.5 12.2935 18.5 12.5587C18.5 12.8239 18.3946 13.0783 18.2071 13.2658C18.0196 13.4534 17.7652 13.5587 17.5 13.5587H9.91L13.21 16.8487C13.3037 16.9417 13.3781 17.0523 13.4289 17.1741C13.4797 17.296 13.5058 17.4267 13.5058 17.5587C13.5058 17.6907 13.4797 17.8214 13.4289 17.9433C13.3781 18.0652 13.3037 18.1758 13.21 18.2687C13.117 18.3624 13.0064 18.4368 12.8846 18.4876C12.7627 18.5384 12.632 18.5645 12.5 18.5645C12.368 18.5645 12.2373 18.5384 12.1154 18.4876C11.9936 18.4368 11.883 18.3624 11.79 18.2687L6.79 13.2687C6.69896 13.1736 6.62759 13.0615 6.58 12.9387C6.47998 12.6953 6.47998 12.4222 6.58 12.1787Z" fill="currentColor"/>
</svg>
