<svg width="25" height="25" viewBox="0 0 25 25" fill="none" xmlns="http://www.w3.org/2000/svg">
<path d="M18.2072 7.39019C18.2604 7.51064 18.2892 7.6404 18.2921 7.77202L18.2921 14.8431C18.2921 14.9749 18.2661 15.1055 18.2157 15.2273C18.1652 15.3492 18.0912 15.4599 17.998 15.5531C17.8097 15.7414 17.5543 15.8472 17.288 15.8472C17.1562 15.8472 17.0256 15.8212 16.9038 15.7708C16.7819 15.7203 16.6712 15.6463 16.578 15.5531C16.3897 15.3648 16.2839 15.1094 16.2839 14.8431L16.291 10.1833L7.92405 17.5502C7.73651 17.7377 7.48216 17.8431 7.21694 17.8431C6.95173 17.8431 6.69737 17.7377 6.50984 17.5502C6.3223 17.3627 6.21694 17.1083 6.21694 16.8431C6.21694 16.5779 6.3223 16.3235 6.50984 16.136L14.8768 8.76904L10.2169 8.77611C10.0849 8.77666 9.95412 8.75105 9.83206 8.70079C9.70999 8.65052 9.59908 8.57658 9.50574 8.48323C9.41239 8.38988 9.33845 8.27898 9.28818 8.15691C9.23791 8.03485 9.21231 7.90403 9.21285 7.77202C9.21231 7.64001 9.23791 7.5092 9.28818 7.38713C9.33845 7.26507 9.41239 7.15416 9.50574 7.06082C9.59908 6.96747 9.70999 6.89353 9.83205 6.84326C9.95412 6.79299 10.0849 6.76739 10.2169 6.76793L17.288 6.76793C17.4196 6.7708 17.5494 6.79964 17.6698 6.85278C17.9127 6.95421 18.1058 7.14731 18.2072 7.39019Z" fill="currentColor"/>
</svg>
