<svg width="116" height="116" viewBox="0 0 116 116" fill="none" xmlns="http://www.w3.org/2000/svg">
<rect width="116" height="116" rx="16" fill="url(#paint0_linear_1212_1480)"/>
<g filter="url(#filter0_f_1212_1480)">
<rect x="9.10742" y="9.10718" width="97.7856" height="97.7856" rx="12" stroke="url(#paint1_linear_1212_1480)" stroke-opacity="0.5" stroke-width="2" stroke-linecap="round" stroke-linejoin="round" stroke-dasharray="6 6"/>
</g>
<g filter="url(#filter1_d_1212_1480)">
<path d="M25.8736 100.182C24.3112 100.182 22.8453 99.8832 21.4758 99.2852C20.1255 98.6873 18.9296 97.8578 17.888 96.797C16.8657 95.7168 16.0652 94.4823 15.4866 93.0935C14.9079 91.6854 14.6186 90.1809 14.6186 88.5799C14.6186 86.9982 14.8983 85.513 15.4576 84.1242C16.0363 82.7161 16.8368 81.4816 17.8591 80.4207C18.9007 79.3598 20.0966 78.5304 21.4468 77.9324C22.8163 77.3152 24.2919 77.0066 25.8736 77.0066C27.2624 77.0066 28.5259 77.2091 29.6639 77.6142C30.8019 78.0192 31.9014 78.6654 32.9623 79.5527C33.1359 79.6877 33.2323 79.8517 33.2516 80.0446C33.2902 80.2182 33.2709 80.3918 33.1938 80.5654C33.1166 80.7197 33.0009 80.8354 32.8466 80.9126C32.808 81.0669 32.7115 81.1826 32.5572 81.2598C32.4029 81.3369 32.2197 81.3658 32.0075 81.3466C31.8146 81.3273 31.6217 81.2405 31.4288 81.0862C30.6766 80.4303 29.8568 79.9481 28.9695 79.6395C28.0822 79.3116 27.0503 79.1476 25.8736 79.1476C24.6199 79.1476 23.4432 79.3984 22.3438 79.8999C21.2636 80.4014 20.3088 81.0862 19.4794 81.9542C18.6499 82.8222 17.9941 83.8252 17.5119 84.9632C17.049 86.1013 16.8175 87.3068 16.8175 88.5799C16.8175 89.8915 17.049 91.1164 17.5119 92.2544C17.9941 93.3925 18.6499 94.3955 19.4794 95.2635C20.3088 96.1315 21.2636 96.8162 22.3438 97.3178C23.4432 97.8 24.6199 98.0411 25.8736 98.0411C26.9345 98.0411 27.9375 97.8675 28.8827 97.5203C29.8279 97.1731 30.7248 96.6716 31.5735 96.0158C31.805 95.8229 32.0461 95.7457 32.2968 95.7843C32.5669 95.8229 32.7983 95.9386 32.9912 96.1315C33.1841 96.3244 33.2806 96.5751 33.2806 96.8838C33.2806 97.0381 33.2516 97.1827 33.1938 97.3178C33.1552 97.4335 33.078 97.5589 32.9623 97.6939C31.9786 98.6005 30.8791 99.2466 29.6639 99.6324C28.4487 99.9989 27.1853 100.182 25.8736 100.182ZM46.4303 100.182C45.1958 100.182 44.0481 100.009 42.9872 99.6614C41.9456 99.2949 41.0391 98.7837 40.2675 98.1279C39.496 97.4721 38.9076 96.7102 38.5026 95.8422C38.3483 95.5335 38.3386 95.2538 38.4736 95.0031C38.628 94.733 38.8787 94.5498 39.2259 94.4534C39.496 94.3762 39.7564 94.4051 40.0071 94.5402C40.2772 94.6752 40.4797 94.8777 40.6147 95.1478C40.904 95.7071 41.3284 96.2086 41.8878 96.6523C42.4472 97.0959 43.1126 97.4431 43.8842 97.6939C44.6557 97.9254 45.5044 98.0411 46.4303 98.0411C47.4526 98.0411 48.3592 97.8771 49.15 97.5492C49.9409 97.202 50.5581 96.7102 51.0018 96.0736C51.4647 95.4178 51.6962 94.627 51.6962 93.7011C51.6962 92.5245 51.2622 91.5118 50.3942 90.6631C49.5262 89.8144 48.1663 89.2743 46.3146 89.0428C44.0578 88.7728 42.2928 88.0784 41.0198 86.9596C39.7467 85.8216 39.1102 84.4328 39.1102 82.7932C39.1102 81.6166 39.4188 80.5943 40.036 79.7263C40.6726 78.8583 41.5406 78.1928 42.64 77.7299C43.7395 77.2477 45.0029 77.0066 46.4303 77.0066C47.4912 77.0066 48.4556 77.1802 49.3236 77.5274C50.1916 77.8553 50.9439 78.2989 51.5804 78.8583C52.2363 79.3984 52.7667 79.9963 53.1718 80.6522C53.3647 80.9608 53.4225 81.2598 53.3454 81.5491C53.2875 81.8384 53.1236 82.0603 52.8535 82.2146C52.5642 82.3496 52.2652 82.3689 51.9566 82.2724C51.6672 82.176 51.4454 81.9927 51.2911 81.7227C51.0018 81.2791 50.6353 80.8643 50.1916 80.4786C49.7673 80.0735 49.2465 79.7552 48.6292 79.5238C48.012 79.2923 47.2694 79.1669 46.4014 79.1476C44.8776 79.1476 43.6527 79.4755 42.7268 80.1314C41.801 80.7679 41.338 81.7034 41.338 82.9379C41.338 83.5937 41.5116 84.2013 41.8588 84.7607C42.206 85.3008 42.7751 85.7734 43.5659 86.1784C44.376 86.5642 45.4562 86.8535 46.8064 87.0464C49.2176 87.3936 51.0018 88.1362 52.1591 89.2743C53.3357 90.393 53.924 91.859 53.924 93.6722C53.924 94.7138 53.7312 95.6396 53.3454 96.4498C52.9789 97.2599 52.4484 97.9446 51.754 98.504C51.0789 99.0441 50.2784 99.4588 49.3526 99.7482C48.446 100.037 47.4719 100.182 46.4303 100.182ZM67.034 100.182C65.7995 100.182 64.6518 100.009 63.5909 99.6614C62.5493 99.2949 61.6428 98.7837 60.8712 98.1279C60.0996 97.4721 59.5113 96.7102 59.1063 95.8422C58.952 95.5335 58.9423 95.2538 59.0773 95.0031C59.2316 94.733 59.4824 94.5498 59.8296 94.4534C60.0996 94.3762 60.36 94.4051 60.6108 94.5402C60.8808 94.6752 61.0834 94.8777 61.2184 95.1478C61.5077 95.7071 61.9321 96.2086 62.4915 96.6523C63.0508 97.0959 63.7163 97.4431 64.4879 97.6939C65.2594 97.9254 66.1081 98.0411 67.034 98.0411C68.0563 98.0411 68.9629 97.8771 69.7537 97.5492C70.5446 97.202 71.1618 96.7102 71.6055 96.0736C72.0684 95.4178 72.2999 94.627 72.2999 93.7011C72.2999 92.5245 71.8659 91.5118 70.9979 90.6631C70.1299 89.8144 68.77 89.2743 66.9183 89.0428C64.6615 88.7728 62.8965 88.0784 61.6235 86.9596C60.3504 85.8216 59.7139 84.4328 59.7139 82.7932C59.7139 81.6166 60.0225 80.5943 60.6397 79.7263C61.2763 78.8583 62.1443 78.1928 63.2437 77.7299C64.3432 77.2477 65.6066 77.0066 67.034 77.0066C68.0949 77.0066 69.0593 77.1802 69.9273 77.5274C70.7953 77.8553 71.5476 78.2989 72.1841 78.8583C72.84 79.3984 73.3704 79.9963 73.7755 80.6522C73.9684 80.9608 74.0262 81.2598 73.9491 81.5491C73.8912 81.8384 73.7272 82.0603 73.4572 82.2146C73.1679 82.3496 72.8689 82.3689 72.5603 82.2724C72.2709 82.176 72.0491 81.9927 71.8948 81.7227C71.6055 81.2791 71.239 80.8643 70.7953 80.4786C70.371 80.0735 69.8502 79.7552 69.2329 79.5238C68.6157 79.2923 67.8731 79.1669 67.0051 79.1476C65.4812 79.1476 64.2564 79.4755 63.3305 80.1314C62.4047 80.7679 61.9417 81.7034 61.9417 82.9379C61.9417 83.5937 62.1153 84.2013 62.4625 84.7607C62.8097 85.3008 63.3788 85.7734 64.1696 86.1784C64.9797 86.5642 66.0599 86.8535 67.4101 87.0464C69.8212 87.3936 71.6055 88.1362 72.7628 89.2743C73.9394 90.393 74.5277 91.859 74.5277 93.6722C74.5277 94.7138 74.3348 95.6396 73.9491 96.4498C73.5826 97.2599 73.0521 97.9446 72.3577 98.504C71.6826 99.0441 70.8821 99.4588 69.9563 99.7482C69.0497 100.037 68.0756 100.182 67.034 100.182Z" fill="#FFFBEB"/>
<path d="M21.4758 99.2852L20.7038 101.028L20.713 101.032L21.4758 99.2852ZM17.888 96.797L16.5035 98.1074L16.5155 98.12L16.5277 98.1325L17.888 96.797ZM15.4866 93.0935L13.7233 93.8181L13.7269 93.8267L15.4866 93.0935ZM15.4576 84.1242L13.6943 83.3995L13.6893 83.4119L15.4576 84.1242ZM17.8591 80.4207L16.4988 79.0851L16.4926 79.0915L16.4864 79.0979L17.8591 80.4207ZM21.4468 77.9324L22.2188 79.6755L22.2302 79.6704L21.4468 77.9324ZM29.6639 77.6142L30.3031 75.8182L30.3031 75.8182L29.6639 77.6142ZM32.9623 79.5527L31.7393 81.015L31.7652 81.0367L31.7919 81.0575L32.9623 79.5527ZM33.2516 80.0446L31.3547 80.2342L31.366 80.3472L31.3907 80.4581L33.2516 80.0446ZM33.1938 80.5654L34.8989 81.4179L34.9182 81.3792L34.9358 81.3396L33.1938 80.5654ZM32.8466 80.9126L31.994 79.2075L31.2098 79.5996L30.9971 80.4502L32.8466 80.9126ZM32.5572 81.2598L31.7047 79.5547L31.7047 79.5547L32.5572 81.2598ZM32.0075 81.3466L31.8178 83.2434L31.8264 83.2443L31.8349 83.2451L32.0075 81.3466ZM31.4288 81.0862L30.1761 82.5231L30.2065 82.5496L30.2379 82.5748L31.4288 81.0862ZM28.9695 79.6395L28.3087 81.4276L28.3259 81.434L28.3432 81.44L28.9695 79.6395ZM22.3438 79.8999L21.5526 78.1654L21.541 78.1708L22.3438 79.8999ZM19.4794 81.9542L20.8576 83.2712L20.8576 83.2712L19.4794 81.9542ZM17.5119 84.9632L15.7566 84.2195L15.7513 84.2322L15.7461 84.2449L17.5119 84.9632ZM17.5119 92.2544L15.7461 92.9727L15.7513 92.9855L15.7566 92.9982L17.5119 92.2544ZM19.4794 95.2635L20.8576 93.9465L20.8576 93.9465L19.4794 95.2635ZM22.3438 97.3178L21.541 99.0468L21.5594 99.0554L21.5781 99.0636L22.3438 97.3178ZM28.8827 97.5203L28.2254 95.7309L28.2254 95.7309L28.8827 97.5203ZM31.5735 96.0158L32.7391 97.5242L32.7669 97.5027L32.7939 97.4803L31.5735 96.0158ZM32.2968 95.7843L32.007 97.6685L32.0171 97.67L32.0272 97.6715L32.2968 95.7843ZM32.9912 96.1315L34.3392 94.7835L34.3392 94.7835L32.9912 96.1315ZM33.1938 97.3178L31.4416 96.5668L31.4103 96.6397L31.3853 96.7149L33.1938 97.3178ZM32.9623 97.6939L34.2542 99.0957L34.3367 99.0197L34.4097 98.9345L32.9623 97.6939ZM29.6639 99.6324L30.2143 101.458L30.2276 101.454L30.2407 101.449L29.6639 99.6324ZM25.8736 98.2758C24.5616 98.2758 23.3566 98.0263 22.2386 97.5381L20.713 101.032C22.334 101.74 24.0609 102.089 25.8736 102.089V98.2758ZM22.2477 97.5422C21.1191 97.0423 20.1225 96.3517 19.2483 95.4614L16.5277 98.1325C17.7368 99.364 19.132 100.332 20.7038 101.028L22.2477 97.5422ZM19.2726 95.4866C18.4112 94.5764 17.737 93.5381 17.2463 92.3603L13.7269 93.8267C14.3935 95.4265 15.3202 96.8572 16.5035 98.1074L19.2726 95.4866ZM17.2498 92.3689C16.7705 91.2024 16.5249 89.9453 16.5249 88.5799H12.7122C12.7122 90.4164 13.0453 92.1684 13.7233 93.8181L17.2498 92.3689ZM16.5249 88.5799C16.5249 87.2283 16.7628 85.9862 17.2259 84.8364L13.6893 83.4119C13.0337 85.0397 12.7122 86.7681 12.7122 88.5799H16.5249ZM17.2209 84.8488C17.7113 83.6554 18.3818 82.6256 19.2318 81.7435L16.4864 79.0979C15.2918 80.3376 14.3613 81.7768 13.6944 83.3995L17.2209 84.8488ZM19.2194 81.7563C20.0935 80.8659 21.0902 80.1753 22.2188 79.6755L20.6749 76.1894C19.1031 76.8855 17.7079 77.8537 16.4988 79.0851L19.2194 81.7563ZM22.2302 79.6704C23.3405 79.17 24.5474 78.9129 25.8736 78.9129V75.1002C24.0365 75.1002 22.2922 75.4604 20.6635 76.1944L22.2302 79.6704ZM25.8736 78.9129C27.0767 78.9129 28.12 79.0881 29.0247 79.4101L30.3031 75.8182C28.9317 75.33 27.4482 75.1002 25.8736 75.1002V78.9129ZM29.0247 79.4101C29.9214 79.7293 30.8269 80.2519 31.7393 81.015L34.1853 78.0904C32.9759 77.0789 31.6825 76.3091 30.3031 75.8182L29.0247 79.4101ZM31.7919 81.0575C31.7179 80.9999 31.6131 80.899 31.5217 80.7435C31.4274 80.5833 31.372 80.4067 31.3547 80.2342L35.1485 79.8549C35.0701 79.0707 34.6574 78.4561 34.1327 78.0479L31.7919 81.0575ZM31.3907 80.4581C31.3653 80.3439 31.3575 80.2199 31.3714 80.0944C31.3852 79.9703 31.4177 79.8677 31.4517 79.7911L34.9358 81.3396C35.1667 80.8201 35.2459 80.231 35.1126 79.631L31.3907 80.4581ZM31.4887 79.7128C31.5367 79.6167 31.6064 79.5146 31.7011 79.4199C31.7958 79.3252 31.8979 79.2555 31.994 79.2075L33.6991 82.6177C34.2224 82.356 34.6372 81.9411 34.8989 81.4179L31.4887 79.7128ZM30.9971 80.4502C31.0435 80.2648 31.1351 80.0696 31.2808 79.8947C31.4237 79.7232 31.5806 79.6167 31.7047 79.5547L33.4098 82.9649C34.0142 82.6627 34.51 82.1188 34.696 81.3749L30.9971 80.4502ZM31.7047 79.5547C31.9344 79.4398 32.122 79.4428 32.1801 79.448L31.8349 83.2451C32.3173 83.2889 32.8715 83.234 33.4098 82.9649L31.7047 79.5547ZM32.1972 79.4497C32.4588 79.4758 32.6035 79.5846 32.6197 79.5976L30.2379 82.5748C30.64 82.8964 31.1704 83.1787 31.8178 83.2434L32.1972 79.4497ZM32.6816 79.6492C31.7572 78.8434 30.7273 78.2325 29.5958 77.839L28.3432 81.44C28.9863 81.6637 29.5959 82.0173 30.1761 82.5231L32.6816 79.6492ZM29.6303 77.8513C28.487 77.4288 27.2229 77.2413 25.8736 77.2413V81.054C26.8776 81.054 27.6774 81.1944 28.3087 81.4276L29.6303 77.8513ZM25.8736 77.2413C24.3574 77.2413 22.9098 77.5464 21.5526 78.1655L23.1349 81.6343C23.9766 81.2504 24.8823 81.054 25.8736 81.054V77.2413ZM21.541 78.1708C20.2432 78.7734 19.0936 79.5985 18.1011 80.6371L20.8576 83.2712C21.524 82.5738 22.284 82.0294 23.1466 81.629L21.541 78.1708ZM18.1011 80.6371C17.1077 81.6768 16.3261 82.8755 15.7566 84.2195L19.2672 85.707C19.6621 84.7749 20.1922 83.9675 20.8576 83.2712L18.1011 80.6371ZM15.7461 84.2449C15.187 85.6193 14.9112 87.0696 14.9112 88.5799H18.7239C18.7239 87.544 18.911 86.5832 19.2777 85.6815L15.7461 84.2449ZM14.9112 88.5799C14.9112 90.121 15.1842 91.5915 15.7461 92.9727L19.2777 91.5361C18.9137 90.6413 18.7239 89.6621 18.7239 88.5799H14.9112ZM15.7566 92.9982C16.3261 94.3422 17.1077 95.5409 18.1011 96.5805L20.8576 93.9465C20.1922 93.2501 19.6621 92.4428 19.2672 91.5107L15.7566 92.9982ZM18.1011 96.5805C19.0936 97.6192 20.2432 98.4443 21.541 99.0468L23.1466 95.5887C22.284 95.1882 21.524 94.6438 20.8576 93.9465L18.1011 96.5805ZM21.5781 99.0636C22.9296 99.6564 24.3682 99.9474 25.8736 99.9474V96.1347C24.8715 96.1347 23.9569 95.9436 23.1095 95.5719L21.5781 99.0636ZM25.8736 99.9474C27.1467 99.9474 28.3733 99.7383 29.54 99.3097L28.2254 95.7309C27.5018 95.9966 26.7224 96.1347 25.8736 96.1347V99.9474ZM29.54 99.3097C30.6795 98.8911 31.7464 98.2913 32.7391 97.5242L30.4079 94.5073C29.7032 95.0518 28.9762 95.4551 28.2254 95.7309L29.54 99.3097ZM32.7939 97.4803C32.7562 97.5117 32.6621 97.5799 32.5089 97.6289C32.3478 97.6804 32.1726 97.694 32.007 97.6685L32.5867 93.9001C31.6937 93.7627 30.9182 94.0803 30.3531 94.5513L32.7939 97.4803ZM32.0272 97.6715C31.9705 97.6634 31.8977 97.6437 31.8204 97.6051C31.7432 97.5665 31.6838 97.52 31.6432 97.4795L34.3392 94.7835C33.8547 94.2989 33.2448 93.994 32.5664 93.8971L32.0272 97.6715ZM31.6432 97.4795C31.5541 97.3903 31.478 97.276 31.429 97.1486C31.3817 97.0256 31.3742 96.929 31.3742 96.8838H35.1869C35.1869 96.1419 34.9377 95.382 34.3392 94.7835L31.6432 97.4795ZM31.3742 96.8838C31.3742 96.7932 31.3926 96.681 31.4416 96.5668L34.946 98.0687C35.1106 97.6845 35.1869 97.283 35.1869 96.8838H31.3742ZM31.3853 96.7149C31.4206 96.609 31.4605 96.5367 31.4834 96.4995C31.5066 96.4618 31.5207 96.4465 31.5149 96.4533L34.4097 98.9345C34.6188 98.6906 34.8586 98.3515 35.0023 97.9206L31.3853 96.7149ZM31.6704 96.292C30.8814 97.0191 30.0233 97.5182 29.0871 97.8154L30.2407 101.449C31.7349 100.975 33.0757 100.182 34.2542 99.0957L31.6704 96.292ZM29.1135 97.8073C28.0827 98.1181 27.0051 98.2758 25.8736 98.2758V102.089C27.3655 102.089 28.8147 101.88 30.2143 101.458L29.1135 97.8073ZM42.9872 99.6614L42.3545 101.46L42.3743 101.467L42.3943 101.473L42.9872 99.6614ZM40.2675 98.1279L39.0329 99.5804L39.0329 99.5804L40.2675 98.1279ZM38.5026 95.8422L40.2301 95.036L40.2192 95.0126L40.2077 94.9896L38.5026 95.8422ZM38.4736 95.0031L36.8185 94.0573L36.8066 94.0781L36.7952 94.0993L38.4736 95.0031ZM39.2259 94.4534L39.7361 96.2902L39.7496 96.2864L39.2259 94.4534ZM40.0071 94.5402L39.1033 96.2186L39.1287 96.2323L39.1546 96.2452L40.0071 94.5402ZM40.6147 95.1478L38.9096 96.0003L38.9155 96.012L38.9215 96.0236L40.6147 95.1478ZM43.8842 97.6939L43.295 99.5069L43.3156 99.5136L43.3364 99.5198L43.8842 97.6939ZM49.15 97.5492L49.8802 99.3102L49.8984 99.3027L49.9164 99.2948L49.15 97.5492ZM51.0018 96.0736L49.4443 94.9742L49.4378 94.9836L51.0018 96.0736ZM50.3942 90.6631L51.7269 89.3L51.7269 89.3L50.3942 90.6631ZM46.3146 89.0428L46.551 87.1512L46.5411 87.15L46.3146 89.0428ZM41.0198 86.9596L39.7493 88.3809L39.7553 88.3863L39.7614 88.3916L41.0198 86.9596ZM40.036 79.7263L38.4988 78.599L38.4905 78.6102L38.4825 78.6215L40.036 79.7263ZM42.64 77.7299L43.3798 79.4869L43.3928 79.4814L43.4058 79.4757L42.64 77.7299ZM49.3236 77.5274L48.6156 79.2974L48.6327 79.3042L48.6499 79.3107L49.3236 77.5274ZM51.5804 78.8583L50.322 80.2903L50.345 80.3104L50.3686 80.3299L51.5804 78.8583ZM53.1718 80.6522L51.5498 81.6539L51.5552 81.6625L53.1718 80.6522ZM53.3454 81.5491L51.5034 81.0579L51.4879 81.1161L51.476 81.1752L53.3454 81.5491ZM52.8535 82.2146L53.6597 83.9421L53.731 83.9088L53.7993 83.8697L52.8535 82.2146ZM51.9566 82.2724L51.3537 84.0809L51.3708 84.0866L51.388 84.092L51.9566 82.2724ZM51.2911 81.7227L52.9463 80.7769L52.9185 80.7282L52.8879 80.6813L51.2911 81.7227ZM50.1916 80.4786L48.8754 81.8575L48.9074 81.8881L48.9407 81.9171L50.1916 80.4786ZM48.6292 79.5238L49.2986 77.7388L49.2986 77.7388L48.6292 79.5238ZM46.4014 79.1476L46.4437 77.2418L46.4226 77.2413H46.4014V79.1476ZM42.7268 80.1314L43.8068 81.7023L43.8178 81.6947L43.8287 81.687L42.7268 80.1314ZM41.8588 84.7607L40.2391 85.766L40.2471 85.7789L40.2553 85.7916L41.8588 84.7607ZM43.5659 86.1784L42.6969 87.8752L42.7214 87.8877L42.7463 87.8996L43.5659 86.1784ZM46.8064 87.0464L47.0782 85.1595L47.076 85.1592L46.8064 87.0464ZM52.1591 89.2743L50.8225 90.6336L50.8339 90.6448L50.8455 90.6558L52.1591 89.2743ZM53.3454 96.4498L51.6242 95.6302L51.6162 95.647L51.6085 95.664L53.3454 96.4498ZM51.754 98.504L52.9449 99.9926L52.95 99.9886L51.754 98.504ZM49.3526 99.7482L48.7839 97.9286L48.773 97.9321L49.3526 99.7482ZM46.4303 98.2758C45.3761 98.2758 44.4305 98.1279 43.5802 97.8496L42.3943 101.473C43.6657 101.889 45.0156 102.089 46.4303 102.089V98.2758ZM43.62 97.8631C42.7785 97.567 42.0805 97.167 41.5022 96.6754L39.0329 99.5804C39.9976 100.4 41.1128 101.023 42.3545 101.46L43.62 97.8631ZM41.5022 96.6754C40.9273 96.1867 40.5127 95.6415 40.2301 95.036L36.7751 96.6483C37.3026 97.7788 38.0647 98.7574 39.0329 99.5804L41.5022 96.6754ZM40.2077 94.9896C40.2251 95.0245 40.2783 95.1454 40.2848 95.3352C40.2919 95.5391 40.2418 95.7404 40.1521 95.9069L36.7952 94.0993C36.3019 95.0154 36.4323 95.9643 36.7975 96.6947L40.2077 94.9896ZM40.1288 95.9489C40.0731 96.0464 39.9937 96.1354 39.9022 96.2023C39.8152 96.2659 39.7488 96.2866 39.7361 96.2902L38.7157 92.6166C37.9673 92.8244 37.2618 93.2815 36.8185 94.0573L40.1288 95.9489ZM39.7496 96.2864C39.6636 96.3109 39.5468 96.3267 39.4132 96.3119C39.2802 96.2971 39.1742 96.2568 39.1033 96.2186L40.9109 92.8617C40.2295 92.4948 39.4575 92.4046 38.7022 92.6204L39.7496 96.2864ZM39.1546 96.2452C39.1163 96.2261 39.0648 96.1926 39.0136 96.1413C38.9623 96.09 38.9288 96.0386 38.9096 96.0003L42.3198 94.2952C42.0003 93.6562 41.4986 93.1546 40.8597 92.8351L39.1546 96.2452ZM38.9215 96.0236C39.3503 96.8526 39.9607 97.557 40.7032 98.1459L43.0724 95.1587C42.6961 94.8602 42.4578 94.5616 42.308 94.2719L38.9215 96.0236ZM40.7032 98.1459C41.4629 98.7485 42.3366 99.1954 43.295 99.5069L44.4734 95.8809C43.8886 95.6908 43.4314 95.4434 43.0724 95.1587L40.7032 98.1459ZM43.3364 99.5198C44.3099 99.8119 45.346 99.9474 46.4303 99.9474V96.1347C45.6629 96.1347 45.0016 96.0388 44.432 95.8679L43.3364 99.5198ZM46.4303 99.9474C47.6555 99.9474 48.8176 99.7508 49.8802 99.3102L48.4199 95.7882C47.9008 96.0035 47.2497 96.1347 46.4303 96.1347V99.9474ZM49.9164 99.2948C50.9909 98.823 51.8994 98.1197 52.5657 97.1637L49.4378 94.9836C49.2168 95.3007 48.8908 95.581 48.3837 95.8037L49.9164 99.2948ZM52.5592 97.173C53.2827 96.148 53.6025 94.9582 53.6025 93.7011H49.7898C49.7898 94.2957 49.6467 94.6876 49.4443 94.9743L52.5592 97.173ZM53.6025 93.7011C53.6025 91.9935 52.9487 90.4946 51.7269 89.3L49.0614 92.0261C49.5757 92.529 49.7898 93.0555 49.7898 93.7011H53.6025ZM51.7269 89.3C50.4391 88.0408 48.6068 87.4082 46.551 87.1512L46.0781 90.9345C47.7258 91.1404 48.6133 91.588 49.0614 92.0261L51.7269 89.3ZM46.5411 87.15C44.5388 86.9104 43.178 86.3184 42.2782 85.5276L39.7614 88.3916C41.4077 89.8383 43.5767 90.6352 46.0881 90.9357L46.5411 87.15ZM42.2903 85.5384C41.4027 84.7449 41.0165 83.8651 41.0165 82.7932H37.2038C37.2038 85.0005 38.0907 86.8982 39.7493 88.3809L42.2903 85.5384ZM41.0165 82.7932C41.0165 81.9691 41.2258 81.3427 41.5896 80.8311L38.4825 78.6215C37.6118 79.8459 37.2038 81.2641 37.2038 82.7932H41.0165ZM41.5733 80.8536C41.9843 80.2932 42.5629 79.8308 43.3798 79.4869L41.9003 75.9729C40.5183 76.5548 39.3609 77.4234 38.4988 78.599L41.5733 80.8536ZM43.4058 79.4757C44.2227 79.1174 45.2175 78.9129 46.4303 78.9129V75.1002C44.7884 75.1002 43.2564 75.3779 41.8743 75.9841L43.4058 79.4757ZM46.4303 78.9129C47.2811 78.9129 48.0011 79.0516 48.6156 79.2974L50.0316 75.7574C48.9102 75.3088 47.7013 75.1002 46.4303 75.1002V78.9129ZM48.6499 79.3107C49.3239 79.5653 49.8733 79.896 50.322 80.2903L52.8388 77.4263C52.0145 76.7019 51.0594 76.1453 49.9973 75.744L48.6499 79.3107ZM50.3686 80.3299C50.8793 80.7504 51.2654 81.1934 51.5499 81.6539L54.7937 79.6504C54.268 78.7993 53.5933 78.0463 52.7923 77.3867L50.3686 80.3299ZM51.5552 81.6625C51.5512 81.6561 51.5115 81.5905 51.4882 81.4701C51.4633 81.3415 51.4664 81.1967 51.5034 81.0579L55.1874 82.0403C55.4292 81.1334 55.1961 80.2942 54.7884 79.6418L51.5552 81.6625ZM51.476 81.1752C51.4982 81.0647 51.55 80.9292 51.646 80.7993C51.7403 80.6718 51.8422 80.5968 51.9077 80.5594L53.7993 83.8697C54.5185 83.4588 55.0423 82.7852 55.2147 81.923L51.476 81.1752ZM52.0473 80.4871C52.1034 80.4609 52.1871 80.4345 52.2895 80.4279C52.3915 80.4213 52.4739 80.4368 52.5252 80.4529L51.388 84.092C52.1439 84.3282 52.9336 84.2809 53.6597 83.9421L52.0473 80.4871ZM52.5594 80.4639C52.6241 80.4855 52.7064 80.5261 52.7873 80.5929C52.8677 80.6594 52.9185 80.7283 52.9463 80.7769L49.6359 82.6685C50.0179 83.3369 50.6098 83.833 51.3537 84.0809L52.5594 80.4639ZM52.8879 80.6813C52.4923 80.0747 52.0049 79.529 51.4425 79.04L48.9407 81.9171C49.2657 82.1997 49.5113 82.4834 49.6943 82.7641L52.8879 80.6813ZM51.5079 79.0996C50.8758 78.4962 50.1269 78.0494 49.2986 77.7388L47.9599 81.3087C48.3661 81.4611 48.6587 81.6508 48.8754 81.8575L51.5079 79.0996ZM49.2986 77.7388C48.4284 77.4125 47.462 77.2644 46.4437 77.2418L46.359 81.0535C47.0767 81.0695 47.5956 81.1721 47.9599 81.3087L49.2986 77.7388ZM46.4014 77.2413C44.6161 77.2413 42.9668 77.6252 41.6249 78.5757L43.8287 81.687C44.3386 81.3259 45.1391 81.054 46.4014 81.054V77.2413ZM41.6468 78.5605C40.1465 79.5919 39.4317 81.1484 39.4317 82.9379H43.2444C43.2444 82.2584 43.4554 81.9439 43.8068 81.7023L41.6468 78.5605ZM39.4317 82.9379C39.4317 83.9505 39.7053 84.906 40.2391 85.766L43.4786 83.7554C43.3179 83.4966 43.2444 83.237 43.2444 82.9379H39.4317ZM40.2553 85.7916C40.841 86.7027 41.7164 87.373 42.6969 87.8752L44.435 84.4817C43.8337 84.1737 43.5711 83.8988 43.4624 83.7298L40.2553 85.7916ZM42.7463 87.8996C43.7958 88.3993 45.0842 88.7261 46.5368 88.9336L47.076 85.1592C45.8282 84.981 44.9563 84.7291 44.3855 84.4573L42.7463 87.8996ZM46.5347 88.9333C48.7346 89.2501 50.0674 89.891 50.8225 90.6336L53.4957 87.915C51.9362 86.3815 49.7005 85.5372 47.0782 85.1595L46.5347 88.9333ZM50.8455 90.6558C51.5975 91.3709 52.0177 92.314 52.0177 93.6722H55.8304C55.8304 91.404 55.0739 89.4152 53.4727 87.8928L50.8455 90.6558ZM52.0177 93.6722C52.0177 94.4756 51.8699 95.1141 51.6242 95.6302L55.0665 97.2694C55.5924 96.1651 55.8304 94.9519 55.8304 93.6722H52.0177ZM51.6085 95.664C51.3655 96.2012 51.0206 96.6469 50.5581 97.0194L52.95 99.9886C53.8762 99.2424 54.5923 98.3185 55.0823 97.2355L51.6085 95.664ZM50.5632 97.0154C50.0943 97.3905 49.5111 97.7014 48.784 97.9286L49.9212 101.568C51.0458 101.216 52.0636 100.698 52.9449 99.9926L50.5632 97.0154ZM48.773 97.9321C48.0706 98.1562 47.2937 98.2758 46.4303 98.2758V102.089C47.6501 102.089 48.8214 101.919 49.9322 101.564L48.773 97.9321ZM63.5909 99.6614L62.9582 101.46L62.978 101.467L62.998 101.473L63.5909 99.6614ZM60.8712 98.1279L59.6366 99.5804L59.6366 99.5804L60.8712 98.1279ZM59.1063 95.8422L60.8338 95.036L60.8229 95.0126L60.8114 94.9896L59.1063 95.8422ZM59.0773 95.0031L57.4222 94.0573L57.4102 94.0781L57.3989 94.0993L59.0773 95.0031ZM59.8296 94.4534L60.3398 96.2902L60.3533 96.2864L59.8296 94.4534ZM60.6108 94.5402L59.707 96.2186L59.7324 96.2323L59.7583 96.2452L60.6108 94.5402ZM61.2184 95.1478L59.5133 96.0003L59.5192 96.012L59.5252 96.0236L61.2184 95.1478ZM64.4879 97.6939L63.8986 99.5069L63.9193 99.5136L63.9401 99.5198L64.4879 97.6939ZM69.7537 97.5492L70.4839 99.3102L70.5021 99.3027L70.5201 99.2948L69.7537 97.5492ZM71.6055 96.0736L70.048 94.9742L70.0415 94.9836L71.6055 96.0736ZM70.9979 90.6631L72.3306 89.3L72.3306 89.3L70.9979 90.6631ZM66.9183 89.0428L67.1547 87.1512L67.1448 87.15L66.9183 89.0428ZM61.6235 86.9596L60.353 88.3809L60.359 88.3863L60.3651 88.3916L61.6235 86.9596ZM60.6397 79.7263L59.1024 78.599L59.0942 78.6102L59.0861 78.6215L60.6397 79.7263ZM63.2437 77.7299L63.9835 79.4869L63.9965 79.4814L64.0094 79.4757L63.2437 77.7299ZM69.9273 77.5274L69.2193 79.2974L69.2364 79.3042L69.2536 79.3107L69.9273 77.5274ZM72.1841 78.8583L70.9257 80.2903L70.9487 80.3104L70.9723 80.3299L72.1841 78.8583ZM73.7755 80.6522L72.1535 81.6539L72.1589 81.6625L73.7755 80.6522ZM73.9491 81.5491L72.1071 81.0579L72.0916 81.1161L72.0797 81.1752L73.9491 81.5491ZM73.4572 82.2146L74.2634 83.9421L74.3347 83.9088L74.403 83.8697L73.4572 82.2146ZM72.5603 82.2724L71.9574 84.0809L71.9745 84.0866L71.9917 84.092L72.5603 82.2724ZM71.8948 81.7227L73.55 80.7769L73.5222 80.7282L73.4916 80.6813L71.8948 81.7227ZM70.7953 80.4786L69.479 81.8575L69.511 81.8881L69.5444 81.9171L70.7953 80.4786ZM69.2329 79.5238L69.9023 77.7388L69.9023 77.7388L69.2329 79.5238ZM67.0051 79.1476L67.0474 77.2418L67.0262 77.2413H67.0051V79.1476ZM63.3305 80.1314L64.4105 81.7023L64.4215 81.6947L64.4324 81.687L63.3305 80.1314ZM62.4625 84.7607L60.8428 85.766L60.8508 85.7789L60.859 85.7916L62.4625 84.7607ZM64.1696 86.1784L63.3005 87.8752L63.3251 87.8877L63.35 87.8996L64.1696 86.1784ZM67.4101 87.0464L67.6818 85.1595L67.6797 85.1592L67.4101 87.0464ZM72.7628 89.2743L71.4262 90.6336L71.4376 90.6448L71.4492 90.6558L72.7628 89.2743ZM73.9491 96.4498L72.2279 95.6302L72.2199 95.647L72.2122 95.664L73.9491 96.4498ZM72.3577 98.504L73.5486 99.9926L73.5536 99.9886L72.3577 98.504ZM69.9563 99.7482L69.3876 97.9286L69.3767 97.9321L69.9563 99.7482ZM67.034 98.2758C65.9798 98.2758 65.0342 98.1279 64.1839 97.8496L62.998 101.473C64.2694 101.889 65.6193 102.089 67.034 102.089V98.2758ZM64.2237 97.8631C63.3822 97.567 62.6842 97.167 62.1058 96.6754L59.6366 99.5804C60.6013 100.4 61.7165 101.023 62.9582 101.46L64.2237 97.8631ZM62.1058 96.6754C61.5309 96.1867 61.1163 95.6415 60.8338 95.036L57.3788 96.6483C57.9063 97.7788 58.6683 98.7574 59.6366 99.5804L62.1058 96.6754ZM60.8114 94.9896C60.8288 95.0245 60.882 95.1454 60.8885 95.3352C60.8956 95.5391 60.8455 95.7404 60.7558 95.9069L57.3989 94.0993C56.9056 95.0154 57.036 95.9643 57.4012 96.6947L60.8114 94.9896ZM60.7325 95.9489C60.6768 96.0464 60.5974 96.1354 60.5059 96.2023C60.4189 96.2659 60.3525 96.2866 60.3398 96.2902L59.3194 92.6166C58.571 92.8244 57.8655 93.2815 57.4222 94.0573L60.7325 95.9489ZM60.3533 96.2864C60.2673 96.3109 60.1504 96.3267 60.0169 96.3119C59.8839 96.2971 59.7779 96.2568 59.707 96.2186L61.5146 92.8617C60.8332 92.4948 60.0612 92.4046 59.3059 92.6204L60.3533 96.2864ZM59.7583 96.2452C59.72 96.2261 59.6685 96.1926 59.6172 96.1413C59.5659 96.09 59.5324 96.0386 59.5133 96.0003L62.9235 94.2952C62.604 93.6562 62.1023 93.1546 61.4633 92.8351L59.7583 96.2452ZM59.5252 96.0236C59.954 96.8526 60.5644 97.557 61.3069 98.1459L63.6761 95.1587C63.2998 94.8602 63.0615 94.5616 62.9117 94.2719L59.5252 96.0236ZM61.3069 98.1459C62.0666 98.7485 62.9403 99.1954 63.8986 99.5069L65.0771 95.8809C64.4923 95.6908 64.0351 95.4434 63.6761 95.1587L61.3069 98.1459ZM63.9401 99.5198C64.9136 99.8119 65.9497 99.9474 67.034 99.9474V96.1347C66.2666 96.1347 65.6053 96.0388 65.0357 95.8679L63.9401 99.5198ZM67.034 99.9474C68.2592 99.9474 69.4213 99.7508 70.4839 99.3102L69.0236 95.7882C68.5045 96.0035 67.8534 96.1347 67.034 96.1347V99.9474ZM70.5201 99.2948C71.5946 98.823 72.5031 98.1197 73.1694 97.1637L70.0415 94.9836C69.8205 95.3007 69.4945 95.581 68.9874 95.8037L70.5201 99.2948ZM73.1629 97.173C73.8864 96.148 74.2062 94.9582 74.2062 93.7011H70.3935C70.3935 94.2957 70.2504 94.6876 70.048 94.9743L73.1629 97.173ZM74.2062 93.7011C74.2062 91.9935 73.5524 90.4946 72.3306 89.3L69.6651 92.0261C70.1794 92.529 70.3935 93.0555 70.3935 93.7011H74.2062ZM72.3306 89.3C71.0428 88.0408 69.2105 87.4082 67.1547 87.1512L66.6818 90.9345C68.3295 91.1404 69.217 91.588 69.6651 92.0261L72.3306 89.3ZM67.1448 87.15C65.1425 86.9104 63.7817 86.3184 62.8819 85.5276L60.3651 88.3916C62.0113 89.8383 64.1804 90.6352 66.6918 90.9357L67.1448 87.15ZM62.894 85.5384C62.0064 84.7449 61.6202 83.8651 61.6202 82.7932H57.8075C57.8075 85.0005 58.6944 86.8982 60.353 88.3809L62.894 85.5384ZM61.6202 82.7932C61.6202 81.9691 61.8295 81.3427 62.1933 80.8311L59.0861 78.6215C58.2155 79.8459 57.8075 81.2641 57.8075 82.7932H61.6202ZM62.177 80.8536C62.588 80.2932 63.1665 79.8308 63.9835 79.4869L62.504 75.9729C61.122 76.5548 59.9645 77.4234 59.1024 78.599L62.177 80.8536ZM64.0094 79.4757C64.8263 79.1174 65.8212 78.9129 67.034 78.9129V75.1002C65.392 75.1002 63.8601 75.3779 62.478 75.9841L64.0094 79.4757ZM67.034 78.9129C67.8848 78.9129 68.6048 79.0516 69.2193 79.2974L70.6353 75.7574C69.5139 75.3088 68.3049 75.1002 67.034 75.1002V78.9129ZM69.2536 79.3107C69.9276 79.5653 70.477 79.896 70.9257 80.2903L73.4425 77.4263C72.6182 76.7019 71.6631 76.1453 70.601 75.744L69.2536 79.3107ZM70.9723 80.3299C71.483 80.7504 71.8691 81.1934 72.1535 81.6539L75.3974 79.6504C74.8717 78.7993 74.197 78.0463 73.396 77.3867L70.9723 80.3299ZM72.1589 81.6625C72.1549 81.6561 72.1152 81.5905 72.0919 81.4701C72.067 81.3415 72.0701 81.1967 72.1071 81.0579L75.791 82.0403C76.0329 81.1334 75.7998 80.2942 75.392 79.6418L72.1589 81.6625ZM72.0797 81.1752C72.1018 81.0647 72.1537 80.9292 72.2497 80.7993C72.344 80.6718 72.4459 80.5968 72.5114 80.5594L74.403 83.8697C75.1222 83.4588 75.6459 82.7852 75.8184 81.923L72.0797 81.1752ZM72.651 80.4871C72.7071 80.4609 72.7908 80.4345 72.8932 80.4279C72.9952 80.4213 73.0776 80.4368 73.1289 80.4529L71.9917 84.092C72.7476 84.3282 73.5373 84.2809 74.2634 83.9421L72.651 80.4871ZM73.1631 80.4639C73.2278 80.4855 73.3101 80.5261 73.391 80.5929C73.4714 80.6594 73.5222 80.7283 73.55 80.7769L70.2396 82.6685C70.6216 83.3369 71.2135 83.833 71.9574 84.0809L73.1631 80.4639ZM73.4916 80.6813C73.096 80.0747 72.6085 79.529 72.0462 79.04L69.5444 81.9171C69.8694 82.1997 70.115 82.4834 70.298 82.7641L73.4916 80.6813ZM72.1116 79.0996C71.4795 78.4962 70.7306 78.0494 69.9023 77.7388L68.5636 81.3087C68.9698 81.4611 69.2624 81.6508 69.479 81.8575L72.1116 79.0996ZM69.9023 77.7388C69.0321 77.4125 68.0657 77.2644 67.0474 77.2418L66.9627 81.0535C67.6804 81.0695 68.1993 81.1721 68.5636 81.3087L69.9023 77.7388ZM67.0051 77.2413C65.2197 77.2413 63.5705 77.6252 62.2286 78.5757L64.4324 81.687C64.9423 81.3259 65.7427 81.054 67.0051 81.054V77.2413ZM62.2505 78.5605C60.7502 79.5919 60.0354 81.1484 60.0354 82.9379H63.8481C63.8481 82.2584 64.0591 81.9439 64.4105 81.7023L62.2505 78.5605ZM60.0354 82.9379C60.0354 83.9505 60.309 84.906 60.8428 85.766L64.0822 83.7554C63.9216 83.4966 63.8481 83.237 63.8481 82.9379H60.0354ZM60.859 85.7916C61.4447 86.7027 62.3201 87.373 63.3005 87.8752L65.0387 84.4817C64.4374 84.1737 64.1748 83.8988 64.0661 83.7298L60.859 85.7916ZM63.35 87.8996C64.3995 88.3993 65.6879 88.7261 67.1405 88.9336L67.6797 85.1592C66.4319 84.981 65.56 84.7291 64.9892 84.4573L63.35 87.8996ZM67.1384 88.9333C69.3383 89.2501 70.6711 89.891 71.4262 90.6336L74.0994 87.915C72.5399 86.3815 70.3042 85.5372 67.6818 85.1595L67.1384 88.9333ZM71.4492 90.6558C72.2012 91.3709 72.6214 92.314 72.6214 93.6722H76.4341C76.4341 91.404 75.6776 89.4152 74.0764 87.8928L71.4492 90.6558ZM72.6214 93.6722C72.6214 94.4756 72.4736 95.1141 72.2279 95.6302L75.6702 97.2694C76.1961 96.1651 76.4341 94.9519 76.4341 93.6722H72.6214ZM72.2122 95.664C71.9691 96.2012 71.6243 96.6469 71.1618 97.0194L73.5536 99.9886C74.4799 99.2424 75.196 98.3185 75.686 97.2355L72.2122 95.664ZM71.1668 97.0154C70.698 97.3905 70.1148 97.7014 69.3877 97.9286L70.5249 101.568C71.6495 101.216 72.6672 100.698 73.5486 99.9926L71.1668 97.0154ZM69.3767 97.9321C68.6743 98.1562 67.8974 98.2758 67.034 98.2758V102.089C68.2538 102.089 69.4251 101.919 70.5359 101.564L69.3767 97.9321Z" fill="#FFFBEB"/>
</g>
<defs>
<filter id="filter0_f_1212_1480" x="6.10742" y="6.10718" width="103.786" height="103.786" filterUnits="userSpaceOnUse" color-interpolation-filters="sRGB">
<feFlood flood-opacity="0" result="BackgroundImageFix"/>
<feBlend mode="normal" in="SourceGraphic" in2="BackgroundImageFix" result="shape"/>
<feGaussianBlur stdDeviation="1" result="effect1_foregroundBlur_1212_1480"/>
</filter>
<filter id="filter1_d_1212_1480" x="9.61865" y="74.0066" width="69.9092" height="33.1755" filterUnits="userSpaceOnUse" color-interpolation-filters="sRGB">
<feFlood flood-opacity="0" result="BackgroundImageFix"/>
<feColorMatrix in="SourceAlpha" type="matrix" values="0 0 0 0 0 0 0 0 0 0 0 0 0 0 0 0 0 0 127 0" result="hardAlpha"/>
<feOffset dy="2"/>
<feGaussianBlur stdDeviation="2.5"/>
<feComposite in2="hardAlpha" operator="out"/>
<feColorMatrix type="matrix" values="0 0 0 0 0 0 0 0 0 0 0 0 0 0 0 0 0 0 0.08 0"/>
<feBlend mode="normal" in2="BackgroundImageFix" result="effect1_dropShadow_1212_1480"/>
<feBlend mode="normal" in="SourceGraphic" in2="effect1_dropShadow_1212_1480" result="shape"/>
</filter>
<linearGradient id="paint0_linear_1212_1480" x1="58" y1="0" x2="58" y2="116" gradientUnits="userSpaceOnUse">
<stop stop-color="#488FFF"/>
<stop offset="1" stop-color="#1759C1"/>
</linearGradient>
<linearGradient id="paint1_linear_1212_1480" x1="58.0002" y1="9.10718" x2="34.0863" y2="65.4315" gradientUnits="userSpaceOnUse">
<stop stop-color="white"/>
<stop offset="1" stop-color="white" stop-opacity="0"/>
</linearGradient>
</defs>
</svg>
