<svg width="116" height="116" viewBox="0 0 116 116" fill="none" xmlns="http://www.w3.org/2000/svg">
<rect width="116" height="116" fill="#111827"/>
<path d="M31.2065 76.2235C30.522 76.2235 29.9465 75.9902 29.4798 75.5235C29.0131 75.0569 28.7798 74.4813 28.7798 73.7969V42.2032C28.7798 41.4876 29.0131 40.9121 29.4798 40.4765C29.9465 40.0098 30.522 39.7765 31.2065 39.7765H52.3C53.0156 39.7765 53.5912 39.9943 54.0267 40.4298C54.4623 40.8343 54.6801 41.3787 54.6801 42.0632C54.6801 42.7165 54.4623 43.2454 54.0267 43.6499C53.5912 44.0543 53.0156 44.2565 52.3 44.2565H33.6332V55.5967H47.0266C47.7422 55.5967 48.3178 55.8144 48.7533 56.25C49.1889 56.6544 49.4067 57.1833 49.4067 57.8367C49.4067 58.49 49.1889 59.0345 48.7533 59.47C48.3178 59.8745 47.7422 60.0767 47.0266 60.0767H33.6332V71.7435H52.3C53.0156 71.7435 53.5912 71.9457 54.0267 72.3502C54.4623 72.7546 54.6801 73.2835 54.6801 73.9369C54.6801 74.6213 54.4623 75.1813 54.0267 75.6169C53.5912 76.0213 53.0156 76.2235 52.3 76.2235H31.2065Z" fill="#F9FAFB"/>
<path d="M60.3826 76.2235C59.667 76.2235 59.1226 76.0058 58.7492 75.5702C58.3759 75.1035 58.1892 74.5746 58.1892 73.9835C58.1892 73.3613 58.3759 72.8013 58.7492 72.3035L70.5093 56.6233L72.6094 54.7567L83.3428 40.4765C83.7784 40.0098 84.3539 39.7765 85.0695 39.7765C85.7228 39.7765 86.2362 39.9787 86.6095 40.3832C86.9828 40.7876 87.1851 41.2854 87.2162 41.8765C87.2473 42.4676 87.0762 43.0432 86.7028 43.6032L75.3627 58.7234L73.356 60.4967L62.0626 75.5235C61.5959 75.9902 61.0359 76.2235 60.3826 76.2235ZM84.7895 76.2235C84.385 76.2235 84.0273 76.1613 83.7161 76.0369C83.4361 75.8813 83.1717 75.648 82.9228 75.3369L72.0494 60.2634L70.3227 58.8167L59.3559 43.6032C58.9826 43.1054 58.827 42.561 58.8892 41.9698C58.9514 41.3787 59.1692 40.8654 59.5426 40.4298C59.947 39.9943 60.4759 39.7765 61.1292 39.7765C61.9381 39.7765 62.5137 40.0098 62.8559 40.4765L73.216 54.85L74.9894 56.2967L86.5162 72.3035C86.8895 72.8013 87.0606 73.3613 87.0295 73.9835C86.9984 74.6057 86.7806 75.1346 86.3762 75.5702C86.0028 76.0058 85.4739 76.2235 84.7895 76.2235Z" fill="#F9FAFB"/>
</svg>
