<svg width="116" height="116" viewBox="0 0 116 116" fill="none" xmlns="http://www.w3.org/2000/svg">
<rect width="116" height="116" fill="black"/>
<path fill-rule="evenodd" clip-rule="evenodd" d="M58 58C58 53.237 61.8612 49.3759 66.6242 49.3759C71.3872 49.3759 75.2483 53.237 75.2483 58C75.2483 62.763 71.3872 66.6242 66.6242 66.6242C61.8612 66.6242 58 62.763 58 58Z" fill="#1ABCFE"/>
<path fill-rule="evenodd" clip-rule="evenodd" d="M40.752 75.2483C40.752 70.4853 44.6131 66.6242 49.3761 66.6242H58.0003V75.2483C58.0003 80.0113 54.1391 83.8725 49.3761 83.8725C44.6131 83.8725 40.752 80.0113 40.752 75.2483Z" fill="#0ACF83"/>
<path fill-rule="evenodd" clip-rule="evenodd" d="M58 32.1275V49.3759H66.6242C71.3872 49.3759 75.2483 45.5147 75.2483 40.7517C75.2483 35.9887 71.3872 32.1275 66.6242 32.1275H58Z" fill="#FF7262"/>
<path fill-rule="evenodd" clip-rule="evenodd" d="M40.752 40.7517C40.752 45.5147 44.6131 49.3759 49.3761 49.3759H58.0003V32.1275H49.3761C44.6131 32.1275 40.752 35.9887 40.752 40.7517Z" fill="#F24E1E"/>
<path fill-rule="evenodd" clip-rule="evenodd" d="M40.752 58C40.752 62.763 44.6131 66.6242 49.3761 66.6242H58.0003V49.3759H49.3761C44.6131 49.3759 40.752 53.237 40.752 58Z" fill="#A259FF"/>
</svg>
