<svg width="116" height="116" viewBox="0 0 116 116" fill="none" xmlns="http://www.w3.org/2000/svg">
<rect width="116" height="116" rx="16" fill="url(#paint0_linear_1212_1486)"/>
<g filter="url(#filter0_f_1212_1486)">
<rect x="9.10742" y="9.10718" width="97.7856" height="97.7856" rx="12" stroke="url(#paint1_linear_1212_1486)" stroke-opacity="0.5" stroke-width="2" stroke-linecap="round" stroke-linejoin="round" stroke-dasharray="6 6"/>
</g>
<g filter="url(#filter1_d_1212_1486)">
<path d="M29.5489 100.182C27.9865 100.182 26.5206 99.8832 25.1511 99.2852C23.8008 98.6873 22.6049 97.8578 21.5633 96.797C20.541 95.7168 19.7405 94.4823 19.1619 93.0935C18.5832 91.6854 18.2939 90.1809 18.2939 88.5799C18.2939 86.9982 18.5736 85.513 19.1329 84.1242C19.7116 82.7161 20.5121 81.4816 21.5344 80.4207C22.576 79.3598 23.7719 78.5304 25.1221 77.9324C26.4916 77.3152 27.9672 77.0066 29.5489 77.0066C30.9377 77.0066 32.2012 77.2091 33.3392 77.6142C34.4772 78.0192 35.5767 78.6654 36.6376 79.5527C36.8112 79.6877 36.9076 79.8517 36.9269 80.0446C36.9655 80.2182 36.9462 80.3918 36.8691 80.5654C36.7919 80.7197 36.6762 80.8354 36.5219 80.9126C36.4833 81.0669 36.3868 81.1826 36.2325 81.2598C36.0782 81.3369 35.895 81.3658 35.6828 81.3466C35.4899 81.3273 35.297 81.2405 35.1041 81.0862C34.3519 80.4303 33.5321 79.9481 32.6448 79.6395C31.7575 79.3116 30.7256 79.1476 29.5489 79.1476C28.2952 79.1476 27.1185 79.3984 26.0191 79.8999C24.9389 80.4014 23.9841 81.0862 23.1547 81.9542C22.3252 82.8222 21.6694 83.8252 21.1872 84.9632C20.7243 86.1013 20.4928 87.3068 20.4928 88.5799C20.4928 89.8915 20.7243 91.1164 21.1872 92.2544C21.6694 93.3925 22.3252 94.3955 23.1547 95.2635C23.9841 96.1315 24.9389 96.8162 26.0191 97.3178C27.1185 97.8 28.2952 98.0411 29.5489 98.0411C30.6098 98.0411 31.6128 97.8675 32.558 97.5203C33.5032 97.1731 34.4001 96.6716 35.2488 96.0158C35.4803 95.8229 35.7214 95.7457 35.9721 95.7843C36.2422 95.8229 36.4736 95.9386 36.6665 96.1315C36.8594 96.3244 36.9559 96.5751 36.9559 96.8838C36.9559 97.0381 36.9366 97.1827 36.898 97.3178C36.8594 97.4335 36.7726 97.5589 36.6376 97.6939C35.6539 98.6005 34.5544 99.2466 33.3392 99.6324C32.124 99.9989 30.8606 100.182 29.5489 100.182ZM36.9559 96.8838L34.7569 96.4208V90.6052H30.2433C29.9154 90.6052 29.6454 90.5088 29.4332 90.3159C29.221 90.123 29.1149 89.8819 29.1149 89.5926C29.1149 89.3032 29.221 89.0718 29.4332 88.8982C29.6454 88.7053 29.9154 88.6088 30.2433 88.6088H35.8275C36.1554 88.6088 36.4254 88.7149 36.6376 88.9271C36.8498 89.12 36.9559 89.3804 36.9559 89.7083V96.8838ZM44.29 99.8928C43.9621 99.8928 43.692 99.7867 43.4799 99.5746C43.2677 99.3624 43.1616 99.0923 43.1616 98.7644V78.4243C43.1616 78.0964 43.2677 77.8263 43.4799 77.6142C43.692 77.402 43.9621 77.2959 44.29 77.2959C44.6179 77.2959 44.888 77.402 45.1001 77.6142C45.3123 77.8263 45.4184 78.0964 45.4184 78.4243V98.7644C45.4184 99.0923 45.3123 99.3624 45.1001 99.5746C44.888 99.7867 44.6179 99.8928 44.29 99.8928ZM59.2289 99.8928C58.9202 99.8928 58.6502 99.7867 58.4187 99.5746C58.2066 99.3431 58.1005 99.073 58.1005 98.7644V77.2959H60.3573V98.7644C60.3573 99.073 60.2512 99.3431 60.039 99.5746C59.8268 99.7867 59.5568 99.8928 59.2289 99.8928ZM51.2433 79.3502C50.9346 79.3502 50.6839 79.2537 50.491 79.0608C50.2981 78.8679 50.2017 78.6268 50.2017 78.3375C50.2017 78.0289 50.2981 77.7781 50.491 77.5852C50.6839 77.3923 50.9346 77.2959 51.2433 77.2959H67.2434C67.552 77.2959 67.8028 77.3923 67.9957 77.5852C68.1886 77.7781 68.285 78.0289 68.285 78.3375C68.285 78.6268 68.1886 78.8679 67.9957 79.0608C67.8028 79.2537 67.552 79.3502 67.2434 79.3502H51.2433Z" fill="#FFFBEB"/>
<path d="M25.1511 99.2852L24.3791 101.028L24.3883 101.032L25.1511 99.2852ZM21.5633 96.797L20.1788 98.1074L20.1908 98.12L20.203 98.1325L21.5633 96.797ZM19.1619 93.0935L17.3986 93.8181L17.4022 93.8267L19.1619 93.0935ZM19.1329 84.1242L17.3696 83.3995L17.3646 83.4119L19.1329 84.1242ZM21.5344 80.4207L20.1741 79.0851L20.1679 79.0915L20.1617 79.0979L21.5344 80.4207ZM25.1221 77.9324L25.8941 79.6755L25.9054 79.6704L25.1221 77.9324ZM33.3392 77.6142L33.9784 75.8182L33.9784 75.8182L33.3392 77.6142ZM36.6376 79.5527L35.4146 81.015L35.4405 81.0367L35.4672 81.0575L36.6376 79.5527ZM36.9269 80.0446L35.03 80.2342L35.0413 80.3472L35.066 80.4581L36.9269 80.0446ZM36.8691 80.5654L38.5742 81.4179L38.5935 81.3792L38.6111 81.3396L36.8691 80.5654ZM36.5219 80.9126L35.6693 79.2075L34.8851 79.5996L34.6724 80.4502L36.5219 80.9126ZM36.2325 81.2598L35.38 79.5547L35.38 79.5547L36.2325 81.2598ZM35.6828 81.3466L35.4931 83.2434L35.5017 83.2443L35.5102 83.2451L35.6828 81.3466ZM35.1041 81.0862L33.8514 82.5231L33.8818 82.5496L33.9132 82.5748L35.1041 81.0862ZM32.6448 79.6395L31.984 81.4276L32.0012 81.434L32.0185 81.44L32.6448 79.6395ZM26.0191 79.8999L25.2279 78.1654L25.2163 78.1708L26.0191 79.8999ZM23.1547 81.9542L24.5329 83.2712L24.5329 83.2712L23.1547 81.9542ZM21.1872 84.9632L19.4319 84.2195L19.4265 84.2322L19.4214 84.2449L21.1872 84.9632ZM21.1872 92.2544L19.4214 92.9727L19.4265 92.9855L19.4319 92.9982L21.1872 92.2544ZM23.1547 95.2635L24.5329 93.9465L24.5329 93.9465L23.1547 95.2635ZM26.0191 97.3178L25.2163 99.0468L25.2347 99.0554L25.2534 99.0636L26.0191 97.3178ZM32.558 97.5203L31.9007 95.7309L31.9007 95.7309L32.558 97.5203ZM35.2488 96.0158L36.4144 97.5242L36.4422 97.5027L36.4692 97.4803L35.2488 96.0158ZM35.9721 95.7843L35.6823 97.6685L35.6924 97.67L35.7025 97.6715L35.9721 95.7843ZM36.6665 96.1315L38.0145 94.7835L38.0145 94.7835L36.6665 96.1315ZM36.898 97.3178L38.7065 97.9206L38.7196 97.8813L38.731 97.8415L36.898 97.3178ZM36.6376 97.6939L37.9295 99.0957L37.9581 99.0694L37.9856 99.0419L36.6376 97.6939ZM33.3392 99.6324L33.8896 101.458L33.9029 101.454L33.916 101.449L33.3392 99.6324ZM36.9559 96.8838L36.5631 98.7492L38.8622 99.2332V96.8838H36.9559ZM34.7569 96.4208H32.8506V97.9676L34.3642 98.2863L34.7569 96.4208ZM34.7569 90.6052H36.6633V88.6989H34.7569V90.6052ZM29.4332 90.3159L30.7155 88.9053L30.7155 88.9053L29.4332 90.3159ZM29.4332 88.8982L30.6404 90.3736L30.6788 90.3421L30.7155 90.3087L29.4332 88.8982ZM36.6376 88.9271L35.2896 90.2751L35.3217 90.3072L35.3552 90.3377L36.6376 88.9271ZM29.5489 98.2758C28.2369 98.2758 27.0319 98.0263 25.9139 97.5381L24.3883 101.032C26.0093 101.74 27.7362 102.089 29.5489 102.089V98.2758ZM25.923 97.5422C24.7944 97.0423 23.7978 96.3517 22.9236 95.4614L20.203 98.1325C21.4121 99.364 22.8073 100.332 24.3791 101.028L25.923 97.5422ZM22.9479 95.4866C22.0865 94.5764 21.4123 93.5381 20.9216 92.3603L17.4022 93.8267C18.0688 95.4265 18.9955 96.8572 20.1788 98.1074L22.9479 95.4866ZM20.9251 92.3689C20.4458 91.2024 20.2002 89.9453 20.2002 88.5799H16.3875C16.3875 90.4164 16.7206 92.1684 17.3986 93.8181L20.9251 92.3689ZM20.2002 88.5799C20.2002 87.2283 20.4381 85.9862 20.9012 84.8364L17.3646 83.4119C16.709 85.0397 16.3875 86.7681 16.3875 88.5799H20.2002ZM20.8962 84.8488C21.3866 83.6554 22.0571 82.6256 22.9071 81.7435L20.1617 79.0979C18.9671 80.3376 18.0366 81.7768 17.3697 83.3995L20.8962 84.8488ZM22.8947 81.7563C23.7688 80.8659 24.7655 80.1753 25.8941 79.6755L24.3502 76.1894C22.7784 76.8855 21.3832 77.8537 20.1741 79.0851L22.8947 81.7563ZM25.9054 79.6704C27.0158 79.17 28.2227 78.9129 29.5489 78.9129V75.1002C27.7118 75.1002 25.9675 75.4604 24.3388 76.1944L25.9054 79.6704ZM29.5489 78.9129C30.752 78.9129 31.7953 79.0881 32.6999 79.4101L33.9784 75.8182C32.607 75.33 31.1235 75.1002 29.5489 75.1002V78.9129ZM32.6999 79.4101C33.5967 79.7293 34.5022 80.2519 35.4146 81.015L37.8606 78.0904C36.6512 77.0789 35.3578 76.3091 33.9784 75.8182L32.6999 79.4101ZM35.4672 81.0575C35.3932 80.9999 35.2884 80.899 35.197 80.7435C35.1027 80.5833 35.0473 80.4067 35.03 80.2342L38.8238 79.8549C38.7454 79.0707 38.3327 78.4561 37.808 78.0479L35.4672 81.0575ZM35.066 80.4581C35.0406 80.3439 35.0328 80.2199 35.0467 80.0944C35.0605 79.9703 35.093 79.8677 35.127 79.7911L38.6111 81.3396C38.842 80.8201 38.9212 80.231 38.7879 79.631L35.066 80.4581ZM35.164 79.7128C35.212 79.6167 35.2817 79.5146 35.3764 79.4199C35.4711 79.3252 35.5732 79.2555 35.6693 79.2075L37.3744 82.6177C37.8976 82.356 38.3125 81.9411 38.5742 81.4179L35.164 79.7128ZM34.6724 80.4502C34.7188 80.2648 34.8104 80.0696 34.9561 79.8947C35.099 79.7232 35.2559 79.6167 35.38 79.5547L37.0851 82.9649C37.6895 82.6627 38.1853 82.1188 38.3713 81.3749L34.6724 80.4502ZM35.38 79.5547C35.6097 79.4398 35.7973 79.4428 35.8554 79.448L35.5102 83.2451C35.9926 83.2889 36.5468 83.234 37.0851 82.9649L35.38 79.5547ZM35.8725 79.4497C36.1341 79.4758 36.2788 79.5846 36.295 79.5976L33.9132 82.5748C34.3152 82.8964 34.8457 83.1787 35.4931 83.2434L35.8725 79.4497ZM36.3569 79.6492C35.4325 78.8434 34.4026 78.2325 33.2711 77.839L32.0185 81.44C32.6616 81.6637 33.2712 82.0173 33.8514 82.5231L36.3569 79.6492ZM33.3056 77.8513C32.1623 77.4288 30.8982 77.2413 29.5489 77.2413V81.054C30.5529 81.054 31.3527 81.1944 31.984 81.4276L33.3056 77.8513ZM29.5489 77.2413C28.0327 77.2413 26.5851 77.5464 25.2279 78.1655L26.8102 81.6343C27.6519 81.2504 28.5576 81.054 29.5489 81.054V77.2413ZM25.2163 78.1708C23.9184 78.7734 22.7689 79.5985 21.7764 80.6371L24.5329 83.2712C25.1993 82.5738 25.9593 82.0294 26.8218 81.629L25.2163 78.1708ZM21.7764 80.6371C20.783 81.6768 20.0014 82.8755 19.4319 84.2195L22.9425 85.707C23.3374 84.7749 23.8675 83.9675 24.5329 83.2712L21.7764 80.6371ZM19.4214 84.2449C18.8623 85.6193 18.5865 87.0696 18.5865 88.5799H22.3991C22.3991 87.544 22.5863 86.5832 22.953 85.6815L19.4214 84.2449ZM18.5865 88.5799C18.5865 90.121 18.8595 91.5915 19.4214 92.9727L22.953 91.5361C22.589 90.6413 22.3991 89.6621 22.3991 88.5799H18.5865ZM19.4319 92.9982C20.0014 94.3422 20.783 95.5409 21.7764 96.5805L24.5329 93.9465C23.8675 93.2501 23.3374 92.4428 22.9425 91.5107L19.4319 92.9982ZM21.7764 96.5805C22.7689 97.6192 23.9184 98.4443 25.2163 99.0468L26.8218 95.5887C25.9593 95.1882 25.1993 94.6438 24.5329 93.9465L21.7764 96.5805ZM25.2534 99.0636C26.6049 99.6564 28.0435 99.9474 29.5489 99.9474V96.1347C28.5468 96.1347 27.6322 95.9436 26.7848 95.5719L25.2534 99.0636ZM29.5489 99.9474C30.822 99.9474 32.0485 99.7383 33.2153 99.3097L31.9007 95.7309C31.1771 95.9966 30.3977 96.1347 29.5489 96.1347V99.9474ZM33.2153 99.3097C34.3548 98.8911 35.4217 98.2913 36.4144 97.5242L34.0832 94.5073C33.3785 95.0518 32.6515 95.4551 31.9007 95.7309L33.2153 99.3097ZM36.4692 97.4803C36.4315 97.5117 36.3374 97.5799 36.1842 97.6289C36.0231 97.6804 35.8479 97.694 35.6823 97.6685L36.262 93.9001C35.369 93.7627 34.5935 94.0803 34.0284 94.5513L36.4692 97.4803ZM35.7025 97.6715C35.6457 97.6634 35.573 97.6437 35.4957 97.6051C35.4185 97.5665 35.3591 97.52 35.3185 97.4795L38.0145 94.7835C37.53 94.2989 36.9201 93.994 36.2417 93.8971L35.7025 97.6715ZM35.3185 97.4795C35.2293 97.3903 35.1533 97.276 35.1042 97.1486C35.057 97.0256 35.0495 96.929 35.0495 96.8838H38.8622C38.8622 96.1419 38.613 95.382 38.0145 94.7835L35.3185 97.4795ZM35.0495 96.8838C35.0495 96.8783 35.0504 96.8452 35.065 96.794L38.731 97.8415C38.8228 97.5202 38.8622 97.1979 38.8622 96.8838H35.0495ZM35.0895 96.7149C35.1395 96.5649 35.2016 96.4639 35.2366 96.4135C35.2721 96.3621 35.2955 96.34 35.2896 96.3459L37.9856 99.0419C38.2234 98.8041 38.5362 98.4316 38.7065 97.9206L35.0895 96.7149ZM35.3457 96.292C34.5567 97.0191 33.6986 97.5182 32.7624 97.8154L33.916 101.449C35.4102 100.975 36.751 100.182 37.9295 99.0957L35.3457 96.292ZM32.7888 97.8073C31.758 98.1181 30.6804 98.2758 29.5489 98.2758V102.089C31.0408 102.089 32.49 101.88 33.8896 101.458L32.7888 97.8073ZM37.3486 95.0183L35.1497 94.5554L34.3642 98.2863L36.5631 98.7492L37.3486 95.0183ZM36.6633 96.4208V90.6052H32.8506V96.4208H36.6633ZM34.7569 88.6989H30.2433V92.5116H34.7569V88.6989ZM30.2433 88.6989C30.267 88.6989 30.338 88.7026 30.436 88.7376C30.538 88.774 30.6354 88.8324 30.7155 88.9053L28.1508 91.7265C28.7644 92.2842 29.5141 92.5116 30.2433 92.5116V88.6989ZM30.7155 88.9053C30.7893 88.9723 30.8757 89.0779 30.9394 89.2226C31.0029 89.3669 31.0213 89.4991 31.0213 89.5926H27.2086C27.2086 90.4135 27.5372 91.1686 28.1508 91.7265L30.7155 88.9053ZM31.0213 89.5926C31.0213 89.6847 31.0033 89.8309 30.9275 89.9962C30.8503 90.1646 30.7416 90.2908 30.6404 90.3736L28.226 87.4227C27.5439 87.9808 27.2086 88.7679 27.2086 89.5926H31.0213ZM30.7155 90.3087C30.6354 90.3816 30.538 90.44 30.436 90.4764C30.338 90.5114 30.267 90.5152 30.2433 90.5152V86.7025C29.5141 86.7025 28.7644 86.9298 28.1508 87.4876L30.7155 90.3087ZM30.2433 90.5152H35.8275V86.7025H30.2433V90.5152ZM35.8275 90.5152C35.7837 90.5152 35.6929 90.5075 35.5789 90.4627C35.4615 90.4166 35.3624 90.3479 35.2896 90.2751L37.9856 87.5791C37.381 86.9745 36.6093 86.7025 35.8275 86.7025V90.5152ZM35.3552 90.3377C35.255 90.2466 35.1674 90.1251 35.1108 89.9863C35.0567 89.8535 35.0495 89.7505 35.0495 89.7083H38.8622C38.8622 88.9283 38.5884 88.1242 37.9199 87.5165L35.3552 90.3377ZM35.0495 89.7083V96.8838H38.8622V89.7083H35.0495ZM43.4799 99.5746L44.8279 98.2266L44.8279 98.2266L43.4799 99.5746ZM43.4799 77.6142L44.8279 78.9622L44.8279 78.9622L43.4799 77.6142ZM45.1001 77.6142L46.4481 76.2662L46.4481 76.2662L45.1001 77.6142ZM45.1001 99.5746L46.4481 100.923L46.4481 100.923L45.1001 99.5746ZM44.29 97.9865C44.3338 97.9865 44.4246 97.9941 44.5386 98.0389C44.656 98.085 44.7551 98.1538 44.8279 98.2266L42.1319 100.923C42.7365 101.527 43.5081 101.799 44.29 101.799V97.9865ZM44.8279 98.2266C44.9006 98.2993 44.9694 98.3985 45.0155 98.5158C45.0603 98.6299 45.068 98.7207 45.068 98.7644H41.2553C41.2553 99.5463 41.5273 100.318 42.1319 100.923L44.8279 98.2266ZM45.068 98.7644V78.4243H41.2553V98.7644H45.068ZM45.068 78.4243C45.068 78.468 45.0603 78.5588 45.0155 78.6729C44.9694 78.7903 44.9006 78.8894 44.8279 78.9622L42.1319 76.2662C41.5273 76.8708 41.2553 77.6424 41.2553 78.4243H45.068ZM44.8279 78.9622C44.7551 79.0349 44.656 79.1037 44.5386 79.1498C44.4246 79.1946 44.3338 79.2022 44.29 79.2022V75.3895C43.5081 75.3895 42.7365 75.6615 42.1319 76.2662L44.8279 78.9622ZM44.29 79.2022C44.2463 79.2022 44.1555 79.1946 44.0414 79.1498C43.924 79.1037 43.8249 79.0349 43.7521 78.9622L46.4481 76.2662C45.8435 75.6615 45.0719 75.3895 44.29 75.3895V79.2022ZM43.7521 78.9622C43.6794 78.8894 43.6106 78.7903 43.5645 78.6729C43.5197 78.5588 43.5121 78.468 43.5121 78.4243H47.3248C47.3248 77.6424 47.0528 76.8708 46.4481 76.2662L43.7521 78.9622ZM43.5121 78.4243V98.7644H47.3248V78.4243H43.5121ZM43.5121 98.7644C43.5121 98.7207 43.5197 98.6299 43.5645 98.5158C43.6106 98.3985 43.6794 98.2993 43.7521 98.2266L46.4481 100.923C47.0528 100.318 47.3248 99.5463 47.3248 98.7644H43.5121ZM43.7521 98.2266C43.8249 98.1538 43.924 98.085 44.0414 98.0389C44.1555 97.9941 44.2463 97.9865 44.29 97.9865V101.799C45.0719 101.799 45.8435 101.527 46.4481 100.923L43.7521 98.2266ZM58.4187 99.5746L57.0135 100.863L57.0695 100.924L57.1306 100.98L58.4187 99.5746ZM58.1005 77.2959V75.3895H56.1941V77.2959H58.1005ZM60.3573 77.2959H62.2636V75.3895H60.3573V77.2959ZM60.039 99.5746L61.387 100.923L61.4163 100.893L61.4443 100.863L60.039 99.5746ZM67.9957 77.5852L69.3437 76.2372L69.3437 76.2372L67.9957 77.5852ZM67.9957 79.0608L69.3437 80.4088L69.3437 80.4088L67.9957 79.0608ZM59.2289 97.9865C59.2978 97.9865 59.391 97.9993 59.4919 98.0389C59.5923 98.0783 59.6642 98.1302 59.7069 98.1693L57.1306 100.98C57.7068 101.508 58.4342 101.799 59.2289 101.799V97.9865ZM59.824 98.2864C59.8631 98.3291 59.915 98.401 59.9544 98.5014C59.994 98.6022 60.0068 98.6955 60.0068 98.7644H56.1941C56.1941 99.5591 56.4852 100.286 57.0135 100.863L59.824 98.2864ZM60.0068 98.7644V77.2959H56.1941V98.7644H60.0068ZM58.1005 79.2022H60.3573V75.3895H58.1005V79.2022ZM58.4509 77.2959V98.7644H62.2636V77.2959H58.4509ZM58.4509 98.7644C58.4509 98.6955 58.4637 98.6022 58.5034 98.5014C58.5428 98.401 58.5946 98.3291 58.6337 98.2864L61.4443 100.863C61.9725 100.286 62.2636 99.5591 62.2636 98.7644H58.4509ZM58.691 98.2266C58.7638 98.1538 58.8629 98.085 58.9803 98.0389C59.0943 97.9941 59.1851 97.9865 59.2289 97.9865V101.799C60.0107 101.799 60.7824 101.527 61.387 100.923L58.691 98.2266ZM51.2433 77.4438C51.2886 77.4438 51.3851 77.4513 51.5081 77.4985C51.6356 77.5476 51.7498 77.6237 51.839 77.7128L49.143 80.4088C49.7415 81.0073 50.5014 81.2565 51.2433 81.2565V77.4438ZM51.839 77.7128C51.9157 77.7896 51.9915 77.8962 52.044 78.0273C52.0956 78.1563 52.108 78.2673 52.108 78.3375H48.2953C48.2953 79.0984 48.5692 79.8351 49.143 80.4088L51.839 77.7128ZM52.108 78.3375C52.108 78.3828 52.1006 78.4794 52.0533 78.6023C52.0043 78.7298 51.9282 78.844 51.839 78.9332L49.143 76.2372C48.5445 76.8358 48.2953 77.5957 48.2953 78.3375H52.108ZM51.839 78.9332C51.7498 79.0224 51.6356 79.0985 51.5081 79.1475C51.3851 79.1948 51.2886 79.2022 51.2433 79.2022V75.3895C50.5014 75.3895 49.7415 75.6387 49.143 76.2372L51.839 78.9332ZM51.2433 79.2022H67.2434V75.3895H51.2433V79.2022ZM67.2434 79.2022C67.1981 79.2022 67.1015 79.1948 66.9786 79.1475C66.8511 79.0985 66.7369 79.0224 66.6477 78.9332L69.3437 76.2372C68.7451 75.6387 67.9852 75.3895 67.2434 75.3895V79.2022ZM66.6477 78.9332C66.5585 78.844 66.4824 78.7298 66.4334 78.6023C66.3861 78.4794 66.3786 78.3828 66.3786 78.3375H70.1913C70.1913 77.5957 69.9422 76.8358 69.3437 76.2372L66.6477 78.9332ZM66.3786 78.3375C66.3786 78.2673 66.3911 78.1563 66.4427 78.0273C66.4951 77.8962 66.5709 77.7896 66.6477 77.7128L69.3437 80.4088C69.9174 79.8351 70.1913 79.0984 70.1913 78.3375H66.3786ZM66.6477 77.7128C66.7369 77.6237 66.8511 77.5476 66.9786 77.4985C67.1015 77.4513 67.1981 77.4438 67.2434 77.4438V81.2565C67.9852 81.2565 68.7451 81.0073 69.3437 80.4088L66.6477 77.7128ZM67.2434 77.4438H51.2433V81.2565H67.2434V77.4438Z" fill="#FFFBEB"/>
</g>
<defs>
<filter id="filter0_f_1212_1486" x="6.10742" y="6.10718" width="103.786" height="103.786" filterUnits="userSpaceOnUse" color-interpolation-filters="sRGB">
<feFlood flood-opacity="0" result="BackgroundImageFix"/>
<feBlend mode="normal" in="SourceGraphic" in2="BackgroundImageFix" result="shape"/>
<feGaussianBlur stdDeviation="1" result="effect1_foregroundBlur_1212_1486"/>
</filter>
<filter id="filter1_d_1212_1486" x="13.2939" y="74.0066" width="59.9912" height="33.1755" filterUnits="userSpaceOnUse" color-interpolation-filters="sRGB">
<feFlood flood-opacity="0" result="BackgroundImageFix"/>
<feColorMatrix in="SourceAlpha" type="matrix" values="0 0 0 0 0 0 0 0 0 0 0 0 0 0 0 0 0 0 127 0" result="hardAlpha"/>
<feOffset dy="2"/>
<feGaussianBlur stdDeviation="2.5"/>
<feComposite in2="hardAlpha" operator="out"/>
<feColorMatrix type="matrix" values="0 0 0 0 0 0 0 0 0 0 0 0 0 0 0 0 0 0 0.08 0"/>
<feBlend mode="normal" in2="BackgroundImageFix" result="effect1_dropShadow_1212_1486"/>
<feBlend mode="normal" in="SourceGraphic" in2="effect1_dropShadow_1212_1486" result="shape"/>
</filter>
<linearGradient id="paint0_linear_1212_1486" x1="58" y1="0" x2="58" y2="116" gradientUnits="userSpaceOnUse">
<stop stop-color="#FFB23F"/>
<stop offset="1" stop-color="#FF7A00"/>
</linearGradient>
<linearGradient id="paint1_linear_1212_1486" x1="58.0002" y1="9.10718" x2="34.0863" y2="65.4315" gradientUnits="userSpaceOnUse">
<stop stop-color="white"/>
<stop offset="1" stop-color="white" stop-opacity="0"/>
</linearGradient>
</defs>
</svg>
