<svg width="116" height="116" viewBox="0 0 116 116" fill="none" xmlns="http://www.w3.org/2000/svg">
<rect width="116" height="116" rx="16" fill="#FF5811"/>
<g filter="url(#filter0_f_1212_1456)">
<rect x="9.10742" y="9.10718" width="97.7856" height="97.7856" rx="12" stroke="url(#paint0_linear_1212_1456)" stroke-opacity="0.5" stroke-width="2" stroke-linecap="round" stroke-linejoin="round" stroke-dasharray="6 6"/>
</g>
<g filter="url(#filter1_d_1212_1456)">
<path d="M20.0382 102.004C19.7592 102.004 19.5294 101.914 19.3489 101.733C19.1684 101.553 19.0781 101.323 19.0781 101.044V83.7368C19.0781 83.4578 19.1684 83.228 19.3489 83.0475C19.5294 82.8669 19.7592 82.7767 20.0382 82.7767C20.3173 82.7767 20.547 82.8669 20.7276 83.0475C20.9081 83.228 20.9984 83.4578 20.9984 83.7368V91.4179H33.0124V83.7368C33.0124 83.4578 33.1027 83.228 33.2832 83.0475C33.4637 82.8669 33.6935 82.7767 33.9725 82.7767C34.2515 82.7767 34.4813 82.8669 34.6619 83.0475C34.8424 83.228 34.9327 83.4578 34.9327 83.7368V101.044C34.9327 101.323 34.8424 101.553 34.6619 101.733C34.4813 101.914 34.2515 102.004 33.9725 102.004C33.6935 102.004 33.4637 101.914 33.2832 101.733C33.1027 101.553 33.0124 101.323 33.0124 101.044V93.1412H20.9984V101.044C20.9984 101.323 20.9081 101.553 20.7276 101.733C20.547 101.914 20.3173 102.004 20.0382 102.004ZM46.6697 102.004C46.4071 102.004 46.1773 101.914 45.9804 101.733C45.7999 101.536 45.7096 101.306 45.7096 101.044V82.7767H47.6299V101.044C47.6299 101.306 47.5396 101.536 47.359 101.733C47.1785 101.914 46.9487 102.004 46.6697 102.004ZM39.8749 84.5246C39.6123 84.5246 39.3989 84.4426 39.2348 84.2784C39.0707 84.1143 38.9886 83.9091 38.9886 83.663C38.9886 83.4004 39.0707 83.187 39.2348 83.0229C39.3989 82.8587 39.6123 82.7767 39.8749 82.7767H53.4892C53.7518 82.7767 53.9651 82.8587 54.1292 83.0229C54.2934 83.187 54.3754 83.4004 54.3754 83.663C54.3754 83.9091 54.2934 84.1143 54.1292 84.2784C53.9651 84.4426 53.7518 84.5246 53.4892 84.5246H39.8749ZM59.4044 102.004C59.1418 102.004 58.912 101.914 58.7151 101.733C58.5345 101.536 58.4443 101.306 58.4443 101.044V83.7368C58.4443 83.4578 58.5345 83.228 58.7151 83.0475C58.912 82.8669 59.1418 82.7767 59.4044 82.7767C59.7983 82.7767 60.0855 82.9408 60.2661 83.2691L68.5626 99.7637H67.7256L75.8745 83.2691C76.0714 82.9408 76.3586 82.7767 76.7361 82.7767C76.9987 82.7767 77.2203 82.8669 77.4008 83.0475C77.5814 83.228 77.6716 83.4578 77.6716 83.7368V101.044C77.6716 101.306 77.5814 101.536 77.4008 101.733C77.2203 101.914 76.9987 102.004 76.7361 102.004C76.4571 102.004 76.2191 101.914 76.0222 101.733C75.8416 101.536 75.7514 101.306 75.7514 101.044V86.2233L76.1699 86.2479L68.9073 101.093C68.7268 101.405 68.4478 101.561 68.0703 101.561C67.66 101.561 67.3645 101.364 67.184 100.97L59.8722 86.3464L60.3646 86.2233V101.044C60.3646 101.306 60.2661 101.536 60.0691 101.733C59.8886 101.914 59.667 102.004 59.4044 102.004ZM84.7975 102.004C84.5349 102.004 84.3051 101.914 84.1081 101.733C83.9276 101.553 83.8373 101.323 83.8373 101.044V83.7368C83.8373 83.4742 83.9276 83.2526 84.1081 83.0721C84.3051 82.8752 84.5349 82.7767 84.7975 82.7767C85.0601 82.7767 85.2816 82.8752 85.4622 83.0721C85.6591 83.2526 85.7576 83.4742 85.7576 83.7368V100.182H95.3836C95.6462 100.182 95.8677 100.272 96.0483 100.453C96.2452 100.617 96.3437 100.831 96.3437 101.093C96.3437 101.356 96.2452 101.577 96.0483 101.758C95.8677 101.922 95.6462 102.004 95.3836 102.004H84.7975Z" fill="#FFFBEB"/>
<path d="M19.3489 101.733L20.6969 100.385L20.6969 100.385L19.3489 101.733ZM19.3489 83.0475L20.6969 84.3955L20.6969 84.3955L19.3489 83.0475ZM20.7276 83.0475L22.0756 81.6995L22.0756 81.6995L20.7276 83.0475ZM20.9984 91.4179H19.092V93.3243H20.9984V91.4179ZM33.0124 91.4179V93.3243H34.9187V91.4179H33.0124ZM33.2832 83.0475L34.6312 84.3955L34.6312 84.3955L33.2832 83.0475ZM34.6619 101.733L36.0099 103.081L34.6619 101.733ZM33.2832 101.733L34.6312 100.385L34.6312 100.385L33.2832 101.733ZM33.0124 93.1412H34.9187V91.2349H33.0124V93.1412ZM20.9984 93.1412V91.2349H19.092V93.1412H20.9984ZM20.7276 101.733L22.0756 103.081L22.0756 103.081L20.7276 101.733ZM20.0382 100.098C20.1064 100.098 20.2195 100.109 20.3537 100.162C20.4912 100.216 20.6083 100.297 20.6969 100.385L18.0009 103.081C18.5739 103.654 19.3053 103.91 20.0382 103.91V100.098ZM20.6969 100.385C20.7855 100.474 20.8661 100.591 20.9201 100.728C20.9729 100.863 20.9844 100.976 20.9844 101.044H17.1718C17.1718 101.777 17.4279 102.508 18.0009 103.081L20.6969 100.385ZM20.9844 101.044V83.7368H17.1718V101.044H20.9844ZM20.9844 83.7368C20.9844 83.805 20.9729 83.9181 20.9201 84.0523C20.8661 84.1898 20.7855 84.3069 20.6969 84.3955L18.0009 81.6995C17.4279 82.2725 17.1718 83.0038 17.1718 83.7368H20.9844ZM20.6969 84.3955C20.6083 84.4841 20.4912 84.5647 20.3537 84.6187C20.2195 84.6714 20.1064 84.683 20.0382 84.683V80.8703C19.3053 80.8703 18.5739 81.1265 18.0009 81.6995L20.6969 84.3955ZM20.0382 84.683C19.97 84.683 19.8569 84.6714 19.7228 84.6187C19.5853 84.5647 19.4682 84.4841 19.3796 84.3955L22.0756 81.6995C21.5026 81.1265 20.7712 80.8703 20.0382 80.8703V84.683ZM19.3796 84.3955C19.291 84.3069 19.2104 84.1898 19.1563 84.0523C19.1036 83.9181 19.092 83.805 19.092 83.7368H22.9047C22.9047 83.0038 22.6485 82.2725 22.0756 81.6995L19.3796 84.3955ZM19.092 83.7368V91.4179H22.9047V83.7368H19.092ZM20.9984 93.3243H33.0124V89.5116H20.9984V93.3243ZM34.9187 91.4179V83.7368H31.106V91.4179H34.9187ZM34.9187 83.7368C34.9187 83.805 34.9071 83.9181 34.8544 84.0523C34.8004 84.1898 34.7198 84.3069 34.6312 84.3955L31.9352 81.6995C31.3622 82.2725 31.106 83.0038 31.106 83.7368H34.9187ZM34.6312 84.3955C34.5426 84.4841 34.4255 84.5647 34.288 84.6187C34.1538 84.6714 34.0407 84.683 33.9725 84.683V80.8703C33.2396 80.8703 32.5082 81.1265 31.9352 81.6995L34.6312 84.3955ZM33.9725 84.683C33.9043 84.683 33.7912 84.6714 33.6571 84.6187C33.5196 84.5647 33.4025 84.4841 33.3139 84.3955L36.0098 81.6995C35.4369 81.1265 34.7055 80.8703 33.9725 80.8703V84.683ZM33.3139 84.3955C33.2253 84.3069 33.1446 84.1898 33.0906 84.0523C33.0379 83.9181 33.0263 83.805 33.0263 83.7368H36.839C36.839 83.0038 36.5828 82.2725 36.0098 81.6995L33.3139 84.3955ZM33.0263 83.7368V101.044H36.839V83.7368H33.0263ZM33.0263 101.044C33.0263 100.976 33.0379 100.863 33.0906 100.728C33.1446 100.591 33.2253 100.474 33.3139 100.385L36.0099 103.081C36.5828 102.508 36.839 101.777 36.839 101.044H33.0263ZM33.3139 100.385C33.4025 100.297 33.5196 100.216 33.6571 100.162C33.7912 100.109 33.9043 100.098 33.9725 100.098V103.91C34.7055 103.91 35.4369 103.654 36.0099 103.081L33.3139 100.385ZM33.9725 100.098C34.0407 100.098 34.1538 100.109 34.288 100.162C34.4255 100.216 34.5426 100.297 34.6312 100.385L31.9352 103.081C32.5082 103.654 33.2396 103.91 33.9725 103.91V100.098ZM34.6312 100.385C34.7198 100.474 34.8004 100.591 34.8544 100.728C34.9071 100.863 34.9187 100.976 34.9187 101.044H31.106C31.106 101.777 31.3622 102.508 31.9352 103.081L34.6312 100.385ZM34.9187 101.044V93.1412H31.106V101.044H34.9187ZM33.0124 91.2349H20.9984V95.0476H33.0124V91.2349ZM19.092 93.1412V101.044H22.9047V93.1412H19.092ZM19.092 101.044C19.092 100.976 19.1036 100.863 19.1563 100.728C19.2104 100.591 19.291 100.474 19.3796 100.385L22.0756 103.081C22.6485 102.508 22.9047 101.777 22.9047 101.044H19.092ZM19.3796 100.385C19.4682 100.297 19.5853 100.216 19.7228 100.162C19.8569 100.109 19.97 100.098 20.0382 100.098V103.91C20.7712 103.91 21.5026 103.654 22.0756 103.081L19.3796 100.385ZM45.9804 101.733L44.5751 103.021L44.6311 103.082L44.6922 103.138L45.9804 101.733ZM45.7096 82.7767V80.8703H43.8032V82.7767H45.7096ZM47.6299 82.7767H49.5362V80.8703H47.6299V82.7767ZM47.359 101.733L48.707 103.081L48.7363 103.052L48.7643 103.021L47.359 101.733ZM54.1292 83.0229L55.4772 81.6749L55.4772 81.6749L54.1292 83.0229ZM54.1292 84.2784L55.4772 85.6264L55.4772 85.6264L54.1292 84.2784ZM46.6697 100.098C46.7616 100.098 46.8765 100.114 46.9975 100.162C47.118 100.209 47.2086 100.273 47.2686 100.328L44.6922 103.138C45.234 103.635 45.921 103.91 46.6697 103.91V100.098ZM47.3857 100.445C47.4406 100.505 47.5043 100.596 47.5516 100.716C47.5992 100.837 47.6159 100.952 47.6159 101.044H43.8032C43.8032 101.793 44.0785 102.48 44.5751 103.021L47.3857 100.445ZM47.6159 101.044V82.7767H43.8032V101.044H47.6159ZM45.7096 84.683H47.6299V80.8703H45.7096V84.683ZM45.7235 82.7767V101.044H49.5362V82.7767H45.7235ZM45.7235 101.044C45.7235 100.952 45.7403 100.837 45.7878 100.716C45.8351 100.596 45.8988 100.505 45.9538 100.445L48.7643 103.021C49.2609 102.48 49.5362 101.793 49.5362 101.044H45.7235ZM46.0111 100.385C46.0997 100.297 46.2168 100.216 46.3543 100.162C46.4884 100.109 46.6015 100.098 46.6697 100.098V103.91C47.4027 103.91 48.1341 103.654 48.707 103.081L46.0111 100.385ZM39.8749 82.6183C39.9432 82.6183 40.0606 82.6293 40.2023 82.6838C40.3484 82.74 40.4792 82.8269 40.5828 82.9304L37.8868 85.6264C38.4566 86.1962 39.1791 86.431 39.8749 86.431V82.6183ZM40.5828 82.9304C40.6739 83.0215 40.7605 83.1443 40.8202 83.2935C40.8789 83.4404 40.895 83.5712 40.895 83.663H37.0823C37.0823 84.3807 37.3418 85.0814 37.8868 85.6264L40.5828 82.9304ZM40.895 83.663C40.895 83.7313 40.8839 83.8487 40.8295 83.9903C40.7732 84.1365 40.6864 84.2673 40.5828 84.3709L37.8868 81.6749C37.3171 82.2446 37.0823 82.9671 37.0823 83.663H40.895ZM40.5828 84.3709C40.4792 84.4744 40.3484 84.5613 40.2023 84.6175C40.0606 84.672 39.9432 84.683 39.8749 84.683V80.8703C39.1791 80.8703 38.4566 81.1051 37.8868 81.6749L40.5828 84.3709ZM39.8749 84.683H53.4892V80.8703H39.8749V84.683ZM53.4892 84.683C53.4208 84.683 53.3034 84.672 53.1618 84.6175C53.0156 84.5613 52.8848 84.4744 52.7813 84.3709L55.4772 81.6749C54.9075 81.1051 54.185 80.8703 53.4892 80.8703V84.683ZM52.7813 84.3709C52.6777 84.2673 52.5908 84.1365 52.5346 83.9903C52.4801 83.8487 52.4691 83.7313 52.4691 83.663H56.2818C56.2818 82.9671 56.047 82.2446 55.4772 81.6749L52.7813 84.3709ZM52.4691 83.663C52.4691 83.5712 52.4851 83.4404 52.5439 83.2935C52.6035 83.1443 52.6901 83.0215 52.7813 82.9304L55.4772 85.6264C56.0222 85.0814 56.2818 84.3807 56.2818 83.663H52.4691ZM52.7813 82.9304C52.8848 82.8269 53.0156 82.74 53.1618 82.6838C53.3034 82.6293 53.4208 82.6183 53.4892 82.6183V86.431C54.185 86.431 54.9075 86.1962 55.4772 85.6264L52.7813 82.9304ZM53.4892 82.6183H39.8749V86.431H53.4892V82.6183ZM58.7151 101.733L57.3098 103.021L57.3658 103.082L57.4269 103.138L58.7151 101.733ZM58.7151 83.0475L57.4269 81.6422L57.3964 81.6702L57.3671 81.6995L58.7151 83.0475ZM60.2661 83.2691L61.9691 82.4124L61.9534 82.3811L61.9365 82.3503L60.2661 83.2691ZM68.5626 99.7637V101.67H71.6554L70.2657 98.9071L68.5626 99.7637ZM67.7256 99.7637L66.0164 98.9193L64.6575 101.67H67.7256V99.7637ZM75.8745 83.2691L74.2398 82.2882L74.1998 82.3549L74.1653 82.4247L75.8745 83.2691ZM77.4008 83.0475L78.7488 81.6995L78.7488 81.6995L77.4008 83.0475ZM77.4008 101.733L78.7488 103.081L78.7781 103.052L78.8061 103.021L77.4008 101.733ZM76.0222 101.733L74.6169 103.021L74.6729 103.082L74.734 103.138L76.0222 101.733ZM75.7514 86.2233L75.8633 84.3203L73.845 84.2015V86.2233H75.7514ZM76.1699 86.2479L77.8823 87.0857L79.1409 84.5131L76.2818 84.3449L76.1699 86.2479ZM68.9073 101.093L70.5571 102.048L70.5905 101.991L70.6197 101.931L68.9073 101.093ZM67.184 100.97L68.917 100.176L68.9035 100.146L68.8891 100.117L67.184 100.97ZM59.8722 86.3464L59.4098 84.497L57.1043 85.0734L58.1671 87.199L59.8722 86.3464ZM60.3646 86.2233H62.2709V83.7817L59.9022 84.3739L60.3646 86.2233ZM60.0691 101.733L61.4171 103.081L61.4171 103.081L60.0691 101.733ZM59.4044 100.098C59.4963 100.098 59.6112 100.114 59.7322 100.162C59.8527 100.209 59.9433 100.273 60.0033 100.328L57.4269 103.138C57.9687 103.635 58.6557 103.91 59.4044 103.91V100.098ZM60.1204 100.445C60.1753 100.505 60.239 100.596 60.2863 100.716C60.3339 100.837 60.3506 100.952 60.3506 101.044H56.5379C56.5379 101.793 56.8132 102.48 57.3098 103.021L60.1204 100.445ZM60.3506 101.044V83.7368H56.5379V101.044H60.3506ZM60.3506 83.7368C60.3506 83.805 60.339 83.9181 60.2863 84.0523C60.2323 84.1898 60.1517 84.3069 60.0631 84.3955L57.3671 81.6995C56.7941 82.2725 56.5379 83.0038 56.5379 83.7368H60.3506ZM60.0033 84.4528C59.9433 84.5077 59.8527 84.5714 59.7322 84.6187C59.6112 84.6663 59.4963 84.683 59.4044 84.683V80.8703C58.6557 80.8703 57.9687 81.1456 57.4269 81.6422L60.0033 84.4528ZM59.4044 84.683C59.333 84.683 59.1644 84.6663 58.9694 84.5549C58.7695 84.4407 58.6516 84.2894 58.5957 84.1878L61.9365 82.3503C61.7 81.9204 61.3482 81.523 60.8611 81.2446C60.3789 80.9691 59.8697 80.8703 59.4044 80.8703V84.683ZM58.563 84.1257L66.8596 100.62L70.2657 98.9071L61.9691 82.4124L58.563 84.1257ZM68.5626 97.8574H67.7256V101.67H68.5626V97.8574ZM69.4348 100.608L77.5836 84.1134L74.1653 82.4247L66.0164 98.9193L69.4348 100.608ZM77.5091 84.2499C77.4662 84.3214 77.3652 84.451 77.1834 84.5549C77.0003 84.6596 76.8316 84.683 76.7361 84.683V80.8703C75.6775 80.8703 74.7753 81.3957 74.2398 82.2882L77.5091 84.2499ZM76.7361 84.683C76.645 84.683 76.5189 84.6664 76.38 84.6098C76.24 84.5528 76.13 84.4726 76.0528 84.3955L78.7488 81.6995C78.1995 81.1502 77.4882 80.8703 76.7361 80.8703V84.683ZM76.0528 84.3955C75.9642 84.3069 75.8836 84.1898 75.8296 84.0523C75.7769 83.9181 75.7653 83.805 75.7653 83.7368H79.578C79.578 83.0038 79.3218 82.2725 78.7488 81.6995L76.0528 84.3955ZM75.7653 83.7368V101.044H79.578V83.7368H75.7653ZM75.7653 101.044C75.7653 100.952 75.7821 100.837 75.8296 100.716C75.8769 100.596 75.9406 100.505 75.9956 100.445L78.8061 103.021C79.3027 102.48 79.578 101.793 79.578 101.044H75.7653ZM76.0528 100.385C76.13 100.308 76.24 100.228 76.38 100.171C76.5189 100.114 76.645 100.098 76.7361 100.098V103.91C77.4882 103.91 78.1995 103.631 78.7488 103.081L76.0528 100.385ZM76.7361 100.098C76.8054 100.098 76.9076 100.11 77.0245 100.154C77.1427 100.199 77.2395 100.263 77.3103 100.328L74.734 103.138C75.2993 103.657 76.0034 103.91 76.7361 103.91V100.098ZM77.4274 100.445C77.4824 100.505 77.5461 100.596 77.5934 100.716C77.6409 100.837 77.6577 100.952 77.6577 101.044H73.845C73.845 101.793 74.1203 102.48 74.6169 103.021L77.4274 100.445ZM77.6577 101.044V86.2233H73.845V101.044H77.6577ZM75.6394 88.1264L76.0579 88.151L76.2818 84.3449L75.8633 84.3203L75.6394 88.1264ZM74.4575 85.4102L67.1949 100.255L70.6197 101.931L77.8823 87.0857L74.4575 85.4102ZM67.2575 100.138C67.3167 100.036 67.4361 99.8897 67.6327 99.7798C67.8249 99.6724 67.9926 99.6545 68.0703 99.6545V103.467C69.0882 103.467 70.0163 102.982 70.5571 102.048L67.2575 100.138ZM68.0703 99.6545C68.1813 99.6545 68.3864 99.6857 68.5984 99.827C68.8038 99.9639 68.8924 100.122 68.917 100.176L65.451 101.764C65.6561 102.212 65.9827 102.665 66.4835 102.999C66.9909 103.338 67.5489 103.467 68.0703 103.467V99.6545ZM68.8891 100.117L61.5773 85.4939L58.1671 87.199L65.4789 101.823L68.8891 100.117ZM60.3345 88.1958L60.8269 88.0727L59.9022 84.3739L59.4098 84.497L60.3345 88.1958ZM58.4582 86.2233V101.044H62.2709V86.2233H58.4582ZM58.4582 101.044C58.4582 100.93 58.4809 100.797 58.5385 100.662C58.5951 100.53 58.6677 100.439 58.7211 100.385L61.4171 103.081C61.9475 102.551 62.2709 101.845 62.2709 101.044H58.4582ZM58.7211 100.385C58.7983 100.308 58.9083 100.228 59.0483 100.171C59.1872 100.114 59.3133 100.098 59.4044 100.098V103.91C60.1565 103.91 60.8678 103.631 61.4171 103.081L58.7211 100.385ZM84.1081 101.733L82.7601 103.081L82.7894 103.111L82.82 103.138L84.1081 101.733ZM84.1081 83.0721L82.7601 81.7241L82.7601 81.7241L84.1081 83.0721ZM85.4622 83.0721L84.0569 84.3603L84.1129 84.4214L84.174 84.4774L85.4622 83.0721ZM85.7576 100.182H83.8512V102.089H85.7576V100.182ZM96.0483 100.453L94.7003 101.801L94.7614 101.862L94.8279 101.918L96.0483 100.453ZM96.0483 101.758L97.3306 103.168L97.3365 103.163L96.0483 101.758ZM84.7975 100.098C84.8894 100.098 85.0042 100.114 85.1252 100.162C85.2457 100.209 85.3364 100.273 85.3963 100.328L82.82 103.138C83.3617 103.635 84.0488 103.91 84.7975 103.91V100.098ZM85.4561 100.385C85.5447 100.474 85.6253 100.591 85.6794 100.728C85.7321 100.863 85.7437 100.976 85.7437 101.044H81.931C81.931 101.777 82.1871 102.508 82.7601 103.081L85.4561 100.385ZM85.7437 101.044V83.7368H81.931V101.044H85.7437ZM85.7437 83.7368C85.7437 83.828 85.7271 83.954 85.6705 84.0929C85.6134 84.233 85.5333 84.3429 85.4561 84.4201L82.7601 81.7241C82.2108 82.2734 81.931 82.9847 81.931 83.7368H85.7437ZM85.4561 84.4201C85.4026 84.4736 85.3112 84.5461 85.1791 84.6027C85.0448 84.6603 84.9111 84.683 84.7975 84.683V80.8703C83.9962 80.8703 83.2905 81.1937 82.7601 81.7241L85.4561 84.4201ZM84.7975 84.683C84.6844 84.683 84.539 84.6604 84.3863 84.5926C84.2345 84.5251 84.1254 84.435 84.0569 84.3603L86.8674 81.7839C86.333 81.2009 85.6049 80.8703 84.7975 80.8703V84.683ZM84.174 84.4774C84.0992 84.4088 84.0092 84.2998 83.9417 84.1479C83.8738 83.9953 83.8512 83.8498 83.8512 83.7368H87.6639C87.6639 82.9293 87.3334 82.2013 86.7503 81.6668L84.174 84.4774ZM83.8512 83.7368V100.182H87.6639V83.7368H83.8512ZM85.7576 102.089H95.3836V98.2759H85.7576V102.089ZM95.3836 102.089C95.2924 102.089 95.1664 102.072 95.0274 102.015C94.8874 101.958 94.7775 101.878 94.7003 101.801L97.3963 99.105C96.847 98.5557 96.1356 98.2759 95.3836 98.2759V102.089ZM94.8279 101.918C94.729 101.835 94.6188 101.708 94.539 101.535C94.4597 101.363 94.4374 101.205 94.4374 101.093H98.2501C98.2501 100.281 97.9123 99.5249 97.2687 98.9885L94.8279 101.918ZM94.4374 101.093C94.4374 100.98 94.46 100.835 94.5278 100.682C94.5953 100.53 94.6854 100.421 94.7601 100.353L97.3365 103.163C97.9195 102.629 98.2501 101.901 98.2501 101.093H94.4374ZM94.7659 100.347C94.8503 100.271 94.9589 100.201 95.0846 100.155C95.208 100.109 95.314 100.098 95.3836 100.098V103.91C96.081 103.91 96.7711 103.677 97.3306 103.168L94.7659 100.347ZM95.3836 100.098H84.7975V103.91H95.3836V100.098Z" fill="#FFFBEB"/>
</g>
<defs>
<filter id="filter0_f_1212_1456" x="6.10742" y="6.10718" width="103.786" height="103.786" filterUnits="userSpaceOnUse" color-interpolation-filters="sRGB">
<feFlood flood-opacity="0" result="BackgroundImageFix"/>
<feBlend mode="normal" in="SourceGraphic" in2="BackgroundImageFix" result="shape"/>
<feGaussianBlur stdDeviation="1" result="effect1_foregroundBlur_1212_1456"/>
</filter>
<filter id="filter1_d_1212_1456" x="14.0781" y="79.7767" width="87.2656" height="29.2274" filterUnits="userSpaceOnUse" color-interpolation-filters="sRGB">
<feFlood flood-opacity="0" result="BackgroundImageFix"/>
<feColorMatrix in="SourceAlpha" type="matrix" values="0 0 0 0 0 0 0 0 0 0 0 0 0 0 0 0 0 0 127 0" result="hardAlpha"/>
<feOffset dy="2"/>
<feGaussianBlur stdDeviation="2.5"/>
<feComposite in2="hardAlpha" operator="out"/>
<feColorMatrix type="matrix" values="0 0 0 0 0 0 0 0 0 0 0 0 0 0 0 0 0 0 0.08 0"/>
<feBlend mode="normal" in2="BackgroundImageFix" result="effect1_dropShadow_1212_1456"/>
<feBlend mode="normal" in="SourceGraphic" in2="effect1_dropShadow_1212_1456" result="shape"/>
</filter>
<linearGradient id="paint0_linear_1212_1456" x1="58.0002" y1="9.10718" x2="34.0863" y2="65.4315" gradientUnits="userSpaceOnUse">
<stop stop-color="white"/>
<stop offset="1" stop-color="white" stop-opacity="0"/>
</linearGradient>
</defs>
</svg>
