<svg width="116" height="116" viewBox="0 0 116 116" fill="none" xmlns="http://www.w3.org/2000/svg">
<rect width="116" height="116" fill="#330000"/>
<path d="M56.4361 71.0364H40.7074L37.5073 81.2325C37.4184 81.6113 37.0696 81.8796 36.6901 81.861H28.7237C28.2694 81.861 28.1105 81.6049 28.247 81.0928L41.8649 40.8675C42.0012 40.4486 42.1374 39.9714 42.2735 39.4359C42.4517 38.5041 42.5428 37.5571 42.5459 36.6077C42.5069 36.3272 42.7534 36.0794 43.0225 36.1187H53.8486C54.1658 36.1187 54.3474 36.2351 54.3934 36.468L69.8499 81.1626C69.986 81.6285 69.8497 81.8613 69.4412 81.861H60.5895C60.279 81.8963 59.9826 81.6834 59.9086 81.3721L56.4361 71.0364ZM43.1586 62.2372H53.9168C52.1492 56.1973 50.1545 50.2368 48.5378 44.1498C46.7935 50.2471 44.8903 56.3197 43.1586 62.2372Z" fill="#FF9A00"/>
<path d="M79.0411 43.5211C78.3466 43.5497 77.654 43.4276 77.0087 43.1629C76.3634 42.8981 75.7798 42.4967 75.2961 41.9847C74.8138 41.4506 74.4392 40.8239 74.1937 40.1408C73.9483 39.4577 73.837 38.7315 73.8661 38.0041C73.8414 37.2839 73.965 36.5664 74.229 35.8985C74.493 35.2307 74.8914 34.6274 75.3981 34.1282C75.9 33.6342 76.4924 33.2471 77.141 32.9894C77.7897 32.7317 78.4817 32.6084 79.1771 32.6268C80.8114 32.6268 82.0938 33.1273 83.0243 34.1282C83.494 34.6484 83.859 35.2585 84.0985 35.9236C84.338 36.5887 84.4473 37.2957 84.42 38.0041C84.4485 38.7344 84.3336 39.463 84.0821 40.1469C83.8306 40.8307 83.4477 41.4557 82.9561 41.9847C82.4423 42.5042 81.8292 42.9089 81.1554 43.1733C80.4816 43.4377 79.7617 43.5561 79.0411 43.5211ZM74.3427 81.1623V47.781C74.3427 47.3621 74.5236 47.1525 74.8875 47.1525H83.2626C83.6254 47.1525 83.807 47.362 83.8073 47.781V81.1623C83.8073 81.6283 83.6257 81.8611 83.2626 81.8607H74.9556C74.5472 81.8607 74.3429 81.628 74.3427 81.1623Z" fill="#FF9A00"/>
</svg>
