<svg width="116" height="116" viewBox="0 0 116 116" fill="none" xmlns="http://www.w3.org/2000/svg">
<rect width="116" height="116" rx="16" fill="url(#paint0_linear_1212_1450)"/>
<g filter="url(#filter0_d_1212_1450)">
<path d="M25.7318 100.382C24.043 100.382 22.5351 100.02 21.2081 99.2967C19.9053 98.5487 18.88 97.5234 18.1321 96.2206C17.4083 94.8936 17.0464 93.3858 17.0464 91.6969C17.0464 91.142 17.2273 90.6957 17.5892 90.3579C17.9511 89.996 18.3975 89.8151 18.9282 89.8151C19.4831 89.8151 19.9295 89.996 20.2672 90.3579C20.6291 90.6957 20.8101 91.142 20.8101 91.6969C20.8101 92.7343 21.0151 93.6511 21.4253 94.4473C21.8596 95.2435 22.4386 95.8707 23.1624 96.3291C23.9103 96.7634 24.7668 96.9805 25.7318 96.9805C26.6968 96.9805 27.5533 96.7634 28.3012 96.3291C29.0491 95.8707 29.6282 95.2435 30.0383 94.4473C30.4726 93.6511 30.6897 92.7343 30.6897 91.6969V73.6385C30.6897 73.0836 30.8586 72.6373 31.1964 72.2995C31.5583 71.9376 32.0046 71.7567 32.5354 71.7567C33.0903 71.7567 33.5487 71.9376 33.9106 72.2995C34.2724 72.6373 34.4534 73.0836 34.4534 73.6385V91.6969C34.4534 93.3858 34.0794 94.8936 33.3315 96.2206C32.5836 97.5234 31.5583 98.5487 30.2554 99.2967C28.9526 100.02 27.4448 100.382 25.7318 100.382Z" fill="#FFFBEB"/>
<path d="M50.6653 100.382C49.1212 100.382 47.6495 100.141 46.2502 99.6585C44.8509 99.176 43.6325 98.5005 42.5951 97.632C41.5577 96.7634 40.7977 95.7622 40.3152 94.6282C40.0739 94.1216 40.0739 93.6511 40.3152 93.2169C40.5806 92.7826 41.0149 92.5051 41.618 92.3845C42.0523 92.288 42.4745 92.3604 42.8846 92.6017C43.3189 92.8188 43.6446 93.1566 43.8617 93.615C44.1513 94.2181 44.6217 94.773 45.2731 95.2797C45.9486 95.7863 46.7569 96.1964 47.6978 96.5101C48.6387 96.8237 49.6279 96.9805 50.6653 96.9805C51.8234 96.9805 52.8849 96.7996 53.85 96.4377C54.8391 96.0758 55.6353 95.5571 56.2384 94.8816C56.8416 94.1819 57.1432 93.3254 57.1432 92.3121C57.1432 91.0335 56.6365 89.8875 55.6232 88.8742C54.6341 87.8609 52.9935 87.2336 50.7015 86.9923C47.7099 86.7028 45.3576 85.8222 43.6446 84.3505C41.9316 82.8788 41.0752 81.0573 41.0752 78.8859C41.0752 77.2936 41.5215 75.9426 42.4142 74.8328C43.3068 73.723 44.5131 72.8785 46.0331 72.2995C47.5772 71.7205 49.2901 71.431 51.172 71.431C52.6436 71.431 53.9223 71.636 55.008 72.0462C56.1178 72.4563 57.0829 73.0233 57.9031 73.7471C58.7234 74.4709 59.4352 75.3273 60.0383 76.3165C60.3761 76.8473 60.5088 77.3539 60.4364 77.8365C60.3881 78.2949 60.1589 78.6567 59.7488 78.9221C59.2904 79.2116 58.7958 79.272 58.265 79.1031C57.7343 78.9342 57.3362 78.6206 57.0708 78.1622C56.6848 77.4625 56.2143 76.8714 55.6594 76.3889C55.1045 75.9064 54.4531 75.5324 53.7052 75.267C52.9573 74.9775 52.0767 74.8328 51.0634 74.8328C49.2781 74.8086 47.7822 75.1464 46.5759 75.8461C45.3696 76.5216 44.7665 77.5711 44.7665 78.9945C44.7665 79.7183 44.9474 80.418 45.3093 81.0935C45.6953 81.7449 46.3829 82.3119 47.3721 82.7944C48.3854 83.2769 49.833 83.6147 51.7148 83.8077C54.5858 84.0972 56.8175 84.9778 58.4098 86.4495C60.0262 87.8971 60.8345 89.8151 60.8345 92.2036C60.8345 93.5788 60.545 94.773 59.9659 95.7863C59.411 96.7996 58.6511 97.6561 57.686 98.3557C56.7451 99.0313 55.6594 99.5379 54.429 99.8757C53.2227 100.213 51.9681 100.382 50.6653 100.382Z" fill="#FFFBEB"/>
<path d="M39.4916 92.7367L39.5019 92.7198C39.9325 92.0151 40.6203 91.6142 41.4211 91.4519C42.0941 91.3049 42.7478 91.4237 43.3398 91.7637C43.9583 92.0809 44.4224 92.5735 44.7218 93.2041M39.4916 92.7367L41.618 92.3845C42.0523 92.288 42.4745 92.3604 42.8846 92.6017C43.3189 92.8188 43.6446 93.1566 43.8617 93.615C44.1513 94.2181 44.6217 94.773 45.2731 95.2797M39.4916 92.7367L39.482 92.754C39.0735 93.4892 39.1002 94.2811 39.4455 95.0189M39.4916 92.7367L40.3152 94.6282M44.7218 93.2041C44.7223 93.2051 44.7227 93.206 44.7232 93.2069L43.8618 93.6149L44.721 93.2025C44.7213 93.203 44.7216 93.2036 44.7218 93.2041ZM44.7218 93.2041C44.9336 93.6446 45.2945 94.0875 45.8517 94.5221M45.8517 94.5221C45.8495 94.5205 45.8473 94.5188 45.845 94.5171L45.2731 95.2797M45.8517 94.5221C45.8539 94.5238 45.8561 94.5256 45.8583 94.5273L45.2731 95.2797M45.8517 94.5221C46.4312 94.9555 47.1422 95.3202 47.9992 95.6058C48.8385 95.8856 49.7256 96.0274 50.6653 96.0274C51.7231 96.0274 52.6696 95.8623 53.5153 95.5452L53.5225 95.5425L53.5225 95.5426C54.3854 95.2268 55.0401 94.7905 55.5224 94.2524M45.2731 95.2797C45.9487 95.7863 46.7569 96.1964 47.6978 96.5101C48.6387 96.8237 49.6279 96.9805 50.6653 96.9805C51.8234 96.9805 52.8849 96.7996 53.85 96.4377C54.8391 96.0758 55.6353 95.5571 56.2384 94.8816M55.5224 94.2524C55.5205 94.2547 55.5185 94.2569 55.5165 94.2592L56.2384 94.8816M55.5224 94.2524C55.5241 94.2505 55.5258 94.2486 55.5274 94.2467L56.2384 94.8816M55.5224 94.2524C55.9577 93.7442 56.19 93.1172 56.19 92.3121C56.19 91.3178 55.8074 90.4063 54.9492 89.5482L54.9411 89.54L54.9412 89.54C54.1791 88.7593 52.8034 88.1725 50.6056 87.9407M56.2384 94.8816C56.8416 94.1819 57.1432 93.3254 57.1432 92.3121C57.1432 91.0335 56.6365 89.8875 55.6232 88.8742C54.6341 87.8609 52.9935 87.2336 50.7015 86.9923M50.6056 87.9407C50.6069 87.9408 50.6083 87.9409 50.6097 87.9411L50.7015 86.9923M50.6056 87.9407C50.6043 87.9405 50.603 87.9404 50.6017 87.9403L50.7015 86.9923M50.6056 87.9407C47.4841 87.638 44.9267 86.7087 43.0234 85.0735C41.1094 83.429 40.122 81.3477 40.122 78.8859C40.122 77.1035 40.6265 75.5345 41.6714 74.2353C42.6845 72.9759 44.0385 72.0393 45.6938 71.4088L45.6984 71.407L45.6984 71.407C47.3635 70.7826 49.1918 70.4778 51.172 70.4778C52.7279 70.4778 54.1246 70.6941 55.3417 71.1533M50.7015 86.9923C47.7099 86.7028 45.3576 85.8222 43.6446 84.3505C41.9316 82.8788 41.0752 81.0573 41.0752 78.8859C41.0752 77.2936 41.5215 75.9426 42.4142 74.8328C43.3068 73.723 44.5131 72.8785 46.0331 72.2995C47.5772 71.7205 49.2901 71.431 51.172 71.431C52.6437 71.431 53.9223 71.636 55.008 72.0462M55.3417 71.1533C55.3406 71.1529 55.3395 71.1525 55.3384 71.1521L55.008 72.0462M55.3417 71.1533C55.3428 71.1537 55.3438 71.1541 55.3449 71.1545L55.008 72.0462M55.3417 71.1533C56.5514 71.6008 57.6192 72.2254 58.5338 73.0324C59.4278 73.8211 60.1985 74.7499 60.8475 75.8127M55.008 72.0462C56.1178 72.4563 57.0829 73.0233 57.9031 73.7471C58.7234 74.4709 59.4352 75.3273 60.0383 76.3165M60.0383 76.3165L60.8425 75.8048C60.8442 75.8074 60.8458 75.8101 60.8475 75.8127M60.0383 76.3165C60.3761 76.8473 60.5088 77.3539 60.4364 77.8365M60.0383 76.3165L60.8521 75.8203C60.8506 75.8178 60.8491 75.8153 60.8475 75.8127M60.8475 75.8127C61.2651 76.4719 61.4899 77.1986 61.382 77.9573M60.4364 77.8365L61.3843 77.9362C61.3836 77.9433 61.3828 77.9503 61.382 77.9573M60.4364 77.8365C60.3881 78.2949 60.1589 78.6567 59.7488 78.9221C59.2904 79.2116 58.7958 79.272 58.265 79.1031C57.7343 78.9342 57.3362 78.6206 57.0708 78.1622C56.6848 77.4625 56.2143 76.8714 55.6594 76.3889C55.1045 75.9064 54.4531 75.5324 53.7052 75.267C52.9573 74.9775 52.0767 74.8328 51.0634 74.8328C49.2781 74.8086 47.7822 75.1464 46.5759 75.8461C45.3696 76.5216 44.7665 77.5711 44.7665 78.9945C44.7665 79.7183 44.9474 80.418 45.3093 81.0935M60.4364 77.8365L61.379 77.9779C61.3801 77.971 61.3811 77.9641 61.382 77.9573M61.382 77.9573C61.2965 78.7115 60.8961 79.3151 60.2666 79.7224L60.2578 79.7281L60.2578 79.728C59.5541 80.1724 58.7664 80.2629 57.976 80.0114C57.232 79.7747 56.6367 79.3147 56.2459 78.6397L56.241 78.6312L56.2362 78.6226C55.8995 78.0123 55.4975 77.5112 55.034 77.1082C54.5761 76.71 54.0308 76.394 53.3865 76.1653L53.3737 76.1608L53.3611 76.1559C52.7476 75.9184 51.9887 75.7859 51.0634 75.7859H51.0505V75.7858C49.39 75.7634 48.0751 76.0785 47.0542 76.6706L47.0479 76.6742L47.0417 76.6777C46.567 76.9435 46.2494 77.2596 46.0452 77.6148C45.8403 77.9714 45.7196 78.4199 45.7196 78.9945C45.7196 79.5455 45.8541 80.0851 46.1393 80.6243M46.1393 80.6243C46.136 80.6187 46.1326 80.6131 46.1293 80.6076L45.3093 81.0935M46.1393 80.6243C46.1427 80.6306 46.1461 80.637 46.1495 80.6434L45.3093 81.0935M46.1393 80.6243C46.3992 81.0526 46.9061 81.5059 47.7858 81.9357M45.3093 81.0935C45.6953 81.7449 46.3829 82.3119 47.3721 82.7944M47.3721 82.7944L47.7819 81.9338C47.7832 81.9344 47.7845 81.935 47.7858 81.9357M47.3721 82.7944C48.3854 83.2769 49.833 83.6147 51.7148 83.8077M47.3721 82.7944L47.79 81.9377C47.7886 81.937 47.7872 81.9363 47.7858 81.9357M47.7858 81.9357C48.6559 82.3491 49.9774 82.6713 51.8115 82.8594M51.7148 83.8077L51.8104 82.8593C51.8108 82.8593 51.8111 82.8594 51.8115 82.8594M51.7148 83.8077C54.5858 84.0972 56.8175 84.9778 58.4098 86.4495M51.7148 83.8077L51.812 82.8595C51.8119 82.8595 51.8117 82.8594 51.8115 82.8594M51.8115 82.8594C54.8171 83.1627 57.2643 84.0956 59.0513 85.7444M58.4098 86.4495L59.0457 85.7394C59.0475 85.7411 59.0494 85.7428 59.0513 85.7444M58.4098 86.4495C60.0262 87.8971 60.8345 89.8151 60.8345 92.2036C60.8345 93.5788 60.545 94.773 59.9659 95.7863M58.4098 86.4495L59.0568 85.7495C59.0549 85.7478 59.0531 85.7461 59.0513 85.7444M59.0513 85.7444C60.8875 87.3916 61.7876 89.5772 61.7876 92.2036C61.7876 93.7117 61.4698 95.0723 60.7978 96.2517M59.9659 95.7863L60.802 96.2441C60.8006 96.2466 60.7992 96.2492 60.7978 96.2517M59.9659 95.7863C59.411 96.7996 58.6511 97.6561 57.686 98.3557C56.7451 99.0313 55.6594 99.5379 54.429 99.8757M59.9659 95.7863L60.7935 96.2592C60.795 96.2567 60.7964 96.2542 60.7978 96.2517M60.7978 96.2517C60.1733 97.3895 59.3187 98.3493 58.2455 99.1274L58.2419 99.13C57.201 99.8773 56.0113 100.429 54.684 100.794M54.684 100.794C54.6847 100.794 54.6853 100.794 54.686 100.794L54.429 99.8757M54.684 100.794C54.6831 100.794 54.6822 100.795 54.6813 100.795L54.429 99.8757M54.684 100.794C53.3914 101.156 52.0508 101.336 50.6653 101.336C49.0201 101.336 47.4431 101.078 45.9395 100.56C44.4406 100.043 43.1178 99.3127 41.9832 98.3628C40.8471 97.4116 39.9929 96.2971 39.4455 95.0189M54.429 99.8757C53.2227 100.213 51.9681 100.382 50.6653 100.382C49.1212 100.382 47.6495 100.141 46.2502 99.6585C44.8509 99.176 43.6325 98.5005 42.5951 97.632C41.5577 96.7634 40.7977 95.7622 40.3152 94.6282M40.3152 94.6282L39.4546 95.0381C39.4516 95.0317 39.4485 95.0253 39.4455 95.0189M40.3152 94.6282L39.4381 95.0015C39.4406 95.0073 39.4431 95.0131 39.4455 95.0189M20.7336 100.123L20.7426 100.128L20.7517 100.133C22.2345 100.942 23.9025 101.336 25.7318 101.336C27.5823 101.336 29.254 100.943 30.7183 100.13L30.7184 100.13L30.73 100.123C32.1793 99.2913 33.3262 98.1444 34.1582 96.6951L34.1582 96.6951L34.1619 96.6886C34.9988 95.2037 35.4066 93.5315 35.4066 91.6969V73.6385C35.4066 72.8602 35.144 72.1534 34.573 71.614C34.0182 71.0653 33.3142 70.8035 32.5354 70.8035C31.7623 70.8035 31.0703 71.0776 30.5224 71.6255L31.1964 72.2995L30.5224 71.6255C29.9769 72.171 29.7365 72.875 29.7365 73.6385V91.6969C29.7365 92.5981 29.549 93.3538 29.2015 93.9909L29.1961 94.0008L29.191 94.0108C28.8607 94.6519 28.4042 95.1458 27.8129 95.5105C27.2288 95.8472 26.5441 96.0274 25.7318 96.0274C24.9223 96.0274 24.2395 95.8485 23.6568 95.514C23.0879 95.15 22.625 94.6526 22.2675 94.0008C21.9404 93.3616 21.7632 92.6019 21.7632 91.6969C21.7632 90.924 21.5043 90.2216 20.9415 89.6837C20.4035 89.1208 19.7012 88.8619 18.9282 88.8619C18.1605 88.8619 17.4728 89.1322 16.9268 89.6725C16.3557 90.2118 16.0932 90.9186 16.0932 91.6969C16.0932 93.5262 16.4865 95.1942 17.2953 96.677L17.3002 96.6861L17.3054 96.6951C18.1374 98.1444 19.2843 99.2913 20.7336 100.123Z" stroke="#FFFBEB" stroke-width="1.90635"/>
</g>
<g filter="url(#filter1_f_1212_1450)">
<rect x="9.10742" y="9.10718" width="97.7856" height="97.7856" rx="12" stroke="url(#paint1_linear_1212_1450)" stroke-opacity="0.5" stroke-width="2" stroke-linecap="round" stroke-linejoin="round" stroke-dasharray="6 6"/>
</g>
<defs>
<filter id="filter0_d_1212_1450" x="10.1401" y="66.5246" width="57.6006" height="42.7641" filterUnits="userSpaceOnUse" color-interpolation-filters="sRGB">
<feFlood flood-opacity="0" result="BackgroundImageFix"/>
<feColorMatrix in="SourceAlpha" type="matrix" values="0 0 0 0 0 0 0 0 0 0 0 0 0 0 0 0 0 0 127 0" result="hardAlpha"/>
<feOffset dy="2"/>
<feGaussianBlur stdDeviation="2.5"/>
<feComposite in2="hardAlpha" operator="out"/>
<feColorMatrix type="matrix" values="0 0 0 0 0 0 0 0 0 0 0 0 0 0 0 0 0 0 0.08 0"/>
<feBlend mode="normal" in2="BackgroundImageFix" result="effect1_dropShadow_1212_1450"/>
<feBlend mode="normal" in="SourceGraphic" in2="effect1_dropShadow_1212_1450" result="shape"/>
</filter>
<filter id="filter1_f_1212_1450" x="6.10742" y="6.10718" width="103.786" height="103.786" filterUnits="userSpaceOnUse" color-interpolation-filters="sRGB">
<feFlood flood-opacity="0" result="BackgroundImageFix"/>
<feBlend mode="normal" in="SourceGraphic" in2="BackgroundImageFix" result="shape"/>
<feGaussianBlur stdDeviation="1" result="effect1_foregroundBlur_1212_1450"/>
</filter>
<linearGradient id="paint0_linear_1212_1450" x1="58" y1="0" x2="58" y2="116" gradientUnits="userSpaceOnUse">
<stop stop-color="#FBBF24"/>
<stop offset="1" stop-color="#EF9C1F"/>
</linearGradient>
<linearGradient id="paint1_linear_1212_1450" x1="58.0002" y1="9.10718" x2="34.0863" y2="65.4315" gradientUnits="userSpaceOnUse">
<stop stop-color="white"/>
<stop offset="1" stop-color="white" stop-opacity="0"/>
</linearGradient>
</defs>
</svg>
