<svg width="24" height="24" viewBox="0 0 24 24" fill="none" xmlns="http://www.w3.org/2000/svg">
  <path d="M12 6.99988C12.3956 6.99988 12.7822 6.88258 13.1111 6.66282C13.44 6.44306 13.6964 6.1307 13.8478 5.76525C13.9991 5.39979 14.0387 4.99766 13.9616 4.6097C13.8844 4.22174 13.6939 3.86537 13.4142 3.58567C13.1345 3.30596 12.7781 3.11548 12.3902 3.03831C12.0022 2.96114 11.6001 3.00074 11.2346 3.15212C10.8692 3.3035 10.5568 3.55984 10.3371 3.88874C10.1173 4.21764 10 4.60432 10 4.99988C10 5.53031 10.2107 6.03902 10.5858 6.41409C10.9609 6.78917 11.4696 6.99988 12 6.99988ZM12 16.9999C11.6044 16.9999 11.2178 17.1172 10.8889 17.3369C10.56 17.5567 10.3036 17.8691 10.1522 18.2345C10.0009 18.6 9.96126 19.0021 10.0384 19.3901C10.1156 19.778 10.3061 20.1344 10.5858 20.4141C10.8655 20.6938 11.2219 20.8843 11.6098 20.9614C11.9978 21.0386 12.3999 20.999 12.7654 20.8476C13.1308 20.6963 13.4432 20.4399 13.6629 20.111C13.8827 19.7821 14 19.3954 14 18.9999C14 18.4694 13.7893 17.9607 13.4142 17.5857C13.0391 17.2106 12.5304 16.9999 12 16.9999ZM12 9.99988C11.6044 9.99988 11.2178 10.1172 10.8889 10.3369C10.56 10.5567 10.3036 10.8691 10.1522 11.2345C10.0009 11.6 9.96126 12.0021 10.0384 12.3901C10.1156 12.778 10.3061 13.1344 10.5858 13.4141C10.8655 13.6938 11.2219 13.8843 11.6098 13.9614C11.9978 14.0386 12.3999 13.999 12.7654 13.8476C13.1308 13.6963 13.4432 13.4399 13.6629 13.111C13.8827 12.7821 14 12.3954 14 11.9999C14 11.4694 13.7893 10.9607 13.4142 10.5857C13.0391 10.2106 12.5304 9.99988 12 9.99988Z" fill="white"/>
</svg>
