<svg width="116" height="116" viewBox="0 0 116 116" fill="none" xmlns="http://www.w3.org/2000/svg">
<rect width="116" height="116" fill="url(#paint0_linear_1213_1522)"/>
<path d="M60.2338 31.8977C58.8816 31.1372 57.1187 31.1406 55.7653 31.8977C48.9869 35.6384 42.2085 39.3803 35.4289 43.1194C34.1096 43.8134 33.2199 45.2301 33.2341 46.7005V69.3025C33.2245 70.8016 34.1602 72.232 35.5134 72.9165C37.4608 73.9525 39.3527 75.0937 41.3352 76.0607C43.6253 77.186 46.4904 77.4349 48.8084 76.2613C50.69 75.2886 51.5258 73.1255 51.5234 71.1375C51.5386 63.6783 51.5258 56.2188 51.5293 48.7596C51.574 48.428 51.3252 48.0737 50.9636 48.0817C50.0973 48.068 49.2299 48.0737 48.3636 48.0794C48.0362 48.0485 47.7168 48.3203 47.7415 48.6494C47.7299 56.0606 47.7439 63.474 47.7345 70.8864C47.7534 71.9117 47.0607 72.8971 46.0726 73.2435C43.7904 74.0434 37.2765 69.8139 37.2765 69.8139C37.0374 69.7032 36.8856 69.4439 36.909 69.1864C36.909 61.7294 36.9102 54.2723 36.909 46.8164C36.8762 46.5159 37.0615 46.2451 37.3375 46.1224C44.0936 42.4037 50.8461 38.6757 57.6022 34.9547C57.8368 34.7981 58.164 34.7986 58.3981 34.9558C65.1542 38.6757 71.9079 42.4003 78.6651 46.1192C78.9422 46.2417 79.1195 46.517 79.0913 46.8164C79.0901 54.2723 79.0936 61.7294 79.0889 69.1853C79.109 69.4492 78.9727 69.7049 78.7262 69.8208C72.0332 73.5193 65.264 77.0985 58.6316 80.9045C58.3423 81.0705 58.0145 81.2586 57.6903 81.0757C55.9461 80.1109 54.2231 79.1086 52.4848 78.1346C52.2958 78.0166 52.0551 77.966 51.858 78.0979C51.0785 78.5086 50.3455 78.8413 49.4505 79.1956C48.1934 79.6932 48.3943 79.8968 49.5279 80.5572C51.561 81.7077 53.5973 82.8537 55.6302 84.0054C56.9685 84.8405 58.7667 84.9 60.1481 84.1281C66.9277 80.3921 73.705 76.6516 80.4857 72.9156C81.8355 72.2273 82.7758 70.8026 82.7663 69.3023V46.7005C82.7793 45.2599 81.9235 43.8685 80.6442 43.1642C73.8422 39.4052 67.037 35.6544 60.2338 31.8977Z" fill="white"/>
<path d="M70.463 48.8674C67.8022 47.4439 64.6367 47.3681 61.6799 47.5541C59.5437 47.7651 57.297 48.3546 55.7406 49.8859C54.1444 51.4253 53.797 53.911 54.5552 55.9206C55.0985 57.3405 56.4661 58.264 57.8804 58.7525C59.7024 59.3956 61.6158 59.5945 63.5299 59.7934C65.2757 59.9748 67.0221 60.1563 68.7002 60.6751C69.3856 60.9023 70.1838 61.2498 70.3938 61.9954C70.5876 62.8787 70.3751 63.9053 69.658 64.5189C67.3802 66.3218 61.0443 66.0456 58.7937 64.6267C57.8839 64.0221 57.4918 62.952 57.3324 61.9324C57.3147 61.6145 57.0589 61.3231 56.7138 61.3472C55.8499 61.337 54.986 61.3392 54.122 61.3461C53.8205 61.3208 53.5071 61.5353 53.4906 61.8429C53.3131 66.5136 57.6027 68.5497 61.6272 68.9981C63.9266 69.2172 66.2763 69.2046 68.5406 68.7112C70.2426 68.3237 71.949 67.6101 73.1207 66.2991C74.5655 64.7059 74.8495 62.3338 74.2016 60.3493C73.7062 58.8685 72.2906 57.9186 70.8435 57.43C68.8756 56.7552 66.5433 56.3925 64.761 56.2228C62.1702 55.976 59.0915 56.0768 58.3583 54.3744C58.0659 53.483 58.3147 52.3762 59.1339 51.8279C61.3014 50.3576 65.7125 50.5529 67.9571 51.6512C68.9879 52.1674 69.5851 53.2273 69.8316 54.2974C69.8773 54.6118 70.0888 54.9397 70.4527 54.9261C71.3106 54.9432 72.1687 54.9306 73.0266 54.9318C73.3213 54.9525 73.644 54.7861 73.7016 54.4844C73.6652 52.2477 72.5231 49.9583 70.463 48.8674Z" fill="white"/>
<defs>
<linearGradient id="paint0_linear_1213_1522" x1="48.9263" y1="-1.74283e-07" x2="58" y2="108.453" gradientUnits="userSpaceOnUse">
<stop stop-color="#7FE300"/>
<stop offset="1" stop-color="#1DC155"/>
</linearGradient>
</defs>
</svg>
