<svg width="48" height="41" viewBox="0 0 48 41" fill="none" xmlns="http://www.w3.org/2000/svg">
  <path d="M9.42023 11.3634L9.83827 11.5484C6.94796 13.1855 4.92753 15.7282 3.77697 19.1764C2.47567 22.6828 2.47575 26.1194 3.77723 29.486L4.00335 29.3986C4.24062 27.9207 4.80515 26.6917 5.69693 25.7116C6.65838 24.7623 7.8677 24.006 9.3249 23.4427C11.5358 22.588 13.6515 22.6076 15.672 23.5015C17.6115 24.4844 19.0474 26.1819 19.9798 28.5938C20.9705 31.1564 20.959 33.4423 19.9452 35.4514C18.6493 37.6273 16.7703 39.1912 14.3082 40.143C11.243 41.328 8.67275 41.2531 6.59733 39.9184C4.28206 38.5609 2.57081 36.4501 1.46358 33.5859C0.725432 31.6765 0.336687 29.401 0.297349 26.7593C0.332342 24.6088 0.781359 22.5581 1.6444 20.6072C2.47999 18.436 3.49611 16.657 4.69275 15.2703C6.05153 13.7053 7.62736 12.4031 9.42023 11.3634Z" fill="white" fill-opacity="0.24"/>
  <path d="M36.4034 0.932157L36.8215 1.11709C33.9312 2.75426 31.9107 5.29693 30.7602 8.7451C29.4589 12.2516 29.4589 15.6881 30.7604 19.0547L30.9865 18.9673C31.2238 17.4894 31.7883 16.2604 32.6801 15.2803C33.6416 14.3311 34.8509 13.5748 36.3081 13.0114C38.519 12.1567 40.6347 12.1763 42.6552 13.0702C44.5947 14.0531 46.0306 15.7506 46.963 18.1625C47.9537 20.7251 47.9421 23.011 46.9284 25.0201C45.6325 27.1961 43.7535 28.7599 41.2914 29.7118C38.2262 30.8967 35.6559 30.8218 33.5805 29.4871C31.2653 28.1296 29.554 26.0188 28.4468 23.1547C27.7086 21.2452 27.3199 18.9697 27.2805 16.3281C27.3155 14.1775 27.7645 12.1268 28.6276 10.176C29.4632 8.00471 30.4793 6.22572 31.6759 4.83899C33.0347 3.27408 34.6105 1.9718 36.4034 0.932157Z" fill="white" fill-opacity="0.24"/>
</svg>
