<svg width="116" height="116" viewBox="0 0 116 116" fill="none" xmlns="http://www.w3.org/2000/svg">
<rect width="116" height="116" rx="16" fill="url(#paint0_linear_1212_1483)"/>
<g filter="url(#filter0_f_1212_1483)">
<rect x="9.10742" y="9.10718" width="97.7856" height="97.7856" rx="12" stroke="url(#paint1_linear_1212_1483)" stroke-opacity="0.5" stroke-width="2" stroke-linecap="round" stroke-linejoin="round" stroke-dasharray="6 6"/>
</g>
<g filter="url(#filter1_d_1212_1483)">
<path d="M26.3373 100.182C25.1028 100.182 23.9552 100.009 22.8943 99.6614C21.8527 99.2949 20.9461 98.7837 20.1745 98.1279C19.403 97.4721 18.8147 96.7102 18.4096 95.8422C18.2553 95.5335 18.2456 95.2538 18.3807 95.0031C18.535 94.733 18.7857 94.5498 19.1329 94.4534C19.403 94.3762 19.6634 94.4051 19.9141 94.5402C20.1842 94.6752 20.3867 94.8777 20.5217 95.1478C20.8111 95.7071 21.2354 96.2086 21.7948 96.6523C22.3542 97.0959 23.0196 97.4431 23.7912 97.6939C24.5628 97.9254 25.4115 98.0411 26.3373 98.0411C27.3596 98.0411 28.2662 97.8771 29.0571 97.5492C29.8479 97.202 30.4652 96.7102 30.9088 96.0736C31.3717 95.4178 31.6032 94.627 31.6032 93.7011C31.6032 92.5245 31.1692 91.5118 30.3012 90.6631C29.4332 89.8144 28.0733 89.2743 26.2216 89.0428C23.9648 88.7728 22.1999 88.0784 20.9268 86.9596C19.6537 85.8216 19.0172 84.4328 19.0172 82.7932C19.0172 81.6166 19.3258 80.5943 19.9431 79.7263C20.5796 78.8583 21.4476 78.1928 22.5471 77.7299C23.6465 77.2477 24.91 77.0066 26.3373 77.0066C27.3982 77.0066 28.3627 77.1802 29.2307 77.5274C30.0987 77.8553 30.8509 78.2989 31.4875 78.8583C32.1433 79.3984 32.6737 79.9963 33.0788 80.6522C33.2717 80.9608 33.3296 81.2598 33.2524 81.5491C33.1945 81.8384 33.0306 82.0603 32.7605 82.2146C32.4712 82.3496 32.1722 82.3689 31.8636 82.2724C31.5743 82.176 31.3524 81.9927 31.1981 81.7227C30.9088 81.2791 30.5423 80.8643 30.0987 80.4786C29.6743 80.0735 29.1535 79.7552 28.5363 79.5238C27.919 79.2923 27.1764 79.1669 26.3084 79.1476C24.7846 79.1476 23.5597 79.4755 22.6339 80.1314C21.708 80.7679 21.2451 81.7034 21.2451 82.9379C21.2451 83.5937 21.4187 84.2013 21.7659 84.7607C22.1131 85.3008 22.6821 85.7734 23.4729 86.1784C24.2831 86.5642 25.3632 86.8535 26.7135 87.0464C29.1246 87.3936 30.9088 88.1362 32.0661 89.2743C33.2428 90.393 33.8311 91.859 33.8311 93.6722C33.8311 94.7138 33.6382 95.6396 33.2524 96.4498C32.8859 97.2599 32.3555 97.9446 31.6611 98.504C30.986 99.0441 30.1855 99.4588 29.2596 99.7482C28.353 100.037 27.3789 100.182 26.3373 100.182ZM38.7529 99.8928C38.3092 99.8928 37.991 99.7096 37.7981 99.3431C37.6052 98.9766 37.5859 98.6198 37.7402 98.2726L46.2466 78.0771C46.4588 77.5563 46.8253 77.2959 47.3461 77.2959C47.8476 77.2959 48.2044 77.5563 48.4166 78.0771L56.952 98.3015C57.1256 98.668 57.0966 99.0248 56.8652 99.372C56.653 99.7192 56.3444 99.8928 55.9393 99.8928C55.7078 99.8928 55.4956 99.835 55.3028 99.7192C55.1292 99.6035 54.9845 99.4299 54.8688 99.1984L46.9121 79.8999H47.809L39.7945 99.1984C39.698 99.4299 39.5534 99.6035 39.3605 99.7192C39.1869 99.835 38.9844 99.8928 38.7529 99.8928ZM40.6625 94.5112L41.5305 92.5727H53.2774L54.1454 94.5112H40.6625ZM68.7314 100.182C67.4969 100.182 66.3493 100.009 65.2884 99.6614C64.2468 99.2949 63.3402 98.7837 62.5686 98.1279C61.7971 97.4721 61.2088 96.7102 60.8037 95.8422C60.6494 95.5335 60.6397 95.2538 60.7748 95.0031C60.9291 94.733 61.1798 94.5498 61.527 94.4534C61.7971 94.3762 62.0575 94.4051 62.3082 94.5402C62.5783 94.6752 62.7808 94.8777 62.9158 95.1478C63.2052 95.7071 63.6295 96.2086 64.1889 96.6523C64.7483 97.0959 65.4137 97.4431 66.1853 97.6939C66.9569 97.9254 67.8056 98.0411 68.7314 98.0411C69.7537 98.0411 70.6603 97.8771 71.4512 97.5492C72.242 97.202 72.8593 96.7102 73.3029 96.0736C73.7658 95.4178 73.9973 94.627 73.9973 93.7011C73.9973 92.5245 73.5633 91.5118 72.6953 90.6631C71.8273 89.8144 70.4674 89.2743 68.6157 89.0428C66.3589 88.7728 64.594 88.0784 63.3209 86.9596C62.0478 85.8216 61.4113 84.4328 61.4113 82.7932C61.4113 81.6166 61.7199 80.5943 62.3372 79.7263C62.9737 78.8583 63.8417 78.1928 64.9412 77.7299C66.0406 77.2477 67.3041 77.0066 68.7314 77.0066C69.7923 77.0066 70.7568 77.1802 71.6248 77.5274C72.4928 77.8553 73.245 78.2989 73.8816 78.8583C74.5374 79.3984 75.0678 79.9963 75.4729 80.6522C75.6658 80.9608 75.7237 81.2598 75.6465 81.5491C75.5886 81.8384 75.4247 82.0603 75.1546 82.2146C74.8653 82.3496 74.5663 82.3689 74.2577 82.2724C73.9684 82.176 73.7465 81.9927 73.5922 81.7227C73.3029 81.2791 72.9364 80.8643 72.4928 80.4786C72.0684 80.0735 71.5476 79.7552 70.9304 79.5238C70.3131 79.2923 69.5705 79.1669 68.7025 79.1476C67.1787 79.1476 65.9538 79.4755 65.028 80.1314C64.1021 80.7679 63.6392 81.7034 63.6392 82.9379C63.6392 83.5937 63.8128 84.2013 64.16 84.7607C64.5072 85.3008 65.0762 85.7734 65.867 86.1784C66.6772 86.5642 67.7573 86.8535 69.1076 87.0464C71.5187 87.3936 73.3029 88.1362 74.4602 89.2743C75.6369 90.393 76.2252 91.859 76.2252 93.6722C76.2252 94.7138 76.0323 95.6396 75.6465 96.4498C75.28 97.2599 74.7496 97.9446 74.0552 98.504C73.3801 99.0441 72.5796 99.4588 71.6537 99.7482C70.7471 100.037 69.773 100.182 68.7314 100.182ZM89.3351 100.182C88.1006 100.182 86.9529 100.009 85.8921 99.6614C84.8505 99.2949 83.9439 98.7837 83.1723 98.1279C82.4008 97.4721 81.8125 96.7102 81.4074 95.8422C81.2531 95.5335 81.2434 95.2538 81.3785 95.0031C81.5328 94.733 81.7835 94.5498 82.1307 94.4534C82.4008 94.3762 82.6612 94.4051 82.9119 94.5402C83.182 94.6752 83.3845 94.8777 83.5195 95.1478C83.8089 95.7071 84.2332 96.2086 84.7926 96.6523C85.352 97.0959 86.0174 97.4431 86.789 97.6939C87.5605 97.9254 88.4093 98.0411 89.3351 98.0411C90.3574 98.0411 91.264 97.8771 92.0549 97.5492C92.8457 97.202 93.4629 96.7102 93.9066 96.0736C94.3695 95.4178 94.601 94.627 94.601 93.7011C94.601 92.5245 94.167 91.5118 93.299 90.6631C92.431 89.8144 91.0711 89.2743 89.2194 89.0428C86.9626 88.7728 85.1977 88.0784 83.9246 86.9596C82.6515 85.8216 82.015 84.4328 82.015 82.7932C82.015 81.6166 82.3236 80.5943 82.9409 79.7263C83.5774 78.8583 84.4454 78.1928 85.5449 77.7299C86.6443 77.2477 87.9077 77.0066 89.3351 77.0066C90.396 77.0066 91.3605 77.1802 92.2285 77.5274C93.0965 77.8553 93.8487 78.2989 94.4853 78.8583C95.1411 79.3984 95.6715 79.9963 96.0766 80.6522C96.2695 80.9608 96.3273 81.2598 96.2502 81.5491C96.1923 81.8384 96.0284 82.0603 95.7583 82.2146C95.469 82.3496 95.17 82.3689 94.8614 82.2724C94.5721 82.176 94.3502 81.9927 94.1959 81.7227C93.9066 81.2791 93.5401 80.8643 93.0965 80.4786C92.6721 80.0735 92.1513 79.7552 91.5341 79.5238C90.9168 79.2923 90.1742 79.1669 89.3062 79.1476C87.7824 79.1476 86.5575 79.4755 85.6317 80.1314C84.7058 80.7679 84.2429 81.7034 84.2429 82.9379C84.2429 83.5937 84.4165 84.2013 84.7637 84.7607C85.1109 85.3008 85.6799 85.7734 86.4707 86.1784C87.2809 86.5642 88.361 86.8535 89.7113 87.0464C92.1224 87.3936 93.9066 88.1362 95.0639 89.2743C96.2405 90.393 96.8289 91.859 96.8289 93.6722C96.8289 94.7138 96.636 95.6396 96.2502 96.4498C95.8837 97.2599 95.3533 97.9446 94.6589 98.504C93.9837 99.0441 93.1833 99.4588 92.2574 99.7482C91.3508 100.037 90.3767 100.182 89.3351 100.182Z" fill="#FFFBEB"/>
<path d="M22.8943 99.6614L22.2615 101.46L22.2814 101.467L22.3013 101.473L22.8943 99.6614ZM20.1745 98.1279L18.9399 99.5804L18.9399 99.5804L20.1745 98.1279ZM18.4096 95.8422L20.1371 95.036L20.1262 95.0126L20.1147 94.9896L18.4096 95.8422ZM18.3807 95.0031L16.7255 94.0573L16.7136 94.0781L16.7022 94.0993L18.3807 95.0031ZM19.1329 94.4534L19.6432 96.2902L19.6566 96.2864L19.1329 94.4534ZM19.9141 94.5402L19.0103 96.2186L19.0358 96.2323L19.0616 96.2452L19.9141 94.5402ZM20.5217 95.1478L18.8166 96.0003L18.8225 96.012L18.8285 96.0236L20.5217 95.1478ZM23.7912 97.6939L23.202 99.5069L23.2226 99.5136L23.2434 99.5198L23.7912 97.6939ZM29.0571 97.5492L29.7872 99.3102L29.8054 99.3027L29.8234 99.2948L29.0571 97.5492ZM30.9088 96.0736L29.3513 94.9742L29.3448 94.9836L30.9088 96.0736ZM30.3012 90.6631L31.634 89.3L31.634 89.3L30.3012 90.6631ZM26.2216 89.0428L26.4581 87.1512L26.4481 87.15L26.2216 89.0428ZM20.9268 86.9596L19.6563 88.3809L19.6623 88.3863L19.6684 88.3916L20.9268 86.9596ZM19.9431 79.7263L18.4058 78.599L18.3975 78.6102L18.3895 78.6215L19.9431 79.7263ZM22.5471 77.7299L23.2868 79.4869L23.2998 79.4814L23.3128 79.4757L22.5471 77.7299ZM29.2307 77.5274L28.5227 79.2974L28.5397 79.3042L28.557 79.3107L29.2307 77.5274ZM31.4875 78.8583L30.2291 80.2903L30.252 80.3104L30.2756 80.3299L31.4875 78.8583ZM33.0788 80.6522L31.4569 81.6539L31.4622 81.6625L33.0788 80.6522ZM33.2524 81.5491L31.4104 81.0579L31.3949 81.1161L31.3831 81.1752L33.2524 81.5491ZM32.7605 82.2146L33.5667 83.9421L33.638 83.9088L33.7063 83.8697L32.7605 82.2146ZM31.8636 82.2724L31.2608 84.0809L31.2778 84.0866L31.295 84.092L31.8636 82.2724ZM31.1981 81.7227L32.8533 80.7769L32.8255 80.7282L32.7949 80.6813L31.1981 81.7227ZM30.0987 80.4786L28.7824 81.8575L28.8144 81.8881L28.8478 81.9171L30.0987 80.4786ZM28.5363 79.5238L29.2056 77.7388L29.2056 77.7388L28.5363 79.5238ZM26.3084 79.1476L26.3507 77.2418L26.3296 77.2413H26.3084V79.1476ZM22.6339 80.1314L23.7139 81.7023L23.7249 81.6947L23.7358 81.687L22.6339 80.1314ZM21.7659 84.7607L20.1462 85.766L20.1541 85.7789L20.1623 85.7916L21.7659 84.7607ZM23.4729 86.1784L22.6039 87.8752L22.6284 87.8877L22.6533 87.8996L23.4729 86.1784ZM26.7135 87.0464L26.9852 85.1595L26.9831 85.1592L26.7135 87.0464ZM32.0661 89.2743L30.7295 90.6336L30.7409 90.6448L30.7525 90.6558L32.0661 89.2743ZM33.2524 96.4498L31.5312 95.6302L31.5232 95.647L31.5155 95.664L33.2524 96.4498ZM31.6611 98.504L32.852 99.9926L32.857 99.9886L31.6611 98.504ZM29.2596 99.7482L28.691 97.9286L28.68 97.9321L29.2596 99.7482ZM26.3373 98.2758C25.2831 98.2758 24.3376 98.1279 23.4872 97.8496L22.3013 101.473C23.5727 101.889 24.9226 102.089 26.3373 102.089V98.2758ZM23.527 97.8631C22.6855 97.567 21.9875 97.167 21.4092 96.6754L18.9399 99.5804C19.9047 100.4 21.0198 101.023 22.2615 101.46L23.527 97.8631ZM21.4092 96.6754C20.8343 96.1867 20.4197 95.6415 20.1371 95.036L16.6821 96.6483C17.2097 97.7788 17.9717 98.7574 18.9399 99.5804L21.4092 96.6754ZM20.1147 94.9896C20.1321 95.0245 20.1853 95.1454 20.1918 95.3352C20.1989 95.5391 20.1488 95.7404 20.0592 95.9069L16.7022 94.0993C16.2089 95.0154 16.3393 95.9643 16.7045 96.6947L20.1147 94.9896ZM20.0358 95.9489C19.9801 96.0464 19.9008 96.1354 19.8092 96.2023C19.7222 96.2659 19.6558 96.2866 19.6432 96.2902L18.6227 92.6166C17.8743 92.8244 17.1688 93.2815 16.7255 94.0573L20.0358 95.9489ZM19.6566 96.2864C19.5706 96.3109 19.4538 96.3267 19.3202 96.3119C19.1873 96.2971 19.0812 96.2568 19.0103 96.2186L20.8179 92.8617C20.1365 92.4948 19.3645 92.4046 18.6092 92.6204L19.6566 96.2864ZM19.0616 96.2452C19.0233 96.2261 18.9719 96.1926 18.9206 96.1413C18.8693 96.09 18.8358 96.0386 18.8166 96.0003L22.2268 94.2952C21.9073 93.6562 21.4057 93.1546 20.7667 92.8351L19.0616 96.2452ZM18.8285 96.0236C19.2573 96.8526 19.8677 97.557 20.6102 98.1459L22.9794 95.1587C22.6031 94.8602 22.3648 94.5616 22.215 94.2719L18.8285 96.0236ZM20.6102 98.1459C21.3699 98.7485 22.2436 99.1954 23.202 99.5069L24.3804 95.8809C23.7956 95.6908 23.3384 95.4434 22.9794 95.1587L20.6102 98.1459ZM23.2434 99.5198C24.2169 99.8119 25.253 99.9474 26.3373 99.9474V96.1347C25.5699 96.1347 24.9086 96.0388 24.339 95.8679L23.2434 99.5198ZM26.3373 99.9474C27.5626 99.9474 28.7246 99.7508 29.7872 99.3102L28.3269 95.7882C27.8078 96.0035 27.1567 96.1347 26.3373 96.1347V99.9474ZM29.8234 99.2948C30.898 98.823 31.8065 98.1197 32.4728 97.1637L29.3448 94.9836C29.1238 95.3007 28.7979 95.581 28.2907 95.8037L29.8234 99.2948ZM32.4662 97.173C33.1897 96.148 33.5095 94.9582 33.5095 93.7011H29.6968C29.6968 94.2957 29.5538 94.6876 29.3514 94.9743L32.4662 97.173ZM33.5095 93.7011C33.5095 91.9935 32.8557 90.4946 31.634 89.3L28.9684 92.0261C29.4827 92.529 29.6968 93.0555 29.6968 93.7011H33.5095ZM31.634 89.3C30.3461 88.0408 28.5138 87.4082 26.4581 87.1512L25.9851 90.9345C27.6329 91.1404 28.5203 91.588 28.9684 92.0261L31.634 89.3ZM26.4481 87.15C24.4459 86.9104 23.0851 86.3184 22.1852 85.5276L19.6684 88.3916C21.3147 89.8383 23.4837 90.6352 25.9951 90.9357L26.4481 87.15ZM22.1973 85.5384C21.3097 84.7449 20.9235 83.8651 20.9235 82.7932H17.1109C17.1109 85.0005 17.9977 86.8982 19.6563 88.3809L22.1973 85.5384ZM20.9235 82.7932C20.9235 81.9691 21.1328 81.3427 21.4967 80.8311L18.3895 78.6215C17.5188 79.8459 17.1109 81.2641 17.1109 82.7932H20.9235ZM21.4804 80.8536C21.8913 80.2932 22.4699 79.8308 23.2868 79.4869L21.8073 75.9729C20.4253 76.5548 19.2679 77.4234 18.4058 78.599L21.4804 80.8536ZM23.3128 79.4757C24.1297 79.1174 25.1245 78.9129 26.3373 78.9129V75.1002C24.6954 75.1002 23.1634 75.3779 21.7814 75.9841L23.3128 79.4757ZM26.3373 78.9129C27.1882 78.9129 27.9081 79.0516 28.5227 79.2974L29.9387 75.7574C28.8172 75.3088 27.6083 75.1002 26.3373 75.1002V78.9129ZM28.557 79.3107C29.2309 79.5653 29.7803 79.896 30.2291 80.2903L32.7459 77.4263C31.9215 76.7019 30.9664 76.1453 29.9044 75.744L28.557 79.3107ZM30.2756 80.3299C30.7863 80.7504 31.1724 81.1934 31.4569 81.6539L34.7007 79.6504C34.175 78.7993 33.5003 78.0463 32.6993 77.3867L30.2756 80.3299ZM31.4622 81.6625C31.4582 81.6561 31.4186 81.5905 31.3952 81.4701C31.3704 81.3415 31.3734 81.1967 31.4104 81.0579L35.0944 82.0403C35.3362 81.1334 35.1031 80.2942 34.6954 79.6418L31.4622 81.6625ZM31.3831 81.1752C31.4052 81.0647 31.457 80.9292 31.553 80.7993C31.6473 80.6718 31.7492 80.5968 31.8147 80.5594L33.7063 83.8697C34.4256 83.4588 34.9493 82.7852 35.1217 81.923L31.3831 81.1752ZM31.9544 80.4871C32.0104 80.4609 32.0941 80.4345 32.1966 80.4279C32.2986 80.4213 32.3809 80.4368 32.4322 80.4529L31.295 84.092C32.0509 84.3282 32.8406 84.2809 33.5667 83.9421L31.9544 80.4871ZM32.4664 80.4639C32.5312 80.4855 32.6134 80.5261 32.6943 80.5929C32.7748 80.6594 32.8256 80.7283 32.8533 80.7769L29.543 82.6685C29.9249 83.3369 30.5168 83.833 31.2608 84.0809L32.4664 80.4639ZM32.7949 80.6813C32.3993 80.0747 31.9119 79.529 31.3496 79.04L28.8478 81.9171C29.1727 82.1997 29.4183 82.4834 29.6014 82.7641L32.7949 80.6813ZM31.415 79.0996C30.7829 78.4962 30.0339 78.0494 29.2056 77.7388L27.8669 81.3087C28.2731 81.4611 28.5658 81.6508 28.7824 81.8575L31.415 79.0996ZM29.2056 77.7388C28.3354 77.4125 27.3691 77.2644 26.3507 77.2418L26.266 81.0535C26.9837 81.0695 27.5026 81.1721 27.8669 81.3087L29.2056 77.7388ZM26.3084 77.2413C24.5231 77.2413 22.8739 77.6252 21.532 78.5757L23.7358 81.687C24.2456 81.3259 25.0461 81.054 26.3084 81.054V77.2413ZM21.5539 78.5605C20.0535 79.5919 19.3387 81.1484 19.3387 82.9379H23.1514C23.1514 82.2584 23.3625 81.9439 23.7139 81.7023L21.5539 78.5605ZM19.3387 82.9379C19.3387 83.9505 19.6124 84.906 20.1462 85.766L23.3856 83.7554C23.225 83.4966 23.1514 83.237 23.1514 82.9379H19.3387ZM20.1623 85.7916C20.748 86.7027 21.6234 87.373 22.6039 87.8752L24.342 84.4817C23.7407 84.1737 23.4781 83.8988 23.3694 83.7298L20.1623 85.7916ZM22.6533 87.8996C23.7028 88.3993 24.9913 88.7261 26.4439 88.9336L26.9831 85.1592C25.7352 84.981 24.8633 84.7291 24.2925 84.4573L22.6533 87.8996ZM26.4418 88.9333C28.6417 89.2501 29.9744 89.891 30.7295 90.6336L33.4027 87.915C31.8432 86.3815 29.6075 85.5372 26.9852 85.1595L26.4418 88.9333ZM30.7525 90.6558C31.5046 91.3709 31.9247 92.314 31.9247 93.6722H35.7374C35.7374 91.404 34.9809 89.4152 33.3797 87.8928L30.7525 90.6558ZM31.9247 93.6722C31.9247 94.4756 31.777 95.1141 31.5312 95.6302L34.9736 97.2694C35.4994 96.1651 35.7374 94.9519 35.7374 93.6722H31.9247ZM31.5155 95.664C31.2725 96.2012 30.9277 96.6469 30.4652 97.0194L32.857 99.9886C33.7833 99.2424 34.4993 98.3185 34.9893 97.2355L31.5155 95.664ZM30.4702 97.0154C30.0013 97.3905 29.4181 97.7014 28.691 97.9286L29.8282 101.568C30.9528 101.216 31.9706 100.698 32.8519 99.9926L30.4702 97.0154ZM28.68 97.9321C27.9776 98.1562 27.2007 98.2758 26.3373 98.2758V102.089C27.5571 102.089 28.7284 101.919 29.8392 101.564L28.68 97.9321ZM37.7981 99.3431L36.1111 100.231L36.1111 100.231L37.7981 99.3431ZM37.7402 98.2726L39.4823 99.0468L39.4898 99.0297L39.4971 99.0126L37.7402 98.2726ZM46.2466 78.0771L48.0035 78.8171L48.0078 78.8068L48.0121 78.7964L46.2466 78.0771ZM48.4166 78.0771L46.6512 78.7964L46.6557 78.8074L46.6603 78.8183L48.4166 78.0771ZM56.952 98.3015L55.1956 99.0427L55.2116 99.0805L55.2291 99.1176L56.952 98.3015ZM56.8652 99.372L55.279 98.3146L55.2581 98.3459L55.2385 98.378L56.8652 99.372ZM55.3028 99.7192L54.2453 101.305L54.283 101.331L54.3219 101.354L55.3028 99.7192ZM54.8688 99.1984L53.1063 99.9251L53.1327 99.9891L53.1637 100.051L54.8688 99.1984ZM46.9121 79.8999V77.9935H44.0641L45.1497 80.6265L46.9121 79.8999ZM47.809 79.8999L49.5696 80.631L50.6649 77.9935H47.809V79.8999ZM39.7945 99.1984L41.5542 99.9316L41.5551 99.9296L39.7945 99.1984ZM39.3605 99.7192L38.3797 98.0845L38.3408 98.1079L38.303 98.133L39.3605 99.7192ZM40.6625 94.5112L38.9226 93.7322L37.7202 96.4176H40.6625V94.5112ZM41.5305 92.5727V90.6663H40.2954L39.7906 91.7936L41.5305 92.5727ZM53.2774 92.5727L55.0173 91.7936L54.5126 90.6663H53.2774V92.5727ZM54.1454 94.5112V96.4176H57.0877L55.8853 93.7322L54.1454 94.5112ZM38.7529 97.9865C38.7956 97.9865 38.9478 97.9968 39.1327 98.1033C39.3248 98.2139 39.4356 98.3612 39.4851 98.4552L36.1111 100.231C36.3535 100.691 36.7198 101.114 37.2303 101.407C37.7334 101.697 38.2666 101.799 38.7529 101.799V97.9865ZM39.4851 98.4552C39.4963 98.4766 39.5352 98.5616 39.5425 98.6977C39.5502 98.8393 39.5196 98.9628 39.4823 99.0468L35.9982 97.4983C35.5834 98.4315 35.6745 99.4014 36.1111 100.231L39.4851 98.4552ZM39.4971 99.0126L48.0035 78.8171L44.4898 77.3371L35.9834 97.5326L39.4971 99.0126ZM48.0121 78.7964C48.0157 78.7875 47.9628 78.9187 47.7848 79.0452C47.5964 79.1791 47.4166 79.2022 47.3461 79.2022V75.3895C46.7547 75.3895 46.1313 75.5429 45.5765 75.9372C45.0319 76.3241 44.6897 76.8459 44.4812 77.3578L48.0121 78.7964ZM47.3461 79.2022C47.2499 79.2022 47.0572 79.1706 46.8661 79.0311C46.6902 78.9027 46.6426 78.7753 46.6512 78.7964L50.1821 77.3578C49.9785 76.8581 49.6464 76.3401 49.1136 75.9513C48.5657 75.5514 47.9438 75.3895 47.3461 75.3895V79.2022ZM46.6603 78.8183L55.1956 99.0427L58.7083 97.5603L50.173 77.3359L46.6603 78.8183ZM55.2291 99.1176C55.1921 99.0394 55.1443 98.8872 55.1603 98.6899C55.1761 98.4956 55.2449 98.3656 55.279 98.3146L58.4513 100.429C59.041 99.5449 59.1451 98.4783 58.6748 97.4854L55.2291 99.1176ZM55.2385 98.378C55.2767 98.3155 55.3704 98.1965 55.5399 98.1011C55.7099 98.0055 55.8622 97.9865 55.9393 97.9865V101.799C57.0121 101.799 57.9353 101.277 58.4918 100.366L55.2385 98.378ZM55.9393 97.9865C55.9841 97.9865 56.0424 97.9923 56.1081 98.0102C56.1742 98.0283 56.2338 98.0547 56.2836 98.0845L54.3219 101.354C54.82 101.653 55.3728 101.799 55.9393 101.799V97.9865ZM56.3602 98.133C56.5216 98.2407 56.5765 98.3512 56.5738 98.3459L53.1637 100.051C53.3925 100.509 53.7367 100.966 54.2453 101.305L56.3602 98.133ZM56.6312 98.4718L48.6745 79.1733L45.1497 80.6265L53.1063 99.9251L56.6312 98.4718ZM46.9121 81.8062H47.809V77.9935H46.9121V81.8062ZM46.0485 79.1687L38.0339 98.4673L41.5551 99.9296L49.5696 80.631L46.0485 79.1687ZM38.0348 98.4652C38.052 98.4238 38.0867 98.3568 38.1492 98.2818C38.213 98.2051 38.292 98.1372 38.3797 98.0845L40.3413 101.354C40.9233 101.005 41.32 100.494 41.5542 99.9316L38.0348 98.4652ZM38.303 98.133C38.3819 98.0805 38.4682 98.0411 38.5547 98.0164C38.6396 97.9922 38.7088 97.9865 38.7529 97.9865V101.799C39.3179 101.799 39.8974 101.652 40.4179 101.305L38.303 98.133ZM42.4024 95.2903L43.2704 93.3517L39.7906 91.7936L38.9226 93.7322L42.4024 95.2903ZM41.5305 94.479H53.2774V90.6663H41.5305V94.479ZM51.5375 93.3517L52.4055 95.2903L55.8853 93.7322L55.0173 91.7936L51.5375 93.3517ZM54.1454 92.6049H40.6625V96.4176H54.1454V92.6049ZM65.2884 99.6614L64.6556 101.46L64.6755 101.467L64.6954 101.473L65.2884 99.6614ZM62.5686 98.1279L61.334 99.5804L61.334 99.5804L62.5686 98.1279ZM60.8037 95.8422L62.5312 95.036L62.5203 95.0126L62.5088 94.9896L60.8037 95.8422ZM60.7748 95.0031L59.1196 94.0573L59.1077 94.0781L59.0963 94.0993L60.7748 95.0031ZM61.527 94.4534L62.0373 96.2902L62.0507 96.2864L61.527 94.4534ZM62.3082 94.5402L61.4044 96.2186L61.4299 96.2323L61.4557 96.2452L62.3082 94.5402ZM62.9158 95.1478L61.2107 96.0003L61.2166 96.012L61.2226 96.0236L62.9158 95.1478ZM66.1853 97.6939L65.5961 99.5069L65.6167 99.5136L65.6375 99.5198L66.1853 97.6939ZM71.4512 97.5492L72.1813 99.3102L72.1995 99.3027L72.2175 99.2948L71.4512 97.5492ZM73.3029 96.0736L71.7454 94.9742L71.7389 94.9836L73.3029 96.0736ZM72.6953 90.6631L74.0281 89.3L74.0281 89.3L72.6953 90.6631ZM68.6157 89.0428L68.8522 87.1512L68.8422 87.15L68.6157 89.0428ZM63.3209 86.9596L62.0504 88.3809L62.0564 88.3863L62.0625 88.3916L63.3209 86.9596ZM62.3372 79.7263L60.7999 78.599L60.7916 78.6102L60.7836 78.6215L62.3372 79.7263ZM64.9412 77.7299L65.6809 79.4869L65.6939 79.4814L65.7069 79.4757L64.9412 77.7299ZM71.6248 77.5274L70.9168 79.2974L70.9338 79.3042L70.9511 79.3107L71.6248 77.5274ZM73.8816 78.8583L72.6232 80.2903L72.6461 80.3104L72.6697 80.3299L73.8816 78.8583ZM75.4729 80.6522L73.851 81.6539L73.8563 81.6625L75.4729 80.6522ZM75.6465 81.5491L73.8045 81.0579L73.789 81.1161L73.7772 81.1752L75.6465 81.5491ZM75.1546 82.2146L75.9608 83.9421L76.0321 83.9088L76.1004 83.8697L75.1546 82.2146ZM74.2577 82.2724L73.6549 84.0809L73.6719 84.0866L73.6891 84.092L74.2577 82.2724ZM73.5922 81.7227L75.2474 80.7769L75.2196 80.7282L75.189 80.6813L73.5922 81.7227ZM72.4928 80.4786L71.1765 81.8575L71.2085 81.8881L71.2419 81.9171L72.4928 80.4786ZM70.9304 79.5238L71.5997 77.7388L71.5997 77.7388L70.9304 79.5238ZM68.7025 79.1476L68.7448 77.2418L68.7237 77.2413H68.7025V79.1476ZM65.028 80.1314L66.108 81.7023L66.119 81.6947L66.1299 81.687L65.028 80.1314ZM64.16 84.7607L62.5403 85.766L62.5482 85.7789L62.5564 85.7916L64.16 84.7607ZM65.867 86.1784L64.998 87.8752L65.0225 87.8877L65.0474 87.8996L65.867 86.1784ZM69.1076 87.0464L69.3793 85.1595L69.3772 85.1592L69.1076 87.0464ZM74.4602 89.2743L73.1236 90.6336L73.135 90.6448L73.1466 90.6558L74.4602 89.2743ZM75.6465 96.4498L73.9253 95.6302L73.9173 95.647L73.9096 95.664L75.6465 96.4498ZM74.0552 98.504L75.2461 99.9926L75.2511 99.9886L74.0552 98.504ZM71.6537 99.7482L71.0851 97.9286L71.0741 97.9321L71.6537 99.7482ZM68.7314 98.2758C67.6772 98.2758 66.7317 98.1279 65.8813 97.8496L64.6954 101.473C65.9668 101.889 67.3167 102.089 68.7314 102.089V98.2758ZM65.9211 97.8631C65.0796 97.567 64.3816 97.167 63.8033 96.6754L61.334 99.5804C62.2988 100.4 63.4139 101.023 64.6556 101.46L65.9211 97.8631ZM63.8033 96.6754C63.2284 96.1867 62.8138 95.6415 62.5312 95.036L59.0762 96.6483C59.6038 97.7788 60.3658 98.7574 61.334 99.5804L63.8033 96.6754ZM62.5088 94.9896C62.5262 95.0245 62.5794 95.1454 62.5859 95.3352C62.593 95.5391 62.5429 95.7404 62.4533 95.9069L59.0963 94.0993C58.603 95.0154 58.7334 95.9643 59.0986 96.6947L62.5088 94.9896ZM62.4299 95.9489C62.3742 96.0464 62.2949 96.1354 62.2033 96.2023C62.1163 96.2659 62.0499 96.2866 62.0373 96.2902L61.0168 92.6166C60.2684 92.8244 59.5629 93.2815 59.1196 94.0573L62.4299 95.9489ZM62.0507 96.2864C61.9647 96.3109 61.8479 96.3267 61.7143 96.3119C61.5814 96.2971 61.4753 96.2568 61.4044 96.2186L63.212 92.8617C62.5306 92.4948 61.7586 92.4046 61.0033 92.6204L62.0507 96.2864ZM61.4557 96.2452C61.4174 96.2261 61.366 96.1926 61.3147 96.1413C61.2634 96.09 61.2299 96.0386 61.2107 96.0003L64.6209 94.2952C64.3014 93.6562 63.7998 93.1546 63.1608 92.8351L61.4557 96.2452ZM61.2226 96.0236C61.6514 96.8526 62.2618 97.557 63.0043 98.1459L65.3735 95.1587C64.9972 94.8602 64.7589 94.5616 64.6091 94.2719L61.2226 96.0236ZM63.0043 98.1459C63.764 98.7485 64.6377 99.1954 65.5961 99.5069L66.7745 95.8809C66.1897 95.6908 65.7325 95.4434 65.3735 95.1587L63.0043 98.1459ZM65.6375 99.5198C66.611 99.8119 67.6471 99.9474 68.7314 99.9474V96.1347C67.964 96.1347 67.3027 96.0388 66.7331 95.8679L65.6375 99.5198ZM68.7314 99.9474C69.9567 99.9474 71.1187 99.7508 72.1813 99.3102L70.721 95.7882C70.2019 96.0035 69.5508 96.1347 68.7314 96.1347V99.9474ZM72.2175 99.2948C73.2921 98.823 74.2006 98.1197 74.8669 97.1637L71.7389 94.9836C71.5179 95.3007 71.192 95.581 70.6848 95.8037L72.2175 99.2948ZM74.8603 97.173C75.5838 96.148 75.9036 94.9582 75.9036 93.7011H72.0909C72.0909 94.2957 71.9479 94.6876 71.7455 94.9743L74.8603 97.173ZM75.9036 93.7011C75.9036 91.9935 75.2498 90.4946 74.0281 89.3L71.3625 92.0261C71.8768 92.529 72.0909 93.0555 72.0909 93.7011H75.9036ZM74.0281 89.3C72.7402 88.0408 70.9079 87.4082 68.8522 87.1512L68.3792 90.9345C70.027 91.1404 70.9144 91.588 71.3625 92.0261L74.0281 89.3ZM68.8422 87.15C66.84 86.9104 65.4792 86.3184 64.5793 85.5276L62.0625 88.3916C63.7088 89.8383 65.8778 90.6352 68.3892 90.9357L68.8422 87.15ZM64.5914 85.5384C63.7038 84.7449 63.3176 83.8651 63.3176 82.7932H59.505C59.505 85.0005 60.3918 86.8982 62.0504 88.3809L64.5914 85.5384ZM63.3176 82.7932C63.3176 81.9691 63.5269 81.3427 63.8908 80.8311L60.7836 78.6215C59.9129 79.8459 59.505 81.2641 59.505 82.7932H63.3176ZM63.8745 80.8536C64.2854 80.2932 64.864 79.8308 65.6809 79.4869L64.2014 75.9729C62.8194 76.5548 61.662 77.4234 60.7999 78.599L63.8745 80.8536ZM65.7069 79.4757C66.5238 79.1174 67.5186 78.9129 68.7314 78.9129V75.1002C67.0895 75.1002 65.5575 75.3779 64.1755 75.9841L65.7069 79.4757ZM68.7314 78.9129C69.5823 78.9129 70.3022 79.0516 70.9168 79.2974L72.3328 75.7574C71.2113 75.3088 70.0024 75.1002 68.7314 75.1002V78.9129ZM70.9511 79.3107C71.625 79.5653 72.1744 79.896 72.6232 80.2903L75.14 77.4263C74.3156 76.7019 73.3605 76.1453 72.2985 75.744L70.9511 79.3107ZM72.6697 80.3299C73.1804 80.7504 73.5665 81.1934 73.851 81.6539L77.0948 79.6504C76.5691 78.7993 75.8944 78.0463 75.0934 77.3867L72.6697 80.3299ZM73.8563 81.6625C73.8523 81.6561 73.8127 81.5905 73.7893 81.4701C73.7645 81.3415 73.7675 81.1967 73.8045 81.0579L77.4885 82.0403C77.7303 81.1334 77.4972 80.2942 77.0895 79.6418L73.8563 81.6625ZM73.7772 81.1752C73.7993 81.0647 73.8511 80.9292 73.9471 80.7993C74.0414 80.6718 74.1433 80.5968 74.2088 80.5594L76.1004 83.8697C76.8197 83.4588 77.3434 82.7852 77.5158 81.923L73.7772 81.1752ZM74.3485 80.4871C74.4045 80.4609 74.4882 80.4345 74.5907 80.4279C74.6927 80.4213 74.775 80.4368 74.8263 80.4529L73.6891 84.092C74.445 84.3282 75.2347 84.2809 75.9608 83.9421L74.3485 80.4871ZM74.8605 80.4639C74.9253 80.4855 75.0075 80.5261 75.0884 80.5929C75.1689 80.6594 75.2197 80.7283 75.2474 80.7769L71.9371 82.6685C72.319 83.3369 72.9109 83.833 73.6549 84.0809L74.8605 80.4639ZM75.189 80.6813C74.7934 80.0747 74.306 79.529 73.7437 79.04L71.2419 81.9171C71.5668 82.1997 71.8124 82.4834 71.9955 82.7641L75.189 80.6813ZM73.8091 79.0996C73.177 78.4962 72.428 78.0494 71.5997 77.7388L70.261 81.3087C70.6672 81.4611 70.9599 81.6508 71.1765 81.8575L73.8091 79.0996ZM71.5997 77.7388C70.7295 77.4125 69.7632 77.2644 68.7448 77.2418L68.6601 81.0535C69.3778 81.0695 69.8967 81.1721 70.261 81.3087L71.5997 77.7388ZM68.7025 77.2413C66.9172 77.2413 65.268 77.6252 63.9261 78.5757L66.1299 81.687C66.6397 81.3259 67.4402 81.054 68.7025 81.054V77.2413ZM63.948 78.5605C62.4476 79.5919 61.7328 81.1484 61.7328 82.9379H65.5455C65.5455 82.2584 65.7566 81.9439 66.108 81.7023L63.948 78.5605ZM61.7328 82.9379C61.7328 83.9505 62.0065 84.906 62.5403 85.766L65.7797 83.7554C65.6191 83.4966 65.5455 83.237 65.5455 82.9379H61.7328ZM62.5564 85.7916C63.1421 86.7027 64.0175 87.373 64.998 87.8752L66.7361 84.4817C66.1348 84.1737 65.8722 83.8988 65.7635 83.7298L62.5564 85.7916ZM65.0474 87.8996C66.0969 88.3993 67.3854 88.7261 68.838 88.9336L69.3772 85.1592C68.1293 84.981 67.2574 84.7291 66.6866 84.4573L65.0474 87.8996ZM68.8359 88.9333C71.0358 89.2501 72.3685 89.891 73.1236 90.6336L75.7968 87.915C74.2373 86.3815 72.0016 85.5372 69.3793 85.1595L68.8359 88.9333ZM73.1466 90.6558C73.8987 91.3709 74.3188 92.314 74.3188 93.6722H78.1315C78.1315 91.404 77.375 89.4152 75.7738 87.8928L73.1466 90.6558ZM74.3188 93.6722C74.3188 94.4756 74.1711 95.1141 73.9253 95.6302L77.3677 97.2694C77.8935 96.1651 78.1315 94.9519 78.1315 93.6722H74.3188ZM73.9096 95.664C73.6666 96.2012 73.3218 96.6469 72.8593 97.0194L75.2511 99.9886C76.1774 99.2424 76.8934 98.3185 77.3834 97.2355L73.9096 95.664ZM72.8643 97.0154C72.3954 97.3905 71.8122 97.7014 71.0851 97.9286L72.2223 101.568C73.3469 101.216 74.3647 100.698 75.246 99.9926L72.8643 97.0154ZM71.0741 97.9321C70.3717 98.1562 69.5948 98.2758 68.7314 98.2758V102.089C69.9512 102.089 71.1225 101.919 72.2333 101.564L71.0741 97.9321ZM85.8921 99.6614L85.2593 101.46L85.2791 101.467L85.2991 101.473L85.8921 99.6614ZM83.1723 98.1279L81.9377 99.5804L81.9377 99.5804L83.1723 98.1279ZM81.4074 95.8422L83.1349 95.036L83.124 95.0126L83.1125 94.9896L81.4074 95.8422ZM81.3785 95.0031L79.7233 94.0573L79.7114 94.0781L79.7 94.0993L81.3785 95.0031ZM82.1307 94.4534L82.641 96.2902L82.6544 96.2864L82.1307 94.4534ZM82.9119 94.5402L82.0081 96.2186L82.0335 96.2323L82.0594 96.2452L82.9119 94.5402ZM83.5195 95.1478L81.8144 96.0003L81.8203 96.012L81.8263 96.0236L83.5195 95.1478ZM86.789 97.6939L86.1998 99.5069L86.2204 99.5136L86.2412 99.5198L86.789 97.6939ZM92.0549 97.5492L92.785 99.3102L92.8032 99.3027L92.8212 99.2948L92.0549 97.5492ZM93.9066 96.0736L92.3491 94.9742L92.3426 94.9836L93.9066 96.0736ZM93.299 90.6631L94.6317 89.3L94.6317 89.3L93.299 90.6631ZM89.2194 89.0428L89.4558 87.1512L89.4459 87.15L89.2194 89.0428ZM83.9246 86.9596L82.6541 88.3809L82.6601 88.3863L82.6662 88.3916L83.9246 86.9596ZM82.9409 79.7263L81.4036 78.599L81.3953 78.6102L81.3873 78.6215L82.9409 79.7263ZM85.5449 77.7299L86.2846 79.4869L86.2976 79.4814L86.3106 79.4757L85.5449 77.7299ZM92.2285 77.5274L91.5205 79.2974L91.5375 79.3042L91.5547 79.3107L92.2285 77.5274ZM94.4853 78.8583L93.2268 80.2903L93.2498 80.3104L93.2734 80.3299L94.4853 78.8583ZM96.0766 80.6522L94.4546 81.6539L94.46 81.6625L96.0766 80.6522ZM96.2502 81.5491L94.4082 81.0579L94.3927 81.1161L94.3809 81.1752L96.2502 81.5491ZM95.7583 82.2146L96.5645 83.9421L96.6358 83.9088L96.7041 83.8697L95.7583 82.2146ZM94.8614 82.2724L94.2585 84.0809L94.2756 84.0866L94.2928 84.092L94.8614 82.2724ZM94.1959 81.7227L95.8511 80.7769L95.8233 80.7282L95.7927 80.6813L94.1959 81.7227ZM93.0965 80.4786L91.7802 81.8575L91.8122 81.8881L91.8455 81.9171L93.0965 80.4786ZM91.5341 79.5238L92.2034 77.7388L92.2034 77.7388L91.5341 79.5238ZM89.3062 79.1476L89.3485 77.2418L89.3274 77.2413H89.3062V79.1476ZM85.6317 80.1314L86.7117 81.7023L86.7227 81.6947L86.7336 81.687L85.6317 80.1314ZM84.7637 84.7607L83.1439 85.766L83.1519 85.7789L83.1601 85.7916L84.7637 84.7607ZM86.4707 86.1784L85.6017 87.8752L85.6262 87.8877L85.6511 87.8996L86.4707 86.1784ZM89.7113 87.0464L89.983 85.1595L89.9809 85.1592L89.7113 87.0464ZM95.0639 89.2743L93.7273 90.6336L93.7387 90.6448L93.7503 90.6558L95.0639 89.2743ZM96.2502 96.4498L94.529 95.6302L94.521 95.647L94.5133 95.664L96.2502 96.4498ZM94.6589 98.504L95.8497 99.9926L95.8548 99.9886L94.6589 98.504ZM92.2574 99.7482L91.6888 97.9286L91.6778 97.9321L92.2574 99.7482ZM89.3351 98.2758C88.2809 98.2758 87.3354 98.1279 86.485 97.8496L85.2991 101.473C86.5705 101.889 87.9204 102.089 89.3351 102.089V98.2758ZM86.5248 97.8631C85.6833 97.567 84.9853 97.167 84.407 96.6754L81.9377 99.5804C82.9025 100.4 84.0176 101.023 85.2593 101.46L86.5248 97.8631ZM84.407 96.6754C83.8321 96.1867 83.4175 95.6415 83.1349 95.036L79.6799 96.6483C80.2074 97.7788 80.9695 98.7574 81.9377 99.5804L84.407 96.6754ZM83.1125 94.9896C83.1299 95.0245 83.1831 95.1454 83.1896 95.3352C83.1967 95.5391 83.1466 95.7404 83.0569 95.9069L79.7 94.0993C79.2067 95.0154 79.3371 95.9643 79.7023 96.6947L83.1125 94.9896ZM83.0336 95.9489C82.9779 96.0464 82.8986 96.1354 82.807 96.2023C82.72 96.2659 82.6536 96.2866 82.6409 96.2902L81.6205 92.6166C80.8721 92.8244 80.1666 93.2815 79.7233 94.0573L83.0336 95.9489ZM82.6544 96.2864C82.5684 96.3109 82.4516 96.3267 82.318 96.3119C82.185 96.2971 82.079 96.2568 82.0081 96.2186L83.8157 92.8617C83.1343 92.4948 82.3623 92.4046 81.607 92.6204L82.6544 96.2864ZM82.0594 96.2452C82.0211 96.2261 81.9697 96.1926 81.9184 96.1413C81.8671 96.09 81.8336 96.0386 81.8144 96.0003L85.2246 94.2952C84.9051 93.6562 84.4034 93.1546 83.7645 92.8351L82.0594 96.2452ZM81.8263 96.0236C82.2551 96.8526 82.8655 97.557 83.608 98.1459L85.9772 95.1587C85.6009 94.8602 85.3626 94.5616 85.2128 94.2719L81.8263 96.0236ZM83.608 98.1459C84.3677 98.7485 85.2414 99.1954 86.1998 99.5069L87.3782 95.8809C86.7934 95.6908 86.3362 95.4434 85.9772 95.1587L83.608 98.1459ZM86.2412 99.5198C87.2147 99.8119 88.2508 99.9474 89.3351 99.9474V96.1347C88.5677 96.1347 87.9064 96.0388 87.3368 95.8679L86.2412 99.5198ZM89.3351 99.9474C90.5603 99.9474 91.7224 99.7508 92.785 99.3102L91.3247 95.7882C90.8056 96.0035 90.1545 96.1347 89.3351 96.1347V99.9474ZM92.8212 99.2948C93.8957 98.823 94.8042 98.1197 95.4706 97.1637L92.3426 94.9836C92.1216 95.3007 91.7957 95.581 91.2885 95.8037L92.8212 99.2948ZM95.464 97.173C96.1875 96.148 96.5073 94.9582 96.5073 93.7011H92.6946C92.6946 94.2957 92.5515 94.6876 92.3492 94.9743L95.464 97.173ZM96.5073 93.7011C96.5073 91.9935 95.8535 90.4946 94.6317 89.3L91.9662 92.0261C92.4805 92.529 92.6946 93.0555 92.6946 93.7011H96.5073ZM94.6317 89.3C93.3439 88.0408 91.5116 87.4082 89.4558 87.1512L88.9829 90.9345C90.6306 91.1404 91.5181 91.588 91.9662 92.0261L94.6317 89.3ZM89.4459 87.15C87.4437 86.9104 86.0828 86.3184 85.183 85.5276L82.6662 88.3916C84.3125 89.8383 86.4815 90.6352 88.9929 90.9357L89.4459 87.15ZM85.1951 85.5384C84.3075 84.7449 83.9213 83.8651 83.9213 82.7932H80.1086C80.1086 85.0005 80.9955 86.8982 82.6541 88.3809L85.1951 85.5384ZM83.9213 82.7932C83.9213 81.9691 84.1306 81.3427 84.4944 80.8311L81.3873 78.6215C80.5166 79.8459 80.1086 81.2641 80.1086 82.7932H83.9213ZM84.4781 80.8536C84.8891 80.2932 85.4677 79.8308 86.2846 79.4869L84.8051 75.9729C83.4231 76.5548 82.2657 77.4234 81.4036 78.599L84.4781 80.8536ZM86.3106 79.4757C87.1275 79.1174 88.1223 78.9129 89.3351 78.9129V75.1002C87.6932 75.1002 86.1612 75.3779 84.7791 75.9841L86.3106 79.4757ZM89.3351 78.9129C90.186 78.9129 90.9059 79.0516 91.5205 79.2974L92.9365 75.7574C91.815 75.3088 90.6061 75.1002 89.3351 75.1002V78.9129ZM91.5547 79.3107C92.2287 79.5653 92.7781 79.896 93.2268 80.2903L95.7437 77.4263C94.9193 76.7019 93.9642 76.1453 92.9022 75.744L91.5547 79.3107ZM93.2734 80.3299C93.7841 80.7504 94.1702 81.1934 94.4547 81.6539L97.6985 79.6504C97.1728 78.7993 96.4981 78.0463 95.6971 77.3867L93.2734 80.3299ZM94.46 81.6625C94.456 81.6561 94.4163 81.5905 94.393 81.4701C94.3681 81.3415 94.3712 81.1967 94.4082 81.0579L98.0922 82.0403C98.334 81.1334 98.1009 80.2942 97.6932 79.6418L94.46 81.6625ZM94.3809 81.1752C94.403 81.0647 94.4548 80.9292 94.5508 80.7993C94.6451 80.6718 94.747 80.5968 94.8125 80.5594L96.7041 83.8697C97.4233 83.4588 97.9471 82.7852 98.1195 81.923L94.3809 81.1752ZM94.9522 80.4871C95.0082 80.4609 95.0919 80.4345 95.1944 80.4279C95.2964 80.4213 95.3787 80.4368 95.43 80.4529L94.2928 84.092C95.0487 84.3282 95.8384 84.2809 96.5645 83.9421L94.9522 80.4871ZM95.4642 80.4639C95.5289 80.4855 95.6112 80.5261 95.6921 80.5929C95.7725 80.6594 95.8233 80.7283 95.8511 80.7769L92.5407 82.6685C92.9227 83.3369 93.5146 83.833 94.2585 84.0809L95.4642 80.4639ZM95.7927 80.6813C95.3971 80.0747 94.9097 79.529 94.3474 79.04L91.8455 81.9171C92.1705 82.1997 92.4161 82.4834 92.5991 82.7641L95.7927 80.6813ZM94.4127 79.0996C93.7806 78.4962 93.0317 78.0494 92.2034 77.7388L90.8647 81.3087C91.2709 81.4611 91.5636 81.6508 91.7802 81.8575L94.4127 79.0996ZM92.2034 77.7388C91.3332 77.4125 90.3669 77.2644 89.3485 77.2418L89.2638 81.0535C89.9815 81.0695 90.5004 81.1721 90.8647 81.3087L92.2034 77.7388ZM89.3062 77.2413C87.5209 77.2413 85.8717 77.6252 84.5298 78.5757L86.7336 81.687C87.2434 81.3259 88.0439 81.054 89.3062 81.054V77.2413ZM84.5517 78.5605C83.0513 79.5919 82.3365 81.1484 82.3365 82.9379H86.1492C86.1492 82.2584 86.3603 81.9439 86.7117 81.7023L84.5517 78.5605ZM82.3365 82.9379C82.3365 83.9505 82.6102 84.906 83.1439 85.766L86.3834 83.7554C86.2228 83.4966 86.1492 83.237 86.1492 82.9379H82.3365ZM83.1601 85.7916C83.7458 86.7027 84.6212 87.373 85.6017 87.8752L87.3398 84.4817C86.7385 84.1737 86.4759 83.8988 86.3672 83.7298L83.1601 85.7916ZM85.6511 87.8996C86.7006 88.3993 87.989 88.7261 89.4417 88.9336L89.9809 85.1592C88.733 84.981 87.8611 84.7291 87.2903 84.4573L85.6511 87.8996ZM89.4395 88.9333C91.6395 89.2501 92.9722 89.891 93.7273 90.6336L96.4005 87.915C94.841 86.3815 92.6053 85.5372 89.983 85.1595L89.4395 88.9333ZM93.7503 90.6558C94.5023 91.3709 94.9225 92.314 94.9225 93.6722H98.7352C98.7352 91.404 97.9787 89.4152 96.3775 87.8928L93.7503 90.6558ZM94.9225 93.6722C94.9225 94.4756 94.7747 95.1141 94.529 95.6302L97.9714 97.2694C98.4972 96.1651 98.7352 94.9519 98.7352 93.6722H94.9225ZM94.5133 95.664C94.2703 96.2012 93.9254 96.6469 93.4629 97.0194L95.8548 99.9886C96.7811 99.2424 97.4971 98.3185 97.9871 97.2355L94.5133 95.664ZM93.468 97.0154C92.9991 97.3905 92.4159 97.7014 91.6888 97.9286L92.826 101.568C93.9506 101.216 94.9684 100.698 95.8497 99.9926L93.468 97.0154ZM91.6778 97.9321C90.9754 98.1562 90.1985 98.2758 89.3351 98.2758V102.089C90.5549 102.089 91.7262 101.919 92.837 101.564L91.6778 97.9321Z" fill="#FFFBEB"/>
</g>
<defs>
<filter id="filter0_f_1212_1483" x="6.10742" y="6.10718" width="103.786" height="103.786" filterUnits="userSpaceOnUse" color-interpolation-filters="sRGB">
<feFlood flood-opacity="0" result="BackgroundImageFix"/>
<feBlend mode="normal" in="SourceGraphic" in2="BackgroundImageFix" result="shape"/>
<feGaussianBlur stdDeviation="1" result="effect1_foregroundBlur_1212_1483"/>
</filter>
<filter id="filter1_d_1212_1483" x="13.1782" y="74.0066" width="88.6504" height="33.1755" filterUnits="userSpaceOnUse" color-interpolation-filters="sRGB">
<feFlood flood-opacity="0" result="BackgroundImageFix"/>
<feColorMatrix in="SourceAlpha" type="matrix" values="0 0 0 0 0 0 0 0 0 0 0 0 0 0 0 0 0 0 127 0" result="hardAlpha"/>
<feOffset dy="2"/>
<feGaussianBlur stdDeviation="2.5"/>
<feComposite in2="hardAlpha" operator="out"/>
<feColorMatrix type="matrix" values="0 0 0 0 0 0 0 0 0 0 0 0 0 0 0 0 0 0 0.08 0"/>
<feBlend mode="normal" in2="BackgroundImageFix" result="effect1_dropShadow_1212_1483"/>
<feBlend mode="normal" in="SourceGraphic" in2="effect1_dropShadow_1212_1483" result="shape"/>
</filter>
<linearGradient id="paint0_linear_1212_1483" x1="58" y1="0" x2="58" y2="116" gradientUnits="userSpaceOnUse">
<stop stop-color="#CF649A"/>
<stop offset="1" stop-color="#D92F85"/>
</linearGradient>
<linearGradient id="paint1_linear_1212_1483" x1="58.0002" y1="9.10718" x2="34.0863" y2="65.4315" gradientUnits="userSpaceOnUse">
<stop stop-color="white"/>
<stop offset="1" stop-color="white" stop-opacity="0"/>
</linearGradient>
</defs>
</svg>
