<svg width="116" height="119" viewBox="0 0 116 119" fill="none" xmlns="http://www.w3.org/2000/svg">
<rect width="116" height="116" rx="16" fill="url(#paint0_linear_1212_1453)"/>
<g filter="url(#filter0_d_1212_1453)">
<path d="M25.1393 103.849C24.7485 103.849 24.4066 103.715 24.1135 103.446C23.8449 103.153 23.7106 102.811 23.7106 102.421V75.2382H26.568V102.421C26.568 102.811 26.4337 103.153 26.165 103.446C25.8964 103.715 25.5545 103.849 25.1393 103.849ZM15.0283 77.8392C14.6375 77.8392 14.32 77.7171 14.0758 77.4728C13.8316 77.2286 13.7095 76.9233 13.7095 76.557C13.7095 76.1662 13.8316 75.8487 14.0758 75.6045C14.32 75.3603 14.6375 75.2382 15.0283 75.2382H35.2869C35.6777 75.2382 35.9952 75.3603 36.2394 75.6045C36.4836 75.8487 36.6057 76.1662 36.6057 76.557C36.6057 76.9233 36.4836 77.2286 36.2394 77.4728C35.9952 77.7171 35.6777 77.8392 35.2869 77.8392H15.0283Z" fill="#FFFBEB"/>
<path d="M48.5118 104.216C46.9487 104.216 45.4956 103.996 44.1523 103.556C42.8335 103.092 41.6857 102.445 40.7087 101.615C39.7318 100.784 38.9869 99.8196 38.4741 98.7206C38.2787 98.3298 38.2665 97.9757 38.4374 97.6582C38.6328 97.3163 38.9503 97.0843 39.3899 96.9621C39.7318 96.8645 40.0615 96.9011 40.379 97.072C40.721 97.243 40.9774 97.4994 41.1484 97.8414C41.5147 98.5496 42.052 99.1846 42.7603 99.7463C43.4685 100.308 44.3111 100.748 45.288 101.065C46.2649 101.358 47.3395 101.505 48.5118 101.505C49.8062 101.505 50.9541 101.297 51.9554 100.882C52.9567 100.442 53.7382 99.8196 54.3 99.0136C54.8861 98.1833 55.1792 97.1819 55.1792 96.0097C55.1792 94.5199 54.6297 93.2377 53.5307 92.1631C52.4316 91.0885 50.7098 90.4047 48.3653 90.1116C45.5078 89.7697 43.2731 88.8904 41.6612 87.4739C40.0493 86.033 39.2434 84.2746 39.2434 82.1986C39.2434 80.7088 39.6341 79.4144 40.4157 78.3154C41.2216 77.2164 42.3206 76.3738 43.7127 75.7877C45.1048 75.1771 46.7045 74.8718 48.5118 74.8718C49.855 74.8718 51.0762 75.0916 52.1752 75.5312C53.2742 75.9464 54.2267 76.5081 55.0326 77.2164C55.863 77.9002 56.5346 78.6573 57.0475 79.4877C57.2917 79.8785 57.365 80.257 57.2673 80.6234C57.1941 80.9897 56.9865 81.2706 56.6445 81.466C56.2782 81.6369 55.8997 81.6613 55.5089 81.5392C55.1425 81.4171 54.8617 81.1851 54.6663 80.8432C54.3 80.2814 53.8359 79.7564 53.2742 79.2679C52.7369 78.755 52.0775 78.3521 51.296 78.059C50.5144 77.7659 49.5742 77.6072 48.4752 77.5827C46.5458 77.5827 44.9949 77.9979 43.8226 78.8283C42.6503 79.6342 42.0642 80.8187 42.0642 82.3818C42.0642 83.2122 42.284 83.9815 42.7236 84.6897C43.1632 85.3736 43.8837 85.9719 44.885 86.4848C45.9108 86.9733 47.2784 87.3396 48.988 87.5838C52.0409 88.0234 54.3 88.9637 55.7653 90.4046C57.2551 91.8212 58 93.6773 58 95.973C58 97.2918 57.7558 98.4641 57.2673 99.4899C56.8033 100.516 56.1317 101.383 55.2525 102.091C54.3977 102.775 53.3841 103.3 52.2118 103.666C51.064 104.033 49.8306 104.216 48.5118 104.216Z" fill="#FFFBEB"/>
<path d="M23.4109 104.09L23.4389 104.121L23.4695 104.149C23.9349 104.576 24.5055 104.803 25.1393 104.803C25.7814 104.803 26.3742 104.585 26.839 104.12L26.8537 104.106L26.8677 104.09C27.2944 103.625 27.5212 103.054 27.5212 102.421V78.7924H35.2869C35.8943 78.7924 36.4663 78.5939 36.9134 78.1468C37.3481 77.7122 37.5589 77.1591 37.5589 76.557C37.5589 75.9496 37.3604 75.3776 36.9134 74.9305C36.4663 74.4835 35.8943 74.285 35.2869 74.285H27.5212H26.568H23.7106H22.7574H15.0283C14.4209 74.285 13.8489 74.4835 13.4018 74.9305C12.9548 75.3776 12.7563 75.9496 12.7563 76.557C12.7563 77.1591 12.9671 77.7122 13.4018 78.1468C13.8489 78.5939 14.4209 78.7924 15.0283 78.7924H22.7574V102.421C22.7574 103.054 22.9842 103.625 23.4109 104.09ZM43.836 104.455L43.8459 104.459L43.8559 104.462C45.3044 104.936 46.8586 105.169 48.5118 105.169C49.9186 105.169 51.2496 104.973 52.4987 104.575C53.7693 104.178 54.8906 103.601 55.8479 102.835L55.8504 102.833C56.8431 102.034 57.6062 101.05 58.1319 99.8914C58.6876 98.7207 58.9532 97.4075 58.9532 95.973C58.9532 93.4526 58.1261 91.3371 56.4279 89.7194C54.7615 88.0841 52.2787 87.0947 49.1239 86.6404L49.1228 86.6402C47.472 86.4044 46.2124 86.0589 45.3072 85.6301C44.4116 85.1695 43.8489 84.6745 43.5294 84.1805C43.1858 83.6244 43.0174 83.0312 43.0174 82.3818C43.0174 81.0963 43.4776 80.2222 44.3626 79.6138L44.3627 79.6138L44.3736 79.6061C45.336 78.9244 46.6713 78.5374 48.4646 78.5359C49.4836 78.5595 50.3085 78.7067 50.9613 78.9515C51.6373 79.205 52.1826 79.5437 52.6161 79.9574L52.6321 79.9727L52.6488 79.9872C53.1442 80.418 53.5435 80.8709 53.8548 81.3439C54.164 81.8705 54.624 82.249 55.2075 82.4435L55.216 82.4463L55.2246 82.449C55.839 82.641 56.4629 82.6026 57.0476 82.3297L57.0833 82.3131L57.1175 82.2935C57.6755 81.9747 58.0598 81.4782 58.196 80.8395C58.3634 80.176 58.2028 79.5389 57.8573 78.985C57.2868 78.0617 56.5474 77.2309 55.6503 76.4903C54.7551 75.7062 53.708 75.0924 52.5206 74.6428C51.2972 74.1548 49.9567 73.9187 48.5118 73.9187C46.5999 73.9187 44.8682 74.2413 43.3364 74.9119C41.806 75.5575 40.5645 76.5007 39.647 77.7518L39.6469 77.7517L39.6389 77.763C38.7306 79.0402 38.2902 80.5326 38.2902 82.1986C38.2902 84.5584 39.2213 86.5713 41.026 88.1846L41.0259 88.1846L41.032 88.1899C42.83 89.77 45.2659 90.7003 48.2495 91.0577C50.4907 91.3382 51.9755 91.9756 52.8643 92.8446C53.7864 93.7463 54.226 94.7854 54.226 96.0097C54.226 97.0163 53.9771 97.8182 53.5212 98.464L53.518 98.4686C53.0692 99.1126 52.4361 99.6283 51.5812 100.005C50.7177 100.362 49.7006 100.552 48.5118 100.552C47.423 100.552 46.4456 100.416 45.5723 100.155C44.6933 99.8685 43.9583 99.4799 43.3525 98.9995C42.7376 98.5118 42.2941 97.9799 41.9975 97.4084C41.7364 96.8895 41.336 96.4881 40.818 96.2259C40.2897 95.9454 39.7101 95.8802 39.1314 96.0447C38.4927 96.2229 37.9491 96.5915 37.6098 97.1853L37.6039 97.1957L37.5982 97.2063C37.2505 97.852 37.3197 98.5357 37.6153 99.1344C38.1893 100.36 39.0193 101.43 40.0914 102.341C41.1649 103.253 42.4171 103.956 43.836 104.455Z" stroke="#FFFBEB" stroke-width="1.90635"/>
</g>
<g filter="url(#filter1_f_1212_1453)">
<rect x="9.10742" y="9.10718" width="97.7856" height="97.7856" rx="12" stroke="url(#paint1_linear_1212_1453)" stroke-opacity="0.5" stroke-width="2" stroke-linecap="round" stroke-linejoin="round" stroke-dasharray="6 6"/>
</g>
<defs>
<filter id="filter0_d_1212_1453" x="1.80322" y="64.9655" width="68.103" height="53.1566" filterUnits="userSpaceOnUse" color-interpolation-filters="sRGB">
<feFlood flood-opacity="0" result="BackgroundImageFix"/>
<feColorMatrix in="SourceAlpha" type="matrix" values="0 0 0 0 0 0 0 0 0 0 0 0 0 0 0 0 0 0 127 0" result="hardAlpha"/>
<feOffset dy="2"/>
<feGaussianBlur stdDeviation="5"/>
<feComposite in2="hardAlpha" operator="out"/>
<feColorMatrix type="matrix" values="0 0 0 0 0 0 0 0 0 0 0 0 0 0 0 0 0 0 0.16 0"/>
<feBlend mode="normal" in2="BackgroundImageFix" result="effect1_dropShadow_1212_1453"/>
<feBlend mode="normal" in="SourceGraphic" in2="effect1_dropShadow_1212_1453" result="shape"/>
</filter>
<filter id="filter1_f_1212_1453" x="6.10742" y="6.10718" width="103.786" height="103.786" filterUnits="userSpaceOnUse" color-interpolation-filters="sRGB">
<feFlood flood-opacity="0" result="BackgroundImageFix"/>
<feBlend mode="normal" in="SourceGraphic" in2="BackgroundImageFix" result="shape"/>
<feGaussianBlur stdDeviation="1" result="effect1_foregroundBlur_1212_1453"/>
</filter>
<linearGradient id="paint0_linear_1212_1453" x1="58" y1="0" x2="58" y2="116" gradientUnits="userSpaceOnUse">
<stop stop-color="#16A7F9"/>
<stop offset="1" stop-color="#0087D2"/>
</linearGradient>
<linearGradient id="paint1_linear_1212_1453" x1="58.0002" y1="9.10718" x2="34.0863" y2="65.4315" gradientUnits="userSpaceOnUse">
<stop stop-color="white"/>
<stop offset="1" stop-color="white" stop-opacity="0"/>
</linearGradient>
</defs>
</svg>
