<svg width="117" height="117" viewBox="0 0 117 117" fill="none" xmlns="http://www.w3.org/2000/svg">
<g clip-path="url(#clip0_1213_1529)">
<path d="M30.0573 90.3525L19.542 27.7084L39.1183 19.6541L51.5352 27.0372L62.9454 20.8846L86.7726 30.0575L73.3488 97.8474L30.0573 90.3525Z" fill="url(#paint0_linear_1213_1529)"/>
<path d="M97.8472 46.0541L87.7794 21.1083L69.4336 19.5422L41.1318 46.7253L48.7386 81.7389L62.9454 91.8067L97.8472 70.9999L89.2336 55.0033L97.8472 46.0541Z" fill="url(#paint1_linear_1213_1529)"/>
<path d="M82.186 42.3625L89.2335 55.0032L97.8471 46.0541L91.5827 30.5049L82.186 42.3625Z" fill="url(#paint2_linear_1213_1529)"/>
<path d="M34.5308 34.532H82.8562V82.8575H34.5308V34.532Z" fill="black"/>
<path d="M39.1182 73.7966H57.2402V76.8169H39.1182V73.7966Z" fill="white"/>
<path d="M62.8335 57.9118L65.4064 54.7796C67.1962 56.2338 69.0979 57.2406 71.3352 57.2406C73.125 57.2406 74.1318 56.5694 74.1318 55.3389V55.227C74.1318 54.1084 73.4606 53.5491 70.1047 52.6542C66.0776 51.6474 63.6165 50.5287 63.6165 46.5016V46.3897C63.6165 42.6982 66.525 40.3491 70.5521 40.3491C73.4606 40.3491 75.9216 41.244 77.9352 42.9219L75.6979 46.2779C73.9081 45.0474 72.2301 44.2643 70.5521 44.2643C68.8742 44.2643 67.9793 45.0474 67.9793 46.0542V46.166C67.9793 47.5084 68.8742 47.9559 72.2301 48.8508C76.2572 49.9694 78.4945 51.4237 78.4945 54.8915V55.0033C78.4945 59.0304 75.4742 61.2677 71.2233 61.2677C68.203 61.1559 65.1827 60.0372 62.8335 57.9118Z" fill="white"/>
<path d="M58.9176 40.7965L55.8973 52.4304L52.5414 40.7965H49.1854L45.7176 52.4304L42.6973 40.7965H38.1108L43.8159 60.8203H47.5075L50.8634 49.1863L54.1075 60.8203H57.9109L63.6159 40.7965H58.9176Z" fill="white"/>
</g>
<defs>
<linearGradient id="paint0_linear_1213_1529" x1="47.5842" y1="21.1755" x2="67.8485" y2="94.1279" gradientUnits="userSpaceOnUse">
<stop offset="0.285" stop-color="#00CDD7"/>
<stop offset="0.941" stop-color="#2086D7"/>
</linearGradient>
<linearGradient id="paint1_linear_1213_1529" x1="53.9068" y1="30.4311" x2="88.1876" y2="80.6997" gradientUnits="userSpaceOnUse">
<stop offset="0.14" stop-color="#FFF045"/>
<stop offset="0.366" stop-color="#00CDD7"/>
</linearGradient>
<linearGradient id="paint2_linear_1213_1529" x1="87.871" y1="36.6462" x2="92.3724" y2="52.5914" gradientUnits="userSpaceOnUse">
<stop offset="0.285" stop-color="#00CDD7"/>
<stop offset="0.941" stop-color="#2086D7"/>
</linearGradient>
<clipPath id="clip0_1213_1529">
<rect width="78.3052" height="78.3052" fill="white" transform="translate(19.542 19.5422)"/>
</clipPath>
</defs>
</svg>
