<svg width="116" height="116" viewBox="0 0 116 116" fill="none" xmlns="http://www.w3.org/2000/svg">
<rect width="116" height="116" fill="#60004A"/>
<path d="M60.3445 37.0976L47.6797 58.5372L61.2296 81.3036C61.5113 81.8198 61.2296 81.9337 60.8212 81.9337H51.1525C50.4714 81.9337 49.9948 81.9091 49.7225 81.4432C48.8138 79.6276 47.906 77.8235 46.9989 76.031C46.0903 74.2392 45.1257 72.4118 44.1052 70.5488C43.0838 68.6874 42.0738 66.8018 41.0752 64.8922C40.1665 66.7548 39.1565 68.6171 38.1812 70.4791C37.2047 72.3417 36.2401 74.1924 35.2875 76.031C34.3343 77.8707 33.3584 79.698 32.3597 81.5131C32.1778 81.9321 31.8596 81.9753 31.4063 81.9753H22.0782C21.7117 81.9753 21.6674 81.6998 21.8739 81.3734L35.0151 59.2354L22.2143 37.0277C21.9817 36.7109 22.1819 36.3732 22.5548 36.3992H32.1553C32.571 36.3757 32.9384 36.5326 33.1767 36.8882C33.9938 38.7507 34.9016 40.613 35.9002 42.475C36.8982 44.3376 37.9082 46.1766 38.9302 47.992C39.9516 49.8077 40.9617 51.6467 41.8241 53.509C42.7315 51.6005 43.6507 49.7382 44.5818 47.9222C45.5117 46.1064 46.4649 44.279 47.4414 42.44C48.4172 40.6014 49.3591 38.774 50.2672 36.9579C50.3879 36.5596 50.6763 36.3577 51.0843 36.3992H60.004C60.3445 36.3992 60.4854 36.8641 60.3445 37.0976Z" fill="#FF61F6"/>
<path d="M79.8857 82.8405C73.8808 82.9342 67.591 80.4619 64.4294 74.984C62.8856 72.3542 62.1139 69.0603 62.1143 65.1022C62.0887 61.8971 62.8872 58.7416 64.4294 55.9538C68.4085 48.8409 76.4247 46.1759 84.0391 46.8752V33.1176C84.0391 32.7924 84.1754 32.6287 84.4478 32.6287H93.0269C93.2614 32.5943 93.469 32.8072 93.4356 33.0477V74.3205C93.4356 76.0234 93.6043 77.7203 93.708 79.4185C93.7246 79.7086 93.5568 79.9955 93.2993 80.1169C89.0603 81.9301 84.4738 82.8195 79.8857 82.8405ZM84.0391 74.1808V55.1158C77.8202 53.3879 71.7822 58.1248 71.7829 64.6832C71.6353 71.4637 77.4802 76.1483 84.0391 74.1808Z" fill="#FF61F6"/>
</svg>
